<svg width="176" height="91" viewBox="0 0 176 91" fill="none" xmlns="http://www.w3.org/2000/svg">
<path d="M157.458 5.00194V3.18665C157.458 1.57764 157.458 1.28885 157.437 0.958796C157.417 0.608115 157.334 0.44309 156.994 0.37089C156.922 0.350262 156.787 0.350262 156.695 0.339948C156.622 0.329634 156.561 0.31932 156.561 0.278063C156.561 0.216178 156.612 0.19555 156.726 0.19555C156.963 0.19555 157.241 0.19555 157.891 0.226492C157.963 0.226492 160.016 0.226492 160.253 0.216178C160.48 0.205864 160.666 0.185236 160.727 0.154294C160.789 0.123351 160.81 0.113037 160.841 0.113037C160.872 0.113037 160.882 0.154294 160.882 0.205864C160.882 0.278063 160.82 0.401833 160.8 0.690629C160.789 0.845341 160.779 1.04131 160.758 1.30948C160.748 1.41262 160.717 1.48482 160.676 1.48482C160.614 1.48482 160.593 1.43325 160.593 1.35073C160.593 1.21665 160.573 1.09288 160.542 1.01037C160.47 0.773142 160.253 0.670001 159.799 0.628744C159.624 0.608115 158.5 0.597801 158.386 0.597801C158.345 0.597801 158.324 0.628744 158.324 0.700943V3.54764C158.324 3.61984 158.335 3.65079 158.386 3.65079C158.52 3.65079 159.789 3.65079 160.026 3.63016C160.305 3.60953 160.439 3.57859 160.542 3.45482C160.593 3.39293 160.624 3.35168 160.666 3.35168C160.697 3.35168 160.717 3.3723 160.717 3.43419C160.717 3.49607 160.666 3.67141 160.635 4.01178C160.604 4.33152 160.604 4.56874 160.593 4.71314C160.583 4.81628 160.562 4.86785 160.521 4.86785C160.459 4.86785 160.449 4.78534 160.449 4.70283C160.449 4.61 160.439 4.50686 160.408 4.41403C160.366 4.25932 160.243 4.11492 159.871 4.07367C159.593 4.04272 158.572 4.0221 158.396 4.0221C158.345 4.0221 158.324 4.05304 158.324 4.09429V5.00194C158.324 5.35262 158.314 6.54906 158.324 6.76566C158.345 7.18854 158.407 7.41545 158.665 7.51859C158.84 7.59079 159.118 7.61141 159.521 7.61141C159.83 7.61141 160.171 7.6011 160.449 7.51859C160.779 7.41545 160.892 7.19885 160.975 6.75534C160.996 6.64189 161.016 6.60063 161.068 6.60063C161.13 6.60063 161.13 6.68314 161.13 6.75534C161.13 6.83785 161.047 7.53922 160.996 7.75581C160.923 8.02398 160.841 8.02398 160.439 8.02398C159.675 8.02398 159.335 8.00335 158.933 7.99304C158.52 7.98272 158.046 7.9621 157.644 7.9621C157.396 7.9621 157.148 8.00335 156.88 7.99304C156.767 7.99304 156.715 7.97241 156.715 7.91053C156.715 7.87958 156.767 7.85895 156.829 7.84864C156.932 7.83833 156.994 7.83833 157.066 7.8177C157.283 7.76613 157.417 7.62173 157.437 6.84817C157.448 6.44592 157.458 5.9199 157.458 5.00194Z" fill="white"/>
<path d="M139.74 3.46538H144.113C144.144 3.46538 144.175 3.45507 144.175 3.4035V3.1869C144.175 1.5779 144.175 1.2891 144.154 0.959047C144.133 0.608366 144.051 0.44334 143.711 0.371141C143.628 0.350513 143.453 0.340199 143.36 0.340199C143.319 0.340199 143.277 0.31957 143.277 0.278313C143.277 0.216429 143.329 0.195801 143.442 0.195801C143.907 0.195801 144.556 0.226743 144.608 0.226743C144.66 0.226743 145.309 0.195801 145.619 0.195801C145.732 0.195801 145.784 0.216429 145.784 0.278313C145.784 0.31957 145.742 0.340199 145.701 0.340199C145.629 0.340199 145.567 0.350513 145.443 0.371141C145.165 0.422712 145.082 0.598052 145.062 0.959047C145.041 1.2891 145.041 1.5779 145.041 3.1869V5.00219C145.041 5.99234 145.041 6.80716 145.093 7.24036C145.124 7.53947 145.186 7.76638 145.495 7.80763C145.639 7.82826 145.866 7.84889 145.959 7.84889C146.021 7.84889 146.042 7.87983 146.042 7.91077C146.042 7.96234 145.99 7.99329 145.877 7.99329C145.309 7.99329 144.66 7.96234 144.608 7.96234C144.556 7.96234 143.907 7.99329 143.597 7.99329C143.484 7.99329 143.432 7.97266 143.432 7.91077C143.432 7.87983 143.453 7.84889 143.515 7.84889C143.607 7.84889 143.731 7.82826 143.824 7.80763C144.03 7.76638 144.082 7.53947 144.123 7.24036C144.175 6.80716 144.175 5.99234 144.175 5.00219V3.9192C144.175 3.87795 144.144 3.85732 144.113 3.85732H139.74C139.709 3.85732 139.678 3.86763 139.678 3.9192V5.00219C139.678 5.99234 139.678 6.80716 139.729 7.24036C139.76 7.53947 139.822 7.76638 140.132 7.80763C140.276 7.82826 140.503 7.84889 140.596 7.84889C140.658 7.84889 140.678 7.87983 140.678 7.91077C140.678 7.96234 140.627 7.99329 140.513 7.99329C139.946 7.99329 139.296 7.96234 139.245 7.96234C139.193 7.96234 138.543 7.99329 138.234 7.99329C138.12 7.99329 138.069 7.97266 138.069 7.91077C138.069 7.87983 138.089 7.84889 138.151 7.84889C138.244 7.84889 138.368 7.82826 138.461 7.80763C138.667 7.76638 138.719 7.53947 138.76 7.24036C138.811 6.80716 138.811 5.99234 138.811 5.00219V3.1869C138.811 1.5779 138.811 1.2891 138.791 0.959047C138.77 0.608366 138.688 0.44334 138.347 0.371141C138.265 0.350513 138.089 0.340199 137.997 0.340199C137.955 0.340199 137.914 0.31957 137.914 0.278313C137.914 0.216429 137.966 0.195801 138.079 0.195801C138.543 0.195801 139.193 0.226743 139.245 0.226743C139.296 0.226743 139.946 0.195801 140.255 0.195801C140.369 0.195801 140.42 0.216429 140.42 0.278313C140.42 0.31957 140.379 0.340199 140.338 0.340199C140.266 0.340199 140.204 0.350513 140.08 0.371141C139.802 0.422712 139.719 0.598052 139.698 0.959047C139.678 1.2891 139.678 1.5779 139.678 3.1869V3.4035C139.678 3.45507 139.709 3.46538 139.74 3.46538Z" fill="white"/>
<path d="M125.109 7.49828V3.1354C125.109 2.14524 125.109 1.33042 125.161 0.897229C125.191 0.598119 125.253 0.371208 125.563 0.329952C125.707 0.309324 125.934 0.288695 126.027 0.288695C126.089 0.288695 126.109 0.257753 126.109 0.22681C126.109 0.17524 126.058 0.144297 125.944 0.144297C125.377 0.144297 124.727 0.17524 124.676 0.17524C124.624 0.17524 123.974 0.144297 123.665 0.144297C123.552 0.144297 123.5 0.164925 123.5 0.22681C123.5 0.257753 123.521 0.288695 123.582 0.288695C123.675 0.288695 123.799 0.309324 123.892 0.329952C124.098 0.371208 124.15 0.598119 124.191 0.897229C124.243 1.33042 124.243 2.14524 124.243 3.1354V7.49828C123.737 7.48796 123.221 7.48796 122.716 7.47765C122.077 7.46733 121.829 7.39513 121.664 7.1476C121.551 6.97226 121.52 6.90006 121.489 6.82786C121.458 6.74534 121.427 6.72472 121.386 6.72472C121.355 6.72472 121.334 6.75566 121.334 6.81754C121.334 6.92068 121.54 7.8077 121.561 7.89021C121.582 7.9521 121.623 8.08618 121.664 8.08618C121.736 8.08618 121.839 7.98304 122.118 7.96241C122.417 7.93147 122.809 7.91084 122.933 7.91084H126.8C127.131 7.91084 127.368 7.93147 127.533 7.96241C127.687 7.98304 127.78 8.01398 127.822 8.01398C127.873 8.01398 127.873 7.9521 127.873 7.89021C127.873 7.58079 127.842 6.86911 127.842 6.75566C127.842 6.66283 127.811 6.62157 127.77 6.62157C127.718 6.62157 127.698 6.65252 127.687 6.79691C127.687 6.83817 127.677 6.86911 127.677 6.91037C127.646 7.21979 127.399 7.45702 126.409 7.47765C125.975 7.48796 125.542 7.48796 125.109 7.49828Z" fill="white"/>
<path d="M97.8631 3.13546V4.95075C97.8631 6.55975 97.8631 6.84855 97.8425 7.1786C97.8219 7.52928 97.7703 7.69431 97.4299 7.76651C97.3474 7.78713 97.1721 7.79745 97.0793 7.79745C97.0071 7.79745 96.9658 7.81808 96.9658 7.85933C96.9658 7.92122 97.0174 7.94185 97.1308 7.94185C97.595 7.94185 98.2448 7.9109 98.2963 7.9109C98.4201 7.9109 99.0699 7.94185 99.6887 7.94185C100.71 7.94185 102.597 8.03467 103.825 6.76604C104.34 6.2297 104.825 5.37363 104.825 4.14624C104.825 2.84666 104.289 1.84619 103.711 1.23766C103.268 0.773522 102.339 0.0515324 100.586 0.0515324C100.143 0.0515324 99.5959 0.0824749 99.1524 0.113417C98.6986 0.14436 98.3479 0.175302 98.2963 0.175302C98.2757 0.175302 98.1004 0.175302 97.8838 0.164988C97.6775 0.164988 97.4403 0.14436 97.2856 0.14436C97.1721 0.14436 97.1205 0.164988 97.1205 0.226873C97.1205 0.257815 97.1412 0.288758 97.2237 0.288758C97.3371 0.299072 97.4196 0.309386 97.5125 0.330014C97.7188 0.371271 97.7703 0.598182 97.8116 0.897292C97.8631 1.33049 97.8631 2.1453 97.8631 3.13546ZM98.7295 5.11577V3.83682C98.7295 2.74352 98.7399 1.79462 98.7502 1.59865C98.7605 1.3408 98.7811 0.928234 98.8636 0.814779C98.9977 0.61881 99.4 0.402213 100.617 0.402213C101.576 0.402213 102.463 0.752894 103.072 1.36143C103.608 1.88745 103.897 2.87761 103.897 3.82651C103.897 5.1364 103.33 5.98216 102.907 6.42567C101.937 7.44677 100.761 7.59117 99.534 7.59117C99.3278 7.59117 98.9461 7.56022 98.8636 7.51897C98.7708 7.47771 98.7398 7.42614 98.7398 7.31268C98.7295 6.962 98.7295 5.90996 98.7295 5.11577Z" fill="white"/>
<path d="M78.9847 1.66048V3.18697C78.9847 6.91037 79.0054 5.56953 78.9951 7.57047C78.9951 7.97273 79.026 8.08618 79.1085 8.08618C79.191 8.08618 79.3664 7.85927 79.4695 7.75613C79.6242 7.58079 81.161 5.92021 82.7494 4.21838C83.7705 3.12508 84.8947 1.86676 85.2248 1.52639L85.1113 6.76597C85.101 7.43639 85.0288 7.6633 84.7091 7.74582C84.5234 7.78707 84.3584 7.79739 84.2656 7.79739C84.1521 7.79739 84.1212 7.82833 84.1212 7.86959C84.1212 7.93147 84.2037 7.94178 84.3275 7.94178C84.7916 7.94178 85.2867 7.91084 85.4001 7.91084C85.5136 7.91084 85.854 7.94178 86.2768 7.94178C86.3903 7.94178 86.4625 7.93147 86.4625 7.86959C86.4625 7.82833 86.4212 7.8077 86.349 7.79739C86.2665 7.78707 86.2046 7.77676 86.0809 7.75613C85.7921 7.69424 85.7199 7.53953 85.7199 6.82786L85.6992 0.804402C85.6992 0.123669 85.6786 0.0720985 85.6064 0.0720985C85.5239 0.0720985 85.4001 0.185554 84.8535 0.732203C84.74 0.835345 83.2548 2.35152 82.1615 3.52733C80.9651 4.8166 79.7996 6.11618 79.4695 6.48749L79.6036 1.54702C79.6242 0.70126 79.7274 0.433093 80.0058 0.35058C80.2018 0.299009 80.4287 0.288695 80.5215 0.288695C80.5731 0.288695 80.6041 0.268067 80.6041 0.22681C80.6041 0.164925 80.5422 0.144297 80.4184 0.144297C79.8305 0.144297 79.4179 0.17524 79.3251 0.17524C79.2323 0.17524 78.7991 0.144297 78.3349 0.144297C78.2318 0.144297 78.1699 0.154611 78.1699 0.22681C78.1699 0.268067 78.2009 0.288695 78.2524 0.288695C78.3349 0.288695 78.5206 0.299009 78.6753 0.35058C78.9332 0.422779 78.9847 0.721889 78.9847 1.66048Z" fill="white"/>
<path d="M64.0478 -0.000100728C61.2217 -0.000100728 60.0459 2.19681 60.0459 4.05335C60.0459 5.72425 61.263 8.08618 64.1097 8.08618C66.4303 8.08618 68.1631 6.62157 68.1631 4.21838C68.1631 1.90801 66.5335 -0.000100728 64.0478 -0.000100728ZM64.3263 0.391836C65.2545 0.391836 67.173 0.928171 67.173 3.92958C67.173 6.40498 65.6671 7.7355 64.0375 7.7355C62.315 7.7355 61.0257 6.60095 61.0257 4.34215C61.0257 1.93896 62.4697 0.391836 64.3263 0.391836Z" fill="white"/>
<path d="M46.8513 1.92851V2.81553C46.8513 3.37249 46.7482 3.5994 46.6141 3.89851C46.5419 4.06354 45.1598 6.33265 44.7988 6.86898C44.5409 7.2506 44.2831 7.50846 44.0974 7.63223C43.9427 7.73537 43.7467 7.79725 43.6539 7.79725C43.6024 7.79725 43.5508 7.81788 43.5508 7.86945C43.5508 7.91071 43.592 7.94165 43.6849 7.94165C43.8808 7.94165 44.6544 7.91071 44.706 7.91071C44.7782 7.91071 45.1701 7.94165 45.5724 7.94165C45.6858 7.94165 45.7064 7.91071 45.7064 7.86945C45.7064 7.8282 45.6446 7.81788 45.5517 7.77662C45.4692 7.73537 45.4176 7.67348 45.4176 7.59097C45.4176 7.4672 45.4692 7.34343 45.5517 7.18872C45.7167 6.88961 47.2639 4.22856 47.4495 3.92945C47.6455 4.36265 48.9554 6.62144 49.1617 6.96181C49.2958 7.1784 49.337 7.35374 49.337 7.48783C49.337 7.63223 49.2958 7.74568 49.172 7.77662C49.0792 7.80757 49.0173 7.8282 49.0173 7.87977C49.0173 7.92102 49.0792 7.94165 49.1823 7.94165C49.4505 7.94165 49.7805 7.91071 49.863 7.91071C49.9249 7.91071 50.6675 7.94165 50.8635 7.94165C50.9357 7.94165 50.9976 7.92102 50.9976 7.87977C50.9976 7.8282 50.946 7.79725 50.8635 7.79725C50.75 7.79725 50.5541 7.756 50.3891 7.65285C50.1828 7.52909 50.0693 7.40532 49.8424 7.12683C49.502 6.71427 48.0581 4.29045 47.8724 3.84694C47.7177 3.47563 47.7177 3.15589 47.7177 2.81553V1.92851C47.7177 1.76348 47.7177 1.33029 47.7486 0.897096C47.7693 0.597986 47.8621 0.371075 48.1715 0.329819C48.3159 0.30919 48.5428 0.288562 48.6356 0.288562C48.6975 0.288562 48.7182 0.257619 48.7182 0.226677C48.7182 0.175106 48.6666 0.144164 48.5531 0.144164C47.9859 0.144164 47.3361 0.175106 47.2845 0.175106C47.2329 0.175106 46.5831 0.144164 46.2737 0.144164C46.1603 0.144164 46.1087 0.164792 46.1087 0.226677C46.1087 0.257619 46.1293 0.288562 46.1912 0.288562C46.284 0.288562 46.4078 0.30919 46.5006 0.329819C46.7069 0.371075 46.7997 0.597986 46.8204 0.897096C46.8513 1.33029 46.8513 1.76348 46.8513 1.92851Z" fill="white"/>
<path d="M30.5028 5.00194V3.18665C30.5028 1.57764 30.5028 1.28885 30.4822 0.958796C30.4615 0.608115 30.379 0.44309 30.0387 0.37089C29.9665 0.350262 29.8324 0.350262 29.7396 0.339948C29.6674 0.329634 29.6055 0.31932 29.6055 0.278063C29.6055 0.216178 29.657 0.19555 29.7705 0.19555C30.0077 0.19555 30.2862 0.19555 30.936 0.226492C31.0082 0.226492 33.0607 0.226492 33.2979 0.216178C33.5248 0.205864 33.7105 0.185236 33.7724 0.154294C33.8343 0.123351 33.8549 0.113037 33.8858 0.113037C33.9168 0.113037 33.9271 0.154294 33.9271 0.205864C33.9271 0.278063 33.8652 0.401833 33.8446 0.690629C33.8343 0.845341 33.824 1.04131 33.8033 1.30948C33.793 1.41262 33.7621 1.48482 33.7208 1.48482C33.6589 1.48482 33.6383 1.43325 33.6383 1.35073C33.6383 1.21665 33.6177 1.09288 33.5867 1.01037C33.5145 0.773142 33.2979 0.670001 32.8441 0.628744C32.6688 0.608115 31.5445 0.597801 31.4311 0.597801C31.3898 0.597801 31.3692 0.628744 31.3692 0.700943V3.54764C31.3692 3.61984 31.3795 3.65079 31.4311 3.65079C31.5652 3.65079 32.8338 3.65079 33.071 3.63016C33.3495 3.60953 33.4836 3.57859 33.5867 3.45482C33.6383 3.39293 33.6692 3.35168 33.7105 3.35168C33.7414 3.35168 33.7621 3.3723 33.7621 3.43419C33.7621 3.49607 33.7105 3.67141 33.6796 4.01178C33.6486 4.33152 33.6486 4.56874 33.6383 4.71314C33.628 4.81628 33.6074 4.86785 33.5661 4.86785C33.5042 4.86785 33.4939 4.78534 33.4939 4.70283C33.4939 4.61 33.4836 4.50686 33.4526 4.41403C33.4114 4.25932 33.2876 4.11492 32.9163 4.07367C32.6378 4.04272 31.6167 4.0221 31.4414 4.0221C31.3898 4.0221 31.3692 4.05304 31.3692 4.09429V5.00194C31.3692 5.35262 31.3589 6.54906 31.3692 6.76566C31.3898 7.18854 31.4517 7.41545 31.7096 7.51859C31.8849 7.59079 32.1634 7.61141 32.5656 7.61141C32.8751 7.61141 33.2154 7.6011 33.4939 7.51859C33.824 7.41545 33.9374 7.19885 34.0199 6.75534C34.0405 6.64189 34.0612 6.60063 34.1127 6.60063C34.1746 6.60063 34.1746 6.68314 34.1746 6.75534C34.1746 6.83785 34.0921 7.53922 34.0405 7.75581C33.9683 8.02398 33.8858 8.02398 33.4836 8.02398C32.7203 8.02398 32.38 8.00335 31.9777 7.99304C31.5652 7.98272 31.0907 7.9621 30.6885 7.9621C30.4409 7.9621 30.1934 8.00335 29.9252 7.99304C29.8118 7.99304 29.7602 7.97241 29.7602 7.91053C29.7602 7.87958 29.8118 7.85895 29.8736 7.84864C29.9768 7.83833 30.0387 7.83833 30.1109 7.8177C30.3275 7.76613 30.4615 7.62173 30.4822 6.84817C30.4925 6.44592 30.5028 5.9199 30.5028 5.00194Z" fill="white"/>
<path d="M14.8973 4.91942V3.10414C14.8973 1.49513 14.8973 1.20634 14.8767 0.876283C14.8561 0.525602 14.7736 0.360576 14.4332 0.288377C14.3507 0.267749 14.1753 0.257435 14.1341 0.257435C14.0413 0.257435 14 0.236806 14 0.19555C14 0.133665 14.0516 0.113037 14.165 0.113037C14.6292 0.113037 15.279 0.143979 15.3305 0.143979C15.5781 0.143979 15.9803 0.113037 16.4548 0.113037C18.1463 0.113037 18.5176 1.14445 18.5176 1.66016C18.5176 2.50592 18.0328 3.01131 17.5481 3.5167C18.3113 3.75393 19.3324 4.48623 19.3324 5.69298C19.3324 6.7966 18.466 7.94147 16.7023 7.94147C16.5888 7.94147 16.2588 7.92084 15.9597 7.91052C15.6606 7.8899 15.3718 7.87958 15.3305 7.87958C15.0005 7.87958 14.6807 7.91052 14.3197 7.91052C14.2063 7.91052 14.1547 7.8899 14.1547 7.83832C14.1547 7.80738 14.1753 7.76613 14.3094 7.76613C14.3919 7.76613 14.4641 7.75581 14.557 7.73518C14.7632 7.69393 14.8045 7.4567 14.8458 7.15759C14.8973 6.7244 14.8973 5.90958 14.8973 4.91942ZM15.7225 0.566859V3.33105C15.7225 3.40325 15.7431 3.42387 15.7947 3.4445C15.8565 3.45482 16.0422 3.48576 16.4238 3.48576C17.0014 3.48576 17.1458 3.46513 17.3624 3.21759C17.579 2.97005 17.7337 2.59874 17.7337 2.17586C17.7337 1.31979 17.3521 0.401833 16.3413 0.401833C16.2279 0.401833 16.0113 0.412147 15.8462 0.453404C15.7534 0.474032 15.7225 0.504974 15.7225 0.566859ZM15.7225 3.83644V4.42435C15.7225 5.21853 15.7225 6.49749 15.7328 6.6522C15.7637 7.15759 15.7637 7.30199 16.0835 7.4567C16.3619 7.59079 16.8054 7.61141 16.9911 7.61141C17.5481 7.61141 18.4454 7.3123 18.4454 6.14681C18.4454 5.52796 18.2391 4.63063 17.4449 4.08398C17.0942 3.84675 16.8364 3.81581 16.5888 3.78487C16.4548 3.76424 15.9391 3.76424 15.7843 3.76424C15.7431 3.76424 15.7225 3.78487 15.7225 3.83644Z" fill="white"/>
<path d="M47.8564 47.9958C47.8795 47.963 54.1188 39.0923 60.2275 37.9041C70.9054 35.827 79.996 46.5597 80.0859 57.4373C80.1765 68.4043 70.9776 79.4687 60.2275 77.2957C54.0369 76.0443 47.8564 66.8777 47.8564 66.8777V75.9929H42.9736C42.9998 75.8687 48.9946 47.3154 42.9736 30.7419C41.8885 27.7549 39.7321 23.2843 39.7178 23.2546H47.8564V47.9958ZM75.8535 57.4363C75.9328 48.3825 70.8696 39.3425 61.8545 40.1814C55.2287 40.7981 51.0263 45.4277 49.4844 51.9011C48.2777 56.9679 49.1554 64.2503 49.1582 64.2732C49.1582 64.2732 52.6067 74.5853 61.5293 75.3416C70.4518 76.0976 75.775 66.3905 75.8535 57.4363Z" fill="white"/>
<path d="M78.7833 41.4852C77.112 39.8413 74.2256 37.5786 74.2256 37.5786H87.573C87.573 37.5786 86.6623 39.9254 86.2709 41.4852C83.1382 53.9689 97.0139 71.7611 97.0139 71.7611C97.0139 71.7611 108.866 54.247 109.385 41.4852C109.447 39.9608 109.385 37.5786 109.385 37.5786H121.756C121.756 37.5786 118.452 39.8018 116.547 41.4852C106.036 50.7696 104.546 64.5092 97.0139 79.5743C96.0373 81.5276 92.31 85.9383 85.9453 89.0152C83.3352 90.277 78.7833 89.9918 78.7833 89.9918V84.4575C78.7833 84.4575 83.2402 85.1684 85.9453 84.4575C90.9911 83.1315 95.7117 75.3422 95.7117 75.3422H91.8052C91.8052 75.3422 88.8827 51.4191 78.7833 41.4852Z" fill="white"/>
<path d="M78.7833 41.4852C77.112 39.8413 74.2256 37.5786 74.2256 37.5786H87.573C87.573 37.5786 86.6623 39.9254 86.2709 41.4852C83.1382 53.9689 97.0139 71.7611 97.0139 71.7611C97.0139 71.7611 108.866 54.247 109.385 41.4852C109.447 39.9608 109.385 37.5786 109.385 37.5786H121.756C121.756 37.5786 118.452 39.8018 116.547 41.4852C106.036 50.7696 104.546 64.5092 97.0139 79.5743C96.0373 81.5276 92.31 85.9383 85.9453 89.0152C83.3352 90.277 78.7833 89.9918 78.7833 89.9918V84.4575C78.7833 84.4575 83.2402 85.1684 85.9453 84.4575C90.9911 83.1315 95.7117 75.3422 95.7117 75.3422H91.8052C91.8052 75.3422 88.8827 51.4191 78.7833 41.4852Z" fill="white"/>
<path d="M20.5098 23.2546C20.5185 23.3038 26.2627 55.6739 38.7402 71.4353C40.0772 73.1241 42.2987 75.9641 42.3213 75.9929H29.9502C29.9673 75.9584 31.3391 73.1787 31.5781 71.4353C32.0313 68.1293 31.3495 65.6398 28.9736 63.2966C27.2731 61.6196 25.8255 61.4519 23.4395 61.3435C18.2573 61.108 17.905 69.8076 15.3008 73.0632C12.6964 76.3187 8.34954 77.3461 4.55762 75.3425C1.63615 73.7988 0.0107601 68.2175 0 68.1804L16.6025 29.4402L11.3945 23.2546H20.5098ZM2.60352 68.1804C2.60352 68.1804 4.35469 73.0617 7.16211 73.7146C10.4334 74.4753 12.6959 74.04 14.9746 70.1335C17.2534 66.227 17.1947 61.5012 21.1602 59.7166C23.3902 58.713 27.9971 59.7166 27.9971 59.7166L17.5791 31.3933L2.60352 68.1804Z" fill="white"/>
<path d="M130.244 39.189C142.417 38.8808 142.417 50.1436 142.417 50.1436V39.7933C142.417 39.7933 133.6 37.0585 129.027 37.6669C124.453 38.2754 119.22 41.2078 118.068 45.5767C115.016 57.1496 144.098 55.1899 140.563 66.2822C139.335 70.1334 134.954 73.8938 131.153 73.8884C127.353 73.8831 124.417 73.4555 122.077 72.0867C118.32 69.8885 118.063 62.9293 118.063 62.9293V73.2796C118.063 73.2796 126.798 75.404 131.762 75.1061C136.727 74.8083 144.13 72.2596 145.461 66.8862C148.447 54.8327 122.017 55.3279 121.408 45.886C121.207 42.7543 126.18 39.2919 130.244 39.189Z" fill="white"/>
<path d="M160.201 39.189C172.374 38.8808 172.374 50.1436 172.374 50.1436V39.7933C172.374 39.7933 163.557 37.0585 158.984 37.6669C154.41 38.2754 149.177 41.2078 148.025 45.5767C144.973 57.1496 174.055 55.1899 170.52 66.2822C169.292 70.1334 164.911 73.8938 161.11 73.8884C157.31 73.8831 154.374 73.4555 152.034 72.0867C148.277 69.8885 148.02 62.9293 148.02 62.9293V73.2796C148.02 73.2796 156.755 75.404 161.719 75.1061C166.684 74.8083 174.087 72.2596 175.418 66.8862C178.404 54.8327 151.974 55.3279 151.365 45.886C151.164 42.7543 156.137 39.2919 160.201 39.189Z" fill="white"/>
</svg>
