<svg width="522" height="679" viewBox="0 0 522 679" fill="none" xmlns="http://www.w3.org/2000/svg">
<path d="M38.875 355.088C38.875 344.755 47.2513 336.379 57.584 336.379H169.676C180.009 336.379 188.385 344.755 188.385 355.088C188.385 365.421 180.009 373.797 169.676 373.797H57.584C47.2513 373.797 38.875 365.421 38.875 355.088Z" fill="#0FC0F2"/>
<ellipse cx="14.8029" cy="495.805" rx="14.8029" ry="14.4727" fill="#0FC0F2"/>
<path d="M143.841 644V175.589H363.306C452.402 175.589 496.951 211.949 496.951 284.667C496.951 337.95 467.907 376.056 409.82 398.985C471.838 410.559 502.847 446.045 502.847 505.442C502.847 597.814 454.04 644 356.427 644H143.841ZM352.824 568.661C391.258 568.661 410.475 549.008 410.475 509.7C410.475 461.003 381.759 436.655 324.326 436.655H298.122V380.642C370.185 368.631 406.216 338.496 406.216 290.235C406.216 264.031 390.057 250.928 357.738 250.928H230.644V568.661H352.824Z" fill="#02FF73"/>
<path d="M85.3359 424.895C85.3359 413.95 94.208 405.078 105.152 405.078H257.697C268.641 405.078 277.513 413.95 277.513 424.895C277.513 435.839 268.641 444.711 257.697 444.711H105.152C94.208 444.711 85.3359 435.839 85.3359 424.895Z" fill="#0FC0F2"/>
<path d="M45.4688 495.805C45.4688 484.86 54.3409 475.988 65.2852 475.988H197.349C208.294 475.988 217.166 484.86 217.166 495.805C217.166 506.749 208.294 515.621 197.349 515.621H65.2851C54.3408 515.621 45.4688 506.749 45.4688 495.805Z" fill="#0FC0F2"/>
<ellipse cx="38.8752" cy="426.943" rx="24.0744" ry="21.8652" fill="#0FC0F2"/>
<ellipse cx="220.826" cy="355.09" rx="14.8029" ry="14.4727" fill="#0FC0F2"/>
</svg>
