<?xml version="1.0" standalone="no"?>
<!DOCTYPE svg PUBLIC "-//W3C//DTD SVG 20010904//EN"
 "http://www.w3.org/TR/2001/REC-SVG-20010904/DTD/svg10.dtd">
<svg version="1.0" xmlns="http://www.w3.org/2000/svg"
 width="342.000000pt" height="483.000000pt" viewBox="0 0 342.000000 483.000000"
 preserveAspectRatio="xMidYMid meet">

<g transform="translate(0.000000,483.000000) scale(0.100000,-0.100000)"
fill="#000000" stroke="none">
<path d="M1249 3320 c-9 -12 -14 -32 -11 -50 4 -25 9 -30 33 -30 22 0 29 5 29
19 0 14 -6 17 -25 13 -16 -3 -25 0 -25 8 0 9 17 11 68 6 37 -3 60 -3 52 1 -8
3 -18 11 -22 17 -5 8 -8 7 -8 -1 0 -19 -12 -16 -42 12 -32 30 -29 30 -49 5z
m51 -16 c0 -2 -12 -4 -27 -4 -21 0 -24 3 -14 9 13 8 41 5 41 -5z m-17 -51 c-7
-2 -19 -2 -25 0 -7 3 -2 5 12 5 14 0 19 -2 13 -5z"/>
<path d="M1391 3303 c0 -29 2 -33 8 -18 7 18 4 55 -5 55 -2 0 -4 -17 -3 -37z"/>
<path d="M1493 3290 c0 -30 2 -43 4 -27 2 15 2 39 0 55 -2 15 -4 2 -4 -28z"/>
<path d="M1613 3290 c0 -30 2 -43 4 -27 2 15 2 39 0 55 -2 15 -4 2 -4 -28z"/>
<path d="M1647 3333 c-13 -21 2 -33 36 -32 29 2 30 2 5 6 -15 2 -28 12 -30 21
-3 13 -6 14 -11 5z"/>
<path d="M1790 3330 c-19 -4 -25 -11 -25 -31 0 -16 4 -25 11 -22 6 2 19 -3 28
-12 15 -15 16 -15 17 7 1 19 3 18 9 -7 6 -24 8 -20 7 25 0 30 -2 44 -5 30 -5
-23 -6 -23 -11 -5 -5 16 -12 19 -31 15z m20 -30 c0 -11 -4 -20 -10 -20 -5 0
-10 9 -10 20 0 11 5 20 10 20 6 0 10 -9 10 -20z"/>
<path d="M1923 3290 c0 -30 2 -43 4 -27 2 15 2 39 0 55 -2 15 -4 2 -4 -28z"/>
<path d="M2010 3320 c0 -12 7 -20 18 -21 12 -1 9 -4 -8 -10 -17 -6 -4 -7 43
-4 61 4 66 3 52 -11 -21 -21 -10 -34 28 -33 l32 1 -30 8 -30 8 28 1 c28 1 37
15 15 24 -8 3 -6 6 4 6 13 1 17 8 16 26 -2 22 -7 25 -42 25 -22 0 -36 -3 -33
-6 12 -13 -14 -44 -36 -43 -21 0 -21 1 -2 9 17 7 15 9 -12 9 -40 1 -44 18 -5
24 25 4 25 4 -5 6 -27 1 -33 -3 -33 -19z"/>
<path d="M1343 3323 c9 -2 17 -9 17 -14 0 -5 5 -9 10 -9 6 0 10 7 10 15 0 10
-9 15 -27 14 -17 -1 -21 -3 -10 -6z"/>
<path d="M1427 3324 c-11 -12 -8 -41 6 -52 18 -16 39 1 35 29 -3 23 -27 37
-41 23z m33 -24 c0 -21 -15 -27 -25 -10 -7 12 2 30 16 30 5 0 9 -9 9 -20z"/>
<path d="M1553 3301 c4 -19 2 -31 -6 -35 -7 -2 0 -5 15 -5 15 -1 30 4 34 11 4
7 3 8 -4 4 -7 -4 -12 -3 -12 3 0 5 6 12 13 14 6 3 2 6 -10 6 -27 1 -31 18 -5
24 12 3 10 5 -7 6 -21 1 -23 -2 -18 -28z"/>
<path d="M1850 3300 c0 -25 4 -30 25 -30 21 0 25 5 25 30 0 25 -4 30 -25 30
-21 0 -25 -5 -25 -30z m40 0 c0 -11 -4 -20 -10 -20 -5 0 -10 9 -10 20 0 11 5
20 10 20 6 0 10 -9 10 -20z"/>
<path d="M1653 3283 c15 -2 37 -2 50 0 12 2 0 4 -28 4 -27 0 -38 -2 -22 -4z"/>
<path d="M1340 3253 c0 -8 12 -13 30 -13 17 0 30 4 30 9 0 5 -13 11 -30 13
-20 3 -30 0 -30 -9z"/>
<path d="M1640 3260 c0 -6 17 -10 37 -10 43 0 41 5 -4 13 -19 4 -33 2 -33 -3z"/>
<path d="M2010 3253 c0 -8 12 -13 30 -13 17 0 30 4 30 9 0 5 -13 11 -30 13
-20 3 -30 0 -30 -9z"/>
<path d="M1951 3244 c0 -11 3 -14 6 -6 3 7 2 16 -1 19 -3 4 -6 -2 -5 -13z"/>
<path d="M341 2983 c-18 -59 -36 -116 -39 -127 -5 -18 2 -18 154 -14 141 3
164 6 206 27 27 12 57 34 67 47 l20 25 15 -29 c35 -67 201 -92 299 -43 118 58
114 179 -7 212 -67 18 -176 7 -230 -25 -25 -15 -51 -36 -57 -48 -11 -20 -12
-20 -26 10 -26 53 -70 67 -228 70 l-141 3 -33 -108z m247 41 c27 -19 29 -63 4
-94 -14 -18 -32 -24 -75 -28 -70 -6 -70 -7 -22 126 6 17 66 15 93 -4z m417 3
c14 -11 16 -21 11 -51 -9 -49 -38 -76 -80 -76 -51 0 -62 21 -42 74 22 58 71
82 111 53z"/>
<path d="M1207 3083 c-2 -5 -19 -54 -36 -110 -17 -56 -34 -110 -37 -118 -6
-14 2 -16 52 -13 l59 3 19 73 c10 39 22 72 26 72 4 0 35 -34 69 -75 l62 -75
52 0 52 0 34 113 c19 61 36 118 39 125 3 9 -11 12 -52 12 l-55 0 -10 -37 c-5
-21 -14 -53 -18 -72 l-9 -35 -59 72 -59 72 -62 0 c-35 0 -65 -3 -67 -7z"/>
<path d="M1626 3074 c-12 -31 -5 -33 87 -36 l92 -3 -123 -68 c-112 -63 -142
-87 -142 -116 0 -13 800 -16 800 -3 0 4 3 17 6 29 6 22 4 22 -100 25 l-107 3
116 64 c123 67 145 84 145 107 0 12 -32 14 -190 14 -109 0 -190 -4 -190 -9 0
-5 -3 -16 -6 -25 -5 -13 8 -16 90 -18 l95 -3 -120 -67 -119 -68 -113 0 -112 0
129 73 c86 48 132 80 137 95 l8 22 -188 0 c-163 0 -190 -2 -195 -16z"/>
<path d="M2411 3068 c-5 -13 -19 -55 -32 -95 -21 -68 -22 -73 -6 -91 25 -28
84 -42 173 -42 163 1 196 21 241 146 17 49 32 92 32 97 1 4 -26 7 -58 7 l-59
0 -28 -82 c-14 -46 -31 -89 -37 -95 -15 -20 -106 -17 -114 3 -3 10 5 52 19 95
l26 79 -74 0 c-68 0 -75 -2 -83 -22z"/>
<path d="M2835 3078 c-3 -7 -23 -64 -45 -125 l-40 -113 179 0 179 0 11 30 10
30 -99 0 -99 0 33 95 33 95 -79 0 c-54 0 -80 -4 -83 -12z"/>
<path d="M1383 2086 c-57 -49 -25 -147 52 -162 46 -8 91 17 104 59 31 92 -82
166 -156 103z m135 -49 c4 -20 -25 -34 -40 -19 -15 15 -1 44 19 40 10 -2 19
-11 21 -21z"/>
<path d="M1861 2084 c-26 -21 -31 -33 -31 -68 0 -73 66 -113 133 -81 62 29 75
98 28 146 -39 38 -87 39 -130 3z m127 -47 c4 -20 -25 -34 -40 -19 -15 15 -1
44 19 40 10 -2 19 -11 21 -21z"/>
<path d="M1621 1702 c-19 -9 -41 -28 -50 -42 l-15 -25 26 23 c56 50 134 48
191 -5 l30 -28 -21 31 c-20 29 -83 64 -115 64 -6 0 -27 -8 -46 -18z"/>
<path d="M1660 1586 c19 -6 41 -15 48 -19 6 -5 12 -4 12 0 0 19 -26 33 -59 32
l-36 -1 35 -12z"/>
<path d="M1892 1539 c-5 -13 -12 -40 -16 -60 -9 -49 -57 -114 -103 -138 -21
-11 -34 -20 -30 -21 17 0 84 39 111 66 38 39 55 73 57 122 3 49 -7 65 -19 31z"/>
<path d="M1732 1462 c-20 -20 -31 -23 -73 -20 -61 4 -65 -8 -5 -17 49 -8 79 4
97 36 15 29 8 29 -19 1z"/>
<path d="M1683 1313 c9 -2 25 -2 35 0 9 3 1 5 -18 5 -19 0 -27 -2 -17 -5z"/>
</g>
</svg>
