<svg width="850" height="190" viewBox="0 0 850 190" fill="none" xmlns="http://www.w3.org/2000/svg">
<g clip-path="url(#clip0_534_9936)">
<path d="M424.316 41.5859C449.513 41.5861 469.247 57.4064 469.247 89.9258V97.3086H403.878C403.878 111.723 412.512 120.688 425.902 120.688C434.712 120.687 441.056 116.82 443.698 111.02H468.541C464.842 128.598 448.984 140.199 425.374 140.199C396.125 140.199 378.154 121.215 378.154 90.9805C378.154 61.4492 396.301 41.5859 424.316 41.5859ZM629.24 41.5859C653.907 41.586 670.645 56.0001 671.702 77.7969H647.211C645.625 68.3048 639.459 61.8009 629.591 61.8008C617.082 61.8008 608.8 72.3477 608.8 90.4531C608.8 108.91 616.906 119.457 629.591 119.457C638.754 119.457 645.625 113.832 647.211 103.637H671.702C670.47 125.258 654.611 140.199 629.24 140.199C599.991 140.199 582.371 119.984 582.371 90.8047C582.371 61.625 600.167 41.5859 629.24 41.5859ZM726.591 41.5859C751.787 41.5859 771.52 57.4062 771.52 89.9258V97.3086H706.151C706.151 111.723 714.786 120.687 728.176 120.688C736.986 120.688 743.329 116.82 745.972 111.02H770.816C767.116 128.598 751.258 140.199 727.648 140.199C698.399 140.199 680.427 121.215 680.427 90.9805C680.427 61.4493 698.576 41.5861 726.591 41.5859ZM201.674 117.6L240.566 40H266.627L216.509 140H180.425L155.938 26H26.0613V57H108.255V83H26.0613V114H108.255V140H0V0H176.415L201.674 117.6ZM364.67 138.266H338.946V122.973H337.713C334.013 130.883 326.083 139.848 310.579 139.848C288.73 139.848 271.639 122.445 271.639 90.6289C271.639 57.9336 289.435 41.5859 310.579 41.5859C326.612 41.5859 334.188 51.0781 337.713 58.8125H338.594V11H364.67V138.266ZM536.645 41.5859C556.555 41.5859 569.77 55.1211 569.593 77.4453V138.266H543.692V82.0156C543.692 70.2383 537.173 63.207 526.426 63.207C515.501 63.2071 508.1 70.4142 508.1 83.0703V138.266H482.024V42.8164H506.868V59.5156H507.924C512.329 48.4415 522.549 41.586 536.645 41.5859ZM318.684 62.3281C305.469 62.3281 298.421 73.7539 298.421 90.4531C298.421 107.328 305.469 119.105 318.684 119.105C331.721 119.105 339.122 107.68 339.122 90.4531C339.122 73.2266 331.721 62.3281 318.684 62.3281ZM424.846 61.0977C412.864 61.0977 404.318 69.9746 403.878 80.9609H444.579C444.579 69.3595 436.474 61.0978 424.846 61.0977ZM727.119 61.0977C715.138 61.0978 706.593 69.9747 706.151 80.9609H746.853C746.853 69.3594 738.748 61.0977 727.119 61.0977ZM266.627 26H240.566V0H266.627V26Z" fill="white"/>
<path d="M821.137 96.0703C823.066 96.0703 825.193 96.3908 827.508 97.0117C828.66 97.2777 829.643 97.5714 830.444 97.9004C831.238 98.2263 831.919 98.6127 832.4 99.0928C832.565 99.2569 832.723 99.4413 832.845 99.6436C832.963 99.8405 833.085 100.118 833.085 100.45C833.085 100.798 832.995 101.148 832.787 101.46C832.582 101.766 832.303 101.979 832.01 102.125C831.264 102.497 830.5 102.334 829.873 101.958L829.864 101.952C828.798 101.298 827.745 100.815 826.706 100.496L826.695 100.492L826.683 100.489C825.776 100.188 824.588 100.021 823.091 100.021C819.57 100.021 815.654 101.579 811.321 104.885L811.311 104.893C806.951 108.134 802.573 112.284 798.18 117.354L798.174 117.36L798.169 117.366C793.863 122.177 789.944 127.376 786.412 132.964C782.868 138.567 779.716 144.212 776.953 149.896C775.6 152.726 774.335 155.479 773.159 158.153C775.905 153.896 778.655 150.171 781.417 146.986C784.247 143.721 787.022 141.631 789.751 140.95L790.233 140.83L790.62 141.14C790.936 141.392 791.644 141.778 792.85 142.294C794.073 142.732 795.066 143.195 795.776 143.698C797.216 144.693 797.902 146.195 797.902 148.03C797.902 149.334 797.552 150.729 796.906 152.201L796.901 152.212L796.896 152.224C796.253 153.598 795.43 154.92 794.431 156.188L794.424 156.196L794.417 156.205C792.357 158.708 790.199 160.514 787.935 161.55C786.091 162.393 784.239 163.04 782.383 163.491C782.548 164.66 782.767 166.219 783.037 168.169L783.304 169.942C783.577 171.67 783.873 173.3 784.192 174.833C784.604 176.302 785.065 177.241 785.516 177.768C785.974 178.214 786.373 178.36 786.736 178.36C787.413 178.36 788.251 178.083 789.275 177.379C790.216 176.655 791.094 175.835 791.91 174.916C791.905 174.757 791.903 174.591 791.903 174.42C791.903 171.642 792.646 168.682 794.08 165.554L794.085 165.543C795.597 162.348 797.508 159.332 799.816 156.499L799.821 156.492L799.827 156.484C802.224 153.65 804.77 151.33 807.465 149.537C810.182 147.73 812.85 146.77 815.449 146.77H815.91L816.21 147.119C816.541 147.505 817.14 147.862 818.15 148.095C819.063 148.29 819.929 148.487 820.748 148.683L821.556 148.879L821.572 148.884L821.587 148.888C822.264 149.081 822.877 149.343 823.409 149.685C823.62 149.058 823.819 148.451 824.001 147.864C824.791 145.238 825.199 143.758 825.273 143.316L825.475 142.107L826.622 142.547C828.911 143.425 830.654 144.444 831.691 145.665C832.787 146.857 833.389 148.217 833.389 149.721C833.389 151.693 832.453 153.603 830.804 155.438C829.489 156.982 827.978 158.419 826.276 159.754C826.717 160.147 827.147 160.29 827.565 160.29C828.392 160.29 829.3 159.945 830.306 159.097L830.319 159.085L830.334 159.074C831.522 158.143 832.389 157.399 832.955 156.837C834.455 154.991 836.219 153.921 838.249 153.921C839.415 153.921 840.46 154.292 841.334 155.034C842.334 155.72 842.901 156.699 842.901 157.91C842.901 158.553 842.706 159.162 842.368 159.725L842.34 159.77L842.31 159.811C841.024 161.522 839.559 163.627 837.916 166.129C836.279 168.622 834.771 171.113 833.395 173.604C832.117 175.983 831.194 177.998 830.609 179.655C830.538 179.932 830.465 180.187 830.392 180.421V180.79C830.392 180.802 830.392 180.813 830.392 180.823C830.589 180.8 830.907 180.705 831.368 180.442C831.929 180.123 832.326 179.827 832.59 179.563L832.61 179.543L832.633 179.523C834.132 178.194 836.044 176.08 838.377 173.148C840.716 170.209 842.882 167.401 844.873 164.725C845.485 163.854 846.023 163.164 846.482 162.682C846.712 162.44 846.949 162.223 847.186 162.06C847.399 161.913 847.739 161.721 848.154 161.721L848.285 161.727C848.598 161.756 848.943 161.892 849.192 162.217C849.44 162.538 849.481 162.902 849.481 163.143C849.481 163.615 849.315 164.176 849.097 164.745C848.709 165.981 848.013 167.353 847.04 168.854L847.028 168.873L847.014 168.892C845.72 170.7 844.207 172.901 842.472 175.495L842.471 175.494C840.782 178.066 838.869 180.377 836.729 182.423L836.728 182.422C834.596 184.543 832.231 185.69 829.65 185.69C827.003 185.69 824.93 184.825 823.823 182.836L823.807 182.808L823.793 182.778C822.933 180.968 822.632 179.119 822.926 177.255C823.293 174.879 824.076 172.715 825.28 170.774L825.289 170.76L825.297 170.746C826.522 168.914 827.747 167.167 828.973 165.507L828.98 165.499L828.986 165.491C829.545 164.766 829.974 164.135 830.29 163.596C830.032 163.706 829.76 163.815 829.472 163.92C828.413 164.304 827.342 164.5 826.261 164.5C825.325 164.5 824.433 164.291 823.598 163.875C823.199 163.676 822.857 163.415 822.571 163.105C822.021 163.974 821.493 164.807 820.981 165.602L820.972 165.615L820.962 165.63C820.183 166.752 819.448 167.831 818.757 168.865L818.748 168.879L818.739 168.892C817.757 170.262 816.825 171.582 815.943 172.853C816.858 171.72 817.664 170.829 818.36 170.201C818.736 169.861 819.103 169.575 819.457 169.37C819.798 169.173 820.213 169 820.661 169L820.802 169.007C821.141 169.042 821.526 169.209 821.76 169.617C821.97 169.985 821.946 170.372 821.914 170.596C821.848 171.058 821.616 171.618 821.322 172.213C820.743 173.558 819.541 175.337 817.795 177.515L817.794 177.514C816.079 179.674 814.008 181.56 811.589 183.171C809.145 184.859 806.291 185.689 803.07 185.689C800.781 185.689 798.524 185.021 796.311 183.733L796.289 183.721L796.268 183.707C794.961 182.857 793.958 181.671 793.235 180.19C792.723 180.681 792.2 181.142 791.663 181.571L791.65 181.581L791.637 181.59C789.726 183.02 787.561 183.74 785.173 183.74C781.866 183.74 779.234 182.819 777.503 180.788C775.892 178.897 774.791 176.435 774.159 173.458C773.713 171.361 773.267 169.126 772.822 166.753C771.494 169.14 770.316 171.525 769.283 173.907C768.011 177.042 767.411 179.63 767.41 181.7C767.41 182.24 767.307 182.831 766.931 183.3C766.52 183.812 765.934 184 765.365 184C764.206 184 763.005 183.486 761.799 182.652L761.762 182.627L761.727 182.599C761.307 182.25 760.951 181.871 760.666 181.466C759.848 182.155 759.022 182.741 758.186 183.218C755.306 185.007 752.486 185.949 749.741 185.949C746.689 185.949 744.082 184.842 741.98 182.65L741.972 182.643L741.964 182.634C741.306 181.916 740.762 181.125 740.324 180.267C739.743 180.916 739.152 181.545 738.548 182.148C737.344 183.349 736.027 184.249 734.594 184.826C733.295 185.468 732.027 185.821 730.803 185.821C727.381 185.821 724.736 184.747 723.187 182.377L723.179 182.364L723.171 182.351C722.594 181.407 722.147 180.397 721.826 179.323C721.596 179.593 721.368 179.863 721.136 180.128L721.137 180.129C719.328 182.295 717.345 183.875 715.178 184.818C713.163 185.732 711.199 186.209 709.291 186.209C705.973 186.209 703.36 185.236 701.717 183.085L701.7 183.06C700.239 181.019 699.558 178.368 699.558 175.199C699.558 173.691 699.684 172.091 699.93 170.402C698.163 172 696.087 173.654 693.705 175.362L693.7 175.366C690.969 177.301 688.188 178.974 685.36 180.385L685.352 180.389C681.044 182.494 676.433 184.29 671.52 185.777C666.567 187.364 661.604 188.16 656.635 188.16C652.796 188.16 649.044 187.538 645.386 186.294L644.695 186.064C641.252 184.872 638.02 182.972 635.003 180.38L634.747 180.15C634.149 179.598 633.572 178.914 633.011 178.114L632.99 178.085L632.972 178.055C632.512 177.291 631.844 176.499 630.942 175.681L630.909 175.649L630.878 175.616C629.951 174.609 628.94 173.641 627.841 172.714C626.663 171.718 625.652 170.668 624.82 169.561L624.782 169.511L624.751 169.457C624.317 168.698 623.989 167.562 623.725 166.154L623.719 166.121L623.715 166.087C623.535 164.568 623.486 163.201 623.579 161.994L623.581 161.979L623.582 161.965C624.034 157.732 625.52 153.399 628.005 148.972L628.008 148.966C630.571 144.47 633.835 140.117 637.791 135.906H637.792C641.826 131.618 646.298 127.595 651.203 123.837C656.104 119.997 661.181 116.59 666.435 113.62C671.692 110.648 676.828 108.283 681.842 106.527L681.85 106.524C684.679 105.554 687.597 104.804 690.601 104.275C693.603 103.747 696.443 103.48 699.115 103.48C702.506 103.48 705.428 103.969 707.846 104.989L707.845 104.99C709.074 105.466 710.084 106.123 710.804 107C711.473 107.816 711.849 108.775 711.95 109.843C713.622 112.145 714.45 114.833 714.451 117.87C714.451 121.832 713.152 125.508 710.599 128.874L710.591 128.885L710.582 128.896C708.13 131.953 705.717 134.667 703.342 137.037C700.952 139.421 698.258 141.667 695.262 143.777L695.246 143.789C692.267 145.8 688.605 147.93 684.269 150.182C683.692 150.614 683.03 150.85 682.306 150.851C681.882 150.851 681.376 150.763 680.968 150.415C680.531 150.041 680.391 149.528 680.391 149.07C680.391 148.391 680.819 147.839 681.206 147.453L681.325 147.334L681.478 147.261C686.792 144.695 691.131 141.803 694.515 138.596C697.938 135.351 700.518 132.177 702.283 129.077C703.223 127.371 704.165 125.49 705.109 123.434C706.026 121.437 706.452 119.719 706.452 118.261C706.452 117.082 706.018 116.147 705.113 115.384L705.097 115.371L705.083 115.357C704.336 114.675 702.765 114.19 700.027 114.19C694.861 114.19 689.415 115.204 683.686 117.252C677.944 119.304 672.278 122.129 666.691 125.73C661.196 129.329 656.174 133.483 651.623 138.194L651.616 138.201C647.07 142.823 643.347 147.735 640.441 152.938C637.545 158.121 635.855 163.276 635.349 168.408L635.343 168.481L635.325 168.553C635.258 168.823 635.224 169.088 635.224 169.351V170.391C635.225 174.669 636.61 177.446 639.179 179.029C642.025 180.73 645.61 181.61 649.99 181.61C653.896 181.61 658.161 181.102 662.789 180.077C667.447 178.958 672.019 177.624 676.505 176.075C681.085 174.437 685.182 172.801 688.799 171.169C692.431 169.53 695.161 168.123 697.013 166.947L697.019 166.942L697.026 166.938C698.139 166.255 699.044 165.754 699.718 165.461C700.179 165.232 700.641 165.037 701.074 164.93C701.368 163.818 701.704 162.676 702.083 161.502L702.085 161.495L702.087 161.487C703.84 156.327 706.118 150.913 708.913 145.247C711.708 139.584 714.765 134.095 718.084 128.78L718.086 128.776C721.487 123.382 724.848 118.504 728.17 114.144L728.178 114.134C731.59 109.77 734.762 106.334 737.699 103.848C739.211 102.561 740.605 101.586 741.876 100.952C743.06 100.362 744.204 100.034 745.274 100.088L745.485 100.104H745.496C747.189 100.292 748.596 100.872 749.517 101.987C750.33 102.803 751.052 103.705 751.686 104.693C752.189 105.407 752.879 105.993 753.784 106.444L754.337 106.721V107.339C754.337 109.796 753.168 112.635 751.051 115.807C749.027 118.969 746.526 122.339 743.552 125.917L743.544 125.927C742.069 127.657 740.118 129.947 737.691 132.801L737.692 132.802C735.343 135.666 732.777 138.747 729.995 142.043C727.222 145.328 724.58 148.569 722.068 151.766C719.554 154.965 717.39 157.815 715.576 160.315C713.862 162.709 712.918 164.351 712.609 165.31C712.55 165.651 712.445 166.015 712.225 166.322C711.944 166.713 711.51 166.969 710.985 166.969C710.718 166.969 710.413 166.913 710.128 166.735C710.013 166.664 709.914 166.579 709.828 166.486C708.566 170.157 707.948 173.492 707.948 176.499C707.948 178.622 708.302 179.838 708.771 180.424C709.29 181.072 709.879 181.349 710.594 181.349C712.417 181.349 714.642 180.143 717.281 177.255L717.296 177.238L717.313 177.222C718.601 175.937 719.921 174.396 721.275 172.598C721.478 169.715 722.088 167.173 723.132 164.989C722.944 164.807 722.784 164.595 722.679 164.341C722.394 163.661 722.605 163.012 722.95 162.53L722.964 162.511C724.003 161.129 725.217 159.487 726.605 157.583C728.005 155.661 729.365 153.91 730.684 152.331L730.694 152.318L730.704 152.307C731.422 151.502 732.092 150.842 732.713 150.341C733.323 149.85 733.937 149.469 734.544 149.285C734.944 149.156 735.407 149.111 735.885 149.111C737.524 149.112 739.006 149.679 740.301 150.769C741.509 151.716 742.276 152.311 742.61 152.562L743.535 153.253L742.718 154.068C740.671 156.11 738.617 158.455 736.558 161.106C734.602 163.737 732.945 166.537 731.584 169.507C730.249 172.419 729.59 175.355 729.59 178.321C729.59 179.314 729.78 179.85 729.984 180.117C730.222 180.341 730.48 180.441 730.803 180.441C731.778 180.441 732.9 179.988 734.182 178.868C735.48 177.717 737.071 176.086 738.966 173.967C738.976 171.301 739.671 168.373 740.998 165.195C742.254 162.154 743.998 159.256 746.224 156.502C748.452 153.745 750.916 151.463 753.615 149.668C756.424 147.771 759.221 146.77 761.989 146.77C763.031 146.77 764.229 146.91 765.573 147.179C766.689 147.401 767.647 147.954 768.454 148.778C770.154 144.767 771.998 140.813 773.985 136.917L773.988 136.91L773.991 136.904C776.521 132.118 779.053 127.718 781.588 123.707C784.125 119.606 786.588 116.181 788.978 113.443C798.744 101.95 809.466 96.0704 821.137 96.0703ZM708.715 185.198L709.291 185.209C708.902 185.209 708.527 185.194 708.165 185.166C708.345 185.18 708.528 185.191 708.715 185.198ZM734.191 183.911L734.615 183.729C734.622 183.726 734.628 183.722 734.635 183.719C734.487 183.786 734.34 183.851 734.191 183.911ZM726.112 183.781C726.127 183.79 726.142 183.796 726.157 183.805C726.134 183.792 726.111 183.78 726.088 183.767L726.112 183.781ZM702.769 182.789C702.771 182.791 702.774 182.793 702.776 182.796C702.687 182.693 702.599 182.588 702.515 182.479L702.769 182.789ZM784.595 182.73L785.173 182.74C784.784 182.74 784.407 182.726 784.043 182.699C784.224 182.713 784.408 182.724 784.595 182.73ZM824.859 182.617C824.862 182.622 824.866 182.628 824.87 182.633C824.81 182.542 824.753 182.448 824.699 182.351L824.859 182.617ZM712.328 182.072C712.255 182.095 712.181 182.117 712.108 182.137C711.96 182.177 711.814 182.212 711.669 182.241L711.888 182.193C711.961 182.176 712.035 182.158 712.109 182.138C712.182 182.118 712.255 182.095 712.328 182.072ZM737.839 181.441C737.565 181.715 737.284 181.969 737 182.207C737.138 182.092 737.276 181.973 737.412 181.85L737.839 181.441ZM749.12 182.171C749.23 182.186 749.341 182.197 749.455 182.205H749.456C749.342 182.197 749.23 182.186 749.12 182.171ZM747.153 181.42C747.176 181.437 747.202 181.452 747.226 181.469C747.151 181.418 747.076 181.366 747.004 181.31L747.153 181.42ZM800.108 181.29C800.133 181.307 800.16 181.322 800.186 181.338C800.103 181.287 800.022 181.235 799.942 181.18L800.108 181.29ZM766.03 154.229C765.436 154.229 764.765 154.394 764.002 154.774L763.965 154.793L763.926 154.808C763.114 155.132 762.45 155.486 761.921 155.863C760.435 156.934 758.62 158.612 756.47 160.929L756.464 160.936L756.458 160.942C754.324 163.156 752.359 165.541 750.565 168.097C748.865 170.556 747.805 172.702 747.323 174.542L747.321 174.547C746.992 175.779 746.833 176.905 746.833 177.93C746.833 179.322 747.178 180.108 747.646 180.539C748.224 180.978 748.945 181.22 749.871 181.22C750.956 181.22 752.049 181.027 753.154 180.637C754.302 180.144 755.266 179.621 756.057 179.07C757.708 177.873 759.113 176.716 760.283 175.603C760.688 172.671 761.367 169.5 762.315 166.093C763.391 162.227 764.703 158.277 766.247 154.242C766.178 154.234 766.106 154.23 766.03 154.229ZM815.496 166.207C815.095 166.457 814.687 166.708 814.27 166.957L814.26 166.964L814.249 166.97C811.664 168.431 809.297 169.891 807.151 171.347L807.144 171.352C805.126 172.694 803.963 173.949 803.467 175.08L803.466 175.079C803.339 175.385 803.153 175.696 802.865 175.936C802.55 176.197 802.169 176.329 801.767 176.329C801.318 176.329 800.625 176.197 800.283 175.517C800.11 175.17 800.103 174.809 800.155 174.489C800.103 174.678 800.051 174.867 800.002 175.057C799.757 176.033 799.642 176.903 799.642 177.67C799.642 179.139 800.023 179.945 800.543 180.376C801.214 180.837 802.04 181.09 803.07 181.09C804 181.09 804.986 180.934 806.033 180.613C806.28 180.537 806.521 180.455 806.753 180.371C806.447 179.976 806.366 179.503 806.366 179.101C806.366 178.489 806.599 177.937 806.957 177.461L806.97 177.442L806.984 177.426C808.977 175.006 810.617 172.938 811.909 171.221C812.963 169.748 814.158 168.076 815.496 166.207ZM778.534 180.437C778.539 180.441 778.544 180.445 778.549 180.45C778.452 180.35 778.357 180.247 778.266 180.141L778.534 180.437ZM807.407 179.466C807.409 179.474 807.412 179.481 807.415 179.489C807.4 179.435 807.387 179.376 807.379 179.313L807.407 179.466ZM728.587 178.321C728.587 178.443 728.592 178.561 728.597 178.676L728.587 178.321ZM824.16 176.135C824.095 176.417 824.036 176.703 823.985 176.993L823.986 176.99C824.037 176.701 824.095 176.416 824.16 176.135ZM801.657 175.325L801.767 175.329C801.725 175.329 801.684 175.327 801.646 175.323C801.649 175.324 801.653 175.325 801.657 175.325ZM799.723 172.532C799.456 173.287 799.225 174.046 799.029 174.81C799.007 174.899 798.987 174.987 798.967 175.075C798.987 174.987 799.008 174.899 799.03 174.81C799.226 174.046 799.457 173.287 799.723 172.532ZM693.121 174.551L694.018 173.899C694.049 173.877 694.079 173.853 694.11 173.83C693.787 174.069 693.458 174.31 693.121 174.551ZM818.316 153.319C817.555 153.319 816.627 153.638 815.51 154.434L815.499 154.441L815.488 154.448C812.115 156.72 808.934 159.762 805.947 163.594L805.94 163.603C803.313 166.897 801.469 170.268 800.385 173.716C801.328 171.046 802.924 168.768 805.162 166.894C807.359 165.052 809.645 163.341 812.019 161.762C814.389 160.157 816.266 158.488 817.667 156.761L817.688 156.734L817.711 156.709C818.766 155.576 819.138 154.684 819.138 154.01C819.138 153.621 819.035 153.507 819.001 153.475C818.953 153.43 818.786 153.319 818.316 153.319ZM634.24 171.22C634.253 171.513 634.273 171.799 634.299 172.08C634.272 171.795 634.252 171.504 634.24 171.207V171.22ZM730.174 170.254C730.111 170.414 730.048 170.573 729.989 170.733C730.048 170.573 730.11 170.414 730.174 170.254ZM624.709 165.971C624.97 167.357 625.274 168.354 625.621 168.961C625.719 169.091 625.821 169.22 625.924 169.349C625.821 169.22 625.72 169.091 625.622 168.961C625.275 168.354 624.97 167.357 624.709 165.971ZM768.794 166.571C768.796 166.578 768.799 166.584 768.8 166.591C768.797 166.577 768.794 166.563 768.791 166.549L768.794 166.571ZM825.97 163.492L826.261 163.5C826.054 163.5 825.849 163.486 825.648 163.462C825.754 163.475 825.861 163.486 825.97 163.492ZM624.579 162.07C624.558 162.352 624.545 162.645 624.539 162.948L624.554 162.501C624.561 162.355 624.569 162.211 624.579 162.07ZM781.263 162.721L781.947 162.569C781.967 162.565 781.986 162.558 782.006 162.554C781.759 162.613 781.511 162.669 781.263 162.721ZM812.582 162.59L813.032 162.279C813.127 162.213 813.222 162.145 813.315 162.078C813.075 162.249 812.832 162.421 812.582 162.59ZM755.734 160.25C755.463 160.531 755.195 160.816 754.928 161.103L755.734 160.25ZM840.499 160.584C840.389 160.737 840.277 160.892 840.165 161.05C840.455 160.643 840.736 160.253 841.011 159.879L840.499 160.584ZM712.162 160.786C712.155 160.799 712.148 160.812 712.141 160.824C712.29 160.566 712.448 160.297 712.616 160.02L712.162 160.786ZM787.648 148.25C787.56 148.25 787.338 148.289 786.939 148.479C786.558 148.659 786.085 148.945 785.511 149.353C784.484 150.144 783.119 151.575 781.406 153.71C780.46 154.998 779.382 156.503 778.175 158.224C777.638 159.006 777.092 159.819 776.534 160.661C777.54 160.223 778.501 159.958 779.404 159.91C780.317 159.365 781.196 158.75 782.04 158.062C782.981 157.209 783.965 156.314 784.99 155.376C785.842 154.523 786.506 153.515 786.978 152.339L786.984 152.324L786.991 152.31C787.566 150.996 787.819 149.924 787.819 149.07C787.819 148.554 787.732 148.326 787.688 148.253C787.678 148.252 787.665 148.25 787.648 148.25ZM830.195 160.427C830.306 160.354 830.418 160.278 830.529 160.195L830.542 160.186C830.427 160.271 830.311 160.351 830.195 160.427ZM841.899 157.91C841.899 158.016 841.89 158.121 841.875 158.227C841.882 158.175 841.889 158.124 841.893 158.073L841.899 157.91ZM817.829 158.112C817.843 158.097 817.857 158.083 817.87 158.068L817.889 158.047C817.87 158.069 817.85 158.09 817.829 158.112ZM747.961 155.992C747.637 156.361 747.319 156.741 747.004 157.13L747.414 156.632C747.595 156.416 747.778 156.202 747.961 155.992ZM801.03 156.62L801.035 156.615C801.162 156.47 801.289 156.327 801.416 156.185C801.288 156.329 801.157 156.473 801.03 156.62ZM820.106 154.448C820.108 154.433 820.112 154.418 820.114 154.403L820.115 154.391C820.112 154.41 820.109 154.429 820.106 154.448ZM763.553 153.88C763.542 153.884 763.531 153.889 763.521 153.894L763.554 153.88C763.662 153.826 763.769 153.775 763.877 153.728C763.769 153.775 763.661 153.826 763.553 153.88ZM747.101 111.43L747.093 111.436L747.084 111.44C746.112 112.038 744.512 113.605 742.245 116.302L742.236 116.312C740.08 118.807 737.53 121.956 734.583 125.761L734.576 125.77C731.635 129.48 728.605 133.538 725.486 137.945C722.377 142.34 719.483 146.864 716.806 151.517C716.36 152.291 715.93 153.062 715.513 153.829C716.484 152.423 717.526 150.945 718.641 149.396L718.651 149.382C721.176 145.994 723.745 142.65 726.356 139.35C728.964 135.968 731.271 133.059 733.276 130.624C735.267 128.118 736.563 126.479 737.168 125.705L737.178 125.691L737.189 125.679C738.491 124.12 739.749 122.605 740.964 121.133C742.162 119.594 743.231 118.144 744.169 116.782L744.176 116.772L744.183 116.764C745.295 115.227 746.109 113.932 746.64 112.872C746.951 112.251 747.147 111.741 747.259 111.334C747.209 111.364 747.155 111.395 747.101 111.43ZM628.879 149.461C628.728 149.732 628.58 150.003 628.436 150.272C628.58 150.003 628.729 149.732 628.88 149.461C629.037 149.185 629.198 148.909 629.36 148.634C629.197 148.909 629.036 149.185 628.879 149.461ZM682.091 149.838C682.158 149.846 682.229 149.851 682.306 149.851L682.091 149.838C682.032 149.831 681.978 149.819 681.926 149.806C681.978 149.819 682.033 149.831 682.091 149.838ZM683.016 149.732C683.029 149.728 683.042 149.725 683.055 149.721C683.062 149.718 683.068 149.714 683.075 149.712C683.055 149.719 683.036 149.726 683.016 149.732ZM681.396 149.165C681.397 149.176 681.4 149.186 681.401 149.196C681.397 149.156 681.393 149.114 681.393 149.07L681.396 149.165ZM754.399 133.894C754.734 133.831 755.222 133.885 755.562 134.309C755.823 134.634 755.847 135.011 755.847 135.202C755.847 135.399 755.816 135.604 755.774 135.805C755.743 136.212 755.565 136.565 755.372 136.84C755.154 137.15 754.858 137.451 754.52 137.74L754.508 137.749C753.954 138.21 753.399 138.574 752.848 138.801C751.911 139.225 750.843 139.737 749.643 140.336C748.68 140.855 747.959 141.542 747.452 142.397C747.249 142.81 747.181 143.123 747.181 143.352C747.181 143.855 747.273 144.122 747.355 144.251C747.41 144.339 747.484 144.405 747.653 144.443C747.976 144.487 748.297 144.653 748.511 144.974C748.716 145.279 748.745 145.612 748.745 145.821C748.745 146.295 748.522 146.716 748.316 147.025C748.186 147.22 747.98 147.471 747.669 147.626C747.35 147.785 746.992 147.805 746.662 147.688C744.829 147.283 743.171 146.314 741.691 144.838L741.68 144.827L741.669 144.815C740.164 143.214 739.567 141.332 739.983 139.255C740.178 138.203 740.617 137.207 741.56 136.736C742.252 136.392 743.363 136.162 744.752 135.989L744.766 135.987C746.332 135.814 747.348 135.686 747.838 135.604L747.85 135.603L747.862 135.602C748.444 135.518 748.985 135.434 749.486 135.352C750.153 135.167 751.248 134.953 752.731 134.705C752.917 134.654 753.234 134.511 753.703 134.199C753.872 134.087 754.115 133.947 754.399 133.894ZM787.983 147.296C787.963 147.29 787.944 147.283 787.923 147.278L787.916 147.277C787.939 147.282 787.961 147.29 787.983 147.296ZM684.843 146.661C684.529 146.832 684.211 147.001 683.889 147.169L684.843 146.661C685.157 146.491 685.468 146.319 685.775 146.146L684.843 146.661ZM747.705 145.584C747.73 145.645 747.742 145.724 747.742 145.821C747.742 145.843 747.741 145.865 747.739 145.888L747.742 145.821C747.742 145.756 747.738 145.699 747.727 145.65C747.715 145.602 747.699 145.561 747.677 145.528L747.705 145.584ZM746.198 143.781C746.2 143.795 746.203 143.809 746.204 143.823C746.202 143.805 746.199 143.787 746.197 143.769L746.198 143.781ZM695.205 139.32C694.988 139.526 694.767 139.73 694.542 139.934C693.557 140.825 692.499 141.689 691.369 142.528C692.756 141.498 694.036 140.429 695.206 139.32C695.516 139.027 695.817 138.733 696.114 138.44C695.817 138.733 695.515 139.027 695.205 139.32ZM749.175 139.451C748.893 139.603 748.627 139.768 748.377 139.946C748.44 139.902 748.503 139.858 748.569 139.815C748.633 139.772 748.698 139.73 748.764 139.688C748.897 139.606 749.035 139.527 749.176 139.451C749.48 139.3 749.775 139.153 750.063 139.013C749.775 139.153 749.479 139.3 749.175 139.451ZM649.215 139.27C649.056 139.44 648.902 139.612 648.747 139.783C648.919 139.593 649.091 139.403 649.266 139.214L649.215 139.27ZM753.841 135.205C753.841 135.204 753.842 135.203 753.842 135.202C753.842 135.187 753.84 135.189 753.841 135.205ZM716.656 133.055C716.627 133.103 716.598 133.152 716.57 133.2C716.946 132.564 717.325 131.931 717.709 131.3L716.656 133.055ZM642.396 132.686C642.356 132.724 642.317 132.763 642.276 132.802C642.35 132.732 642.422 132.661 642.495 132.591L642.396 132.686ZM731.557 128.009C731.402 128.21 731.249 128.414 731.093 128.617C731.296 128.352 731.496 128.088 731.699 127.826L731.557 128.009ZM665.111 125.579C664.767 125.811 664.425 126.046 664.085 126.282L665.111 125.579C665.455 125.347 665.8 125.118 666.148 124.891L665.111 125.579ZM706.02 123.851L705.305 125.378C705.543 124.88 705.782 124.371 706.02 123.851ZM651.813 124.631C651.681 124.732 651.548 124.835 651.417 124.937C651.549 124.834 651.682 124.733 651.814 124.631C652.118 124.393 652.422 124.156 652.727 123.921L651.813 124.631ZM658.298 119.874C657.671 120.303 657.047 120.74 656.426 121.183L657.36 120.523C657.808 120.211 658.257 119.901 658.707 119.596C658.571 119.688 658.434 119.781 658.298 119.874ZM727.727 116.398C727.274 117.009 726.821 117.63 726.366 118.26C727.236 117.054 728.103 115.883 728.967 114.749L727.727 116.398ZM681.169 117.127C680.879 117.241 680.59 117.357 680.3 117.475C680.613 117.348 680.925 117.223 681.238 117.101L681.169 117.127ZM667.905 113.945C667.58 114.125 667.254 114.306 666.928 114.49C667.287 114.287 667.647 114.088 668.005 113.891C667.971 113.909 667.938 113.927 667.905 113.945ZM701.294 113.229C701.207 113.223 701.119 113.217 701.03 113.213L701 113.212C701.099 113.216 701.197 113.223 701.294 113.229ZM682.174 107.471C681.771 107.612 681.368 107.758 680.963 107.907C681.368 107.758 681.772 107.612 682.175 107.471C682.497 107.361 682.819 107.253 683.143 107.148C682.819 107.253 682.496 107.36 682.174 107.471ZM707.866 106.079C708.131 106.196 708.38 106.322 708.61 106.457L708.252 106.262C708.127 106.199 707.999 106.138 707.866 106.079ZM689.672 105.466C689.329 105.533 688.987 105.603 688.647 105.676C688.997 105.601 689.349 105.529 689.702 105.46L689.672 105.466ZM690.775 105.261L690.317 105.346C690.471 105.318 690.623 105.288 690.776 105.261C691.145 105.196 691.511 105.135 691.875 105.078C691.511 105.135 691.144 105.196 690.775 105.261ZM830.529 101.178C830.534 101.18 830.539 101.182 830.544 101.185C830.493 101.16 830.441 101.132 830.389 101.101L830.529 101.178Z" fill="#20E3AC"/>
<path d="M15.691 189.406H15.045V172.414H15.691V189.406ZM64.2849 189.406H63.6584V172.414H64.2849V189.406ZM286.63 189.406H285.985V184.426H275.432V183.84H286.63V189.406ZM335.792 189.406H335.184V180.109H330.466V179.523H335.184V172.414H335.792V189.406ZM103.54 188.547H114.034V189.133H102.914V183.996H103.54V188.547ZM237.078 185.988H226.173V188.547H237.684V189.113H225.566V185.402H236.451V183.137H225.487V182.59H237.078V185.988ZM12.3629 188.449H11.7364V179.953H8.7215C8.65298 183.234 7.2432 185.363 5.11927 185.344C2.96576 185.363 1.53662 183.137 1.53662 179.719C1.53662 176.281 2.96576 174.074 5.11927 174.074C7.21384 174.074 8.62362 176.135 8.7215 179.367H11.7364V172.883H12.3629V188.449ZM164.429 186.867H148.845V186.301H164.429V186.867ZM330.546 174.328C330.525 178.898 328.431 183.508 322.538 186.34L322.147 185.793C325.67 184.123 327.873 181.75 328.999 179.094L322.362 179.738L322.127 179.113L329.194 178.605C329.644 177.404 329.88 176.154 329.938 174.895H322.969V174.328H330.546ZM175.819 184.777C176.152 184.777 176.427 185.07 176.427 185.402C176.427 185.734 176.152 186.008 175.819 186.008C175.487 186.008 175.193 185.734 175.193 185.402C175.193 185.07 175.487 184.777 175.819 184.777ZM52.2056 178.801H58.6466V173.957H59.2731V185.168H51.5596V173.957H52.2056V178.801ZM113.525 184.855H112.878V177.98H107.279V177.414H112.878V172.434H113.525V184.855ZM5.11927 174.641C3.35731 174.641 2.14352 176.809 2.1631 179.719C2.14352 182.609 3.35731 184.797 5.11927 184.797C6.90059 184.797 8.09502 182.609 8.09502 179.719C8.09502 176.809 6.90059 174.641 5.11927 174.641ZM52.2056 184.582H58.6466V179.348H52.2056V184.582ZM286.63 182.746H285.985V172.434H286.63V182.746ZM108.513 174.66H101.211V181.516H102.986C105.602 181.499 107.493 181.354 109.668 180.91L109.785 181.496C107.201 181.984 105.106 182.102 101.817 182.102H100.604V174.074H108.513V174.66ZM156.872 175.188C156.872 178.508 161.335 181.027 163.41 181.457L163.058 182.004C161.062 181.437 157.537 179.523 156.597 176.652C155.629 179.533 152.134 181.418 150.118 182.004L149.785 181.457C151.879 181.008 156.264 178.547 156.264 175.188V173.781H156.872V175.188ZM281.247 177.668H274.238V180.949H274.923C277.781 180.949 280.209 180.832 283.243 180.344L283.302 180.93C280.189 181.418 277.82 181.535 274.923 181.535H273.651V177.082H280.659V174.074H273.592V173.488H281.247V177.668ZM236.92 174.543C236.901 175.832 236.901 177.473 236.431 179.777H239.054V180.344H223.569V179.777H235.805C236.039 178.645 236.157 177.678 236.236 176.828L225.389 177.355L225.253 176.75L236.255 176.32C236.294 175.656 236.294 175.07 236.294 174.543V174.016H225.625V173.43H236.92V174.543ZM175.819 175.832C176.152 175.832 176.427 176.125 176.427 176.457C176.427 176.789 176.152 177.062 175.819 177.062C175.487 177.062 175.193 176.789 175.193 176.457C175.193 176.125 175.487 175.832 175.819 175.832Z" fill="white"/>
</g>
<defs>
<clipPath id="clip0_534_9936">
<rect width="850" height="190" fill="white"/>
</clipPath>
</defs>
</svg>
