<svg width="178" height="35" viewBox="0 0 178 35" fill="none" xmlns="http://www.w3.org/2000/svg">
<circle cx="85.6097" cy="3.04328" r="2.76594" fill="white"/>
<path d="M63.8105 0.322266C64.9174 -0.0396464 66.1014 -0.0977958 67.2383 0.154297C68.375 0.406394 69.4234 0.959159 70.2734 1.75488C71.0033 2.43821 71.5625 3.28028 71.9131 4.21191H71.915L78.1455 20.5371L78.1367 20.541L80.9375 27.7803C81.0501 28.1903 81.4244 28.4921 81.8701 28.4922C82.3717 28.4922 82.7846 28.1106 82.834 27.6221L82.8389 27.5234V27.2627L82.8428 27.2617V3.04199H88.375V27.4961C88.3778 28.2114 88.2627 28.9267 88.0303 29.6113C87.617 30.8286 86.8518 31.8961 85.832 32.6787C84.8121 33.4613 83.5826 33.9237 82.2998 34.0078C81.0169 34.0919 79.7374 33.7942 78.624 33.1514C77.5108 32.5086 76.6135 31.5494 76.0449 30.3965C75.9596 30.2235 75.8827 30.047 75.8135 29.8682L75.792 29.877L66.7656 6.22656L66.7607 6.22754L66.7471 6.19043H66.7441C66.6144 5.8084 66.254 5.5332 65.8281 5.5332C65.2935 5.53333 64.8597 5.96641 64.8594 6.50098V14.3838H64.8633L64.8623 27.5225C64.8622 28.229 64.7471 28.9351 64.5176 29.6113C64.1043 30.8285 63.3392 31.8962 62.3193 32.6787C61.2994 33.4613 60.0699 33.9237 58.7871 34.0078C57.5045 34.0918 56.2255 33.794 55.1123 33.1514C53.999 32.5086 53.1008 31.5495 52.5322 30.3965C52.4109 30.1504 52.3065 29.8972 52.2178 29.6396L49.8262 23.374H35.0928L32.6602 29.7461L32.6611 29.7471C32.6566 29.7596 32.6502 29.7717 32.6455 29.7842L32.6299 29.8271L32.6289 29.8262C32.2602 30.798 31.6664 31.6691 30.8916 32.3633C30.0954 33.0766 29.1351 33.5822 28.0967 33.8359C27.0584 34.0896 25.9738 34.083 24.9385 33.8174C23.9031 33.5517 22.949 33.0349 22.1611 32.3125C21.3733 31.5901 20.7752 30.6843 20.4209 29.6758C20.177 28.9814 20.0566 28.2527 20.0566 27.5215H20.0537V19.916H5.5332V31.2559L5.51855 31.5391C5.37678 32.9337 4.19861 34.0215 2.7666 34.0215C1.23916 34.0213 0.000976562 32.7833 0.000976562 31.2559V19.916H0V14.3838H0.000976562V3.04199C0.0015703 1.51502 1.23953 0.277514 2.7666 0.277344C4.29382 0.277344 5.53261 1.51491 5.5332 3.04199V14.3838H20.0537V3.04199C20.0543 1.51497 21.2922 0.277433 22.8193 0.277344C24.3466 0.277344 25.5844 1.51491 25.585 3.04199H25.5859V19.0869H25.5791V27.5234L25.584 27.6221C25.6337 28.1103 26.0465 28.4912 26.5479 28.4912C26.9674 28.4911 27.3234 28.2238 27.458 27.8506L27.4609 27.8516L36.2988 4.69727C37.1663 2.12763 39.5957 0.277383 42.458 0.277344C45.1886 0.277344 47.5238 1.96179 48.4863 4.34766L48.4932 4.3457L54.667 20.5225L54.6533 20.5283L57.4443 27.8398V27.8389C57.5752 28.2188 57.936 28.4922 58.3604 28.4922C58.895 28.492 59.3281 28.0582 59.3281 27.5234H59.3301V27.2617H59.3311V6.50098H59.334C59.3339 6.09867 59.3683 5.69545 59.4434 5.29688C59.659 4.15257 60.1781 3.08699 60.9463 2.21191C61.7145 1.33691 62.7038 0.684222 63.8105 0.322266ZM42.459 5.80957C42.0195 5.80967 41.6486 6.10273 41.5303 6.50391L39.2656 12.4385L37.2041 17.8418H47.7148L46.1748 13.8086H46.1768L43.3857 6.49805C43.2655 6.0999 42.8964 5.80957 42.459 5.80957Z" fill="white"/>
<path d="M154.97 0.277344C156.497 0.277344 157.735 1.51559 157.735 3.04297V18.9492H157.732V27.5234L157.737 27.6221C157.787 28.1105 158.199 28.492 158.7 28.4922C158.707 28.4922 158.713 28.4913 158.72 28.4912H174.883C176.41 28.4912 177.649 29.7295 177.649 31.2568C177.649 32.6889 176.561 33.8671 175.166 34.0088L174.883 34.0234H158.74C158.728 34.0235 158.715 34.0244 158.703 34.0244C157.344 34.0243 156.082 33.6053 155.039 32.8916C153.996 33.6052 152.734 34.0243 151.375 34.0244C151.363 34.0244 151.35 34.0235 151.338 34.0234H132.741C132.729 34.0235 132.716 34.0244 132.704 34.0244C131.312 34.0242 130.023 33.5842 128.966 32.8389C127.991 33.5246 126.845 33.9315 125.652 34.0098C124.37 34.0938 123.09 33.7961 121.977 33.1533C120.863 32.5105 119.966 31.5513 119.397 30.3984C119.286 30.1721 119.188 29.9402 119.104 29.7041L116.688 23.375H101.96L98.543 32.3281L98.5371 32.3252C98.1193 33.3224 97.1342 34.0233 95.9854 34.0234C94.458 34.0232 93.2188 32.7843 93.2188 31.2568C93.2188 30.858 93.305 30.4792 93.457 30.1367L103.146 4.75195C103.997 2.15428 106.44 0.277712 109.322 0.277344C112.053 0.277344 114.389 1.9619 115.352 4.34766L115.355 4.34668L121.529 20.5244L121.52 20.5293L124.31 27.8398L124.314 27.8369C124.445 28.2178 124.805 28.492 125.23 28.4922C125.765 28.4922 126.199 28.0583 126.199 27.5234H126.201V27.2607H126.204V3.04297C126.204 1.51572 127.443 0.277561 128.971 0.277344C130.498 0.277464 131.736 1.51566 131.736 3.04297V18.9492H131.734V27.5234C131.734 28.0583 132.168 28.4921 132.703 28.4922C132.71 28.4922 132.716 28.4913 132.723 28.4912H151.213C151.219 28.4913 151.226 28.4922 151.232 28.4922C151.239 28.4922 151.246 28.4913 151.252 28.4912H151.369V28.4814C151.807 28.4195 152.151 28.0655 152.196 27.6221L152.201 27.5234V21.0762L152.203 21.0771V3.04395H152.204V3.04297C152.204 1.51575 153.443 0.277598 154.97 0.277344ZM109.315 5.80957C108.876 5.80969 108.505 6.10276 108.387 6.50391L105.601 13.8057L105.61 13.8086L104.072 17.8428H114.577L112.514 12.4385H112.512L110.216 6.42383C110.074 6.06456 109.725 5.80957 109.315 5.80957Z" fill="white"/>
</svg>
