<svg width="1147" height="644" viewBox="0 0 1147 644" fill="none" xmlns="http://www.w3.org/2000/svg">
<path d="M849.303 523.961H774.407V449.109H849.303V523.961ZM774.407 411.683V299.406H811.855V149.703H849.303V37.4258H886.751V0H961.647V74.8515H924.199V149.703H886.751V261.98H849.303V336.832H811.855V411.683H774.407Z" fill="white"/>
<path d="M1062.57 218.405H1102.84V261.374H1146.52V434.613H1059.84V305.025H973.173V435.295H886.502V262.056H929.496V218.405H975.903V174.755H1062.57V218.405Z" fill="white"/>
<path d="M86.6711 386.718H126.936V429.687H257.283V516.306H83.9413V473.338H40.2645V429.687H0V83.2092H86.6711V386.718Z" fill="white"/>
<path fill-rule="evenodd" clip-rule="evenodd" d="M773.898 299.569H730.903V517.822H688.591V600.349H645.597V644H558.926V600.349H518.662V513.73H643.55V472.125H557.561V429.157H513.884V386.87H473.62V300.251H513.884V256.6H557.561V212.949H686.544V169.298H773.898V299.569ZM600.556 385.506H643.55V299.569H600.556V385.506Z" fill="white"/>
<path d="M387.631 257.282H430.626V300.251H473.62V386.87H430.626V430.521H387.631V473.489H300.96V429.839H257.283V386.87H214.289V300.251H257.283V256.6H300.96V213.631H387.631V257.282Z" fill="white"/>
</svg>
