<svg width="342" height="483" viewBox="0 0 342 483" fill="none" xmlns="http://www.w3.org/2000/svg">
<g clip-path="url(#clip0_3411_817)">
<rect width="342" height="483" fill="#00FF48"/>
<path opacity="0.9" d="M127.308 244.005C118.561 244.005 113.467 237.248 113.467 228.94C113.467 220.632 118.893 213.875 127.031 213.875C135.612 213.875 142.052 226.362 139.598 229.992C137.145 233.623 131.502 229.776 125.466 228.227C119.43 226.677 118.062 229.992 118.062 229.992C118.395 235.808 121.55 240.239 127.308 240.239C131.46 240.239 134.228 238.245 135.225 234.368H139.598C138.27 240.516 133.785 244.005 127.308 244.005ZM127.031 217.42C121.716 217.42 118.837 221.408 118.173 226.614C118.173 226.614 122.688 224.265 126.175 225.272C129.789 226.316 133.62 228.385 135.845 227.478C138.07 226.571 132.18 217.42 127.031 217.42Z" fill="black"/>
<g opacity="0.9">
<path d="M69 243.147V201.923H75.6303L89.0062 236.171H89.1215L102.382 201.923H109.128V243.147H104.169V209.245H104.054C104.054 209.245 102.959 212.474 102.209 214.434L90.9088 243.147H86.9306L75.6303 214.434C74.8231 212.358 73.7853 209.245 73.7853 209.245H73.67V243.147H69Z" fill="black"/>
<path d="M142.468 243.147V201.923H147.138V243.147H142.468Z" fill="black"/>
<path d="M149.46 217.144V213.339H153.784V203.941H158.454V213.339L164.219 213.339V217.144H158.454V236.517C158.454 238.592 159.549 239.284 161.452 239.284C162.374 239.284 163.412 239.054 163.931 238.881H164.104V242.917C163.009 243.147 161.74 243.32 160.357 243.32C156.551 243.32 153.784 241.763 153.784 237.554V217.144H149.46Z" fill="black"/>
<path d="M188.309 244.012C178.565 244.012 172.973 235.94 172.973 223.371C172.973 210.571 179.026 202.73 188.366 202.73C197.706 202.73 203.645 210.456 203.645 223.371C203.645 235.94 198.168 244.012 188.309 244.012ZM188.366 239.803C195.4 239.803 198.629 233.576 198.629 223.371C198.629 213.339 195.227 206.881 188.366 206.881C181.39 206.881 177.989 213.166 177.989 223.371C177.989 233.403 181.39 239.803 188.366 239.803Z" fill="black"/>
<path d="M216.22 219.104C214.375 219.104 212.761 218.739 211.377 218.009C210.032 217.24 208.975 216.202 208.206 214.895C207.438 213.55 207.053 212.012 207.053 210.283C207.053 208.515 207.418 206.977 208.149 205.67C208.917 204.325 209.974 203.287 211.32 202.557C212.703 201.788 214.337 201.404 216.22 201.404C218.027 201.404 219.622 201.788 221.006 202.557C222.389 203.287 223.466 204.325 224.234 205.67C225.003 206.977 225.387 208.515 225.387 210.283C225.387 212.012 225.003 213.55 224.234 214.895C223.466 216.202 222.389 217.24 221.006 218.009C219.622 218.739 218.027 219.104 216.22 219.104ZM216.278 215.703C218.123 215.703 219.468 215.203 220.314 214.203C221.198 213.204 221.64 211.897 221.64 210.283C221.64 209.168 221.428 208.207 221.006 207.4C220.621 206.554 220.026 205.901 219.218 205.44C218.45 204.978 217.47 204.748 216.278 204.748C214.395 204.748 213.011 205.247 212.127 206.247C211.243 207.246 210.801 208.591 210.801 210.283C210.801 211.897 211.243 213.204 212.127 214.203C213.011 215.203 214.395 215.703 216.278 215.703Z" fill="black"/>
<path d="M247.857 243.954C236.154 243.954 228.543 235.018 228.543 222.506C228.543 210.398 235.808 201 248.088 201C257.716 201 263.54 206.535 264.635 214.146H259.561C258.581 209.014 254.488 205.497 247.973 205.497C238.921 205.497 233.847 212.82 233.847 222.506C233.847 232.596 239.44 239.399 248.03 239.399C255.814 239.399 259.504 234.095 260.023 228.041H265.154C265.096 232.135 263.136 236.747 260.196 239.63C257.313 242.455 253.104 243.954 247.857 243.954Z" fill="black"/>
</g>
<path d="M64 451L74 440" stroke="black"/>
<path d="M33.1203 459.927L46.3195 454.374" stroke="black"/>
<path d="M17.0002 489.841L30.1994 484.288" stroke="black"/>
<path d="M36.3138 474.192L46.3173 466.034" stroke="black"/>
<path d="M65.1333 433.47L74.8127 428.327" stroke="black"/>
<path d="M82.6923 444.538L90.3029 436.398" stroke="black"/>
<path d="M114.344 411.37L124 406.178" stroke="black"/>
<path d="M205.352 363.227L214.696 352.146" stroke="black"/>
<path d="M246.352 334.078L255.696 322.997" stroke="black"/>
<path d="M301.353 51.0782L310.698 39.9972" stroke="black"/>
<path d="M274.002 100.628L285.609 91.9457" stroke="black"/>
<path d="M228.352 336.078L237.696 324.997" stroke="black"/>
<circle cx="239.869" cy="88.8678" r="3.2701" transform="rotate(-20.9544 239.869 88.8678)" fill="black" fill-opacity="0.2" stroke="black"/>
<circle cx="64.869" cy="156.868" r="3.2701" transform="rotate(-20.9544 64.869 156.868)" fill="black" fill-opacity="0.2" stroke="black"/>
<circle cx="271.869" cy="430.868" r="3.2701" transform="rotate(-20.9544 271.869 430.868)" fill="black" fill-opacity="0.2" stroke="black"/>
<path d="M82.7639 256.267C83.098 256.267 83.4025 256.325 83.6775 256.44C83.9555 256.553 84.1891 256.714 84.3783 256.924H86.3653V255.806H87.208V260.498H86.3653V259.425H84.3694C84.1832 259.632 83.9525 259.793 83.6775 259.909C83.4055 260.021 83.1069 260.076 82.7816 260.073C82.3883 260.076 82.032 259.996 81.7127 259.833C81.3963 259.671 81.1479 259.444 80.9676 259.155C80.7872 258.865 80.697 258.538 80.697 258.174C80.697 257.811 80.7857 257.484 80.9631 257.194C81.1435 256.904 81.3904 256.678 81.7038 256.516C82.0202 256.35 82.3735 256.267 82.7639 256.267ZM82.7816 256.995C82.5362 256.992 82.3159 257.039 82.1207 257.137C81.9285 257.234 81.7777 257.373 81.6683 257.553C81.5589 257.734 81.5042 257.941 81.5042 258.174C81.5042 258.402 81.5589 258.606 81.6683 258.786C81.7777 258.967 81.9285 259.107 82.1207 259.208C82.3159 259.308 82.5362 259.357 82.7816 259.354C83.0211 259.357 83.237 259.308 83.4292 259.208C83.6213 259.107 83.7707 258.967 83.8771 258.786C83.9865 258.606 84.0412 258.402 84.0412 258.174C84.0412 257.941 83.9865 257.735 83.8771 257.558C83.7707 257.378 83.6213 257.239 83.4292 257.141C83.237 257.04 83.0211 256.992 82.7816 256.995ZM84.5468 260.676C85.0968 260.676 85.5729 260.737 85.975 260.858C86.3801 260.979 86.6906 261.155 86.9064 261.386C87.1252 261.613 87.2346 261.888 87.2346 262.211C87.2346 262.53 87.1252 262.805 86.9064 263.035C86.6906 263.266 86.3801 263.441 85.975 263.559C85.5699 263.68 85.0939 263.739 84.5468 263.736C83.9969 263.739 83.5193 263.68 83.1142 263.559C82.7092 263.441 82.3972 263.266 82.1784 263.035C81.9625 262.805 81.8561 262.53 81.8591 262.211C81.8561 261.888 81.9625 261.613 82.1784 261.386C82.3972 261.155 82.7077 260.979 83.1098 260.858C83.5149 260.737 83.9939 260.676 84.5468 260.676ZM84.5468 261.323C83.9614 261.323 83.5031 261.402 83.1719 261.559C82.8437 261.712 82.6811 261.93 82.684 262.211C82.6811 262.483 82.8437 262.694 83.1719 262.845C83.5031 262.996 83.9614 263.071 84.5468 263.071C85.1353 263.071 85.5921 262.997 85.9174 262.849C86.2456 262.698 86.4097 262.486 86.4097 262.211C86.4097 261.927 86.2456 261.708 85.9174 261.554C85.5921 261.4 85.1353 261.323 84.5468 261.323ZM84.7597 257.598C84.8189 257.781 84.8484 257.973 84.8484 258.174C84.8484 258.364 84.8204 258.55 84.7642 258.733H86.3653V257.598H84.7597ZM94.7569 257.003C94.7569 257.515 94.7436 257.969 94.717 258.365C94.6933 258.758 94.6327 259.206 94.5351 259.709H95.6795V260.401H92.4594V263.763H91.6078V260.401H88.4322V259.709H93.6836C93.79 259.209 93.8565 258.761 93.8832 258.365C93.9098 257.966 93.9231 257.512 93.9231 257.003V256.995H89.3192V256.303H94.7569V257.003ZM103.539 260.348H96.2827V259.674H99.5027V258.831H97.1875V256.17H102.643V256.835H98.0213V258.157H102.696V258.831H100.319V259.674H103.539V260.348ZM99.9019 260.862C100.473 260.862 100.962 260.918 101.37 261.031C101.781 261.143 102.096 261.309 102.315 261.527C102.533 261.743 102.643 262.004 102.643 262.308C102.643 262.613 102.533 262.873 102.315 263.089C102.099 263.305 101.785 263.469 101.374 263.581C100.963 263.693 100.473 263.751 99.9019 263.754C99.3282 263.751 98.8344 263.693 98.4205 263.581C98.0095 263.469 97.6931 263.305 97.4713 263.089C97.2525 262.873 97.1431 262.613 97.1431 262.308C97.1431 262.004 97.2525 261.743 97.4713 261.527C97.6931 261.309 98.0095 261.143 98.4205 261.031C98.8344 260.918 99.3282 260.862 99.9019 260.862ZM99.9019 261.519C99.2928 261.519 98.8226 261.588 98.4914 261.727C98.1603 261.863 97.9947 262.057 97.9947 262.308C97.9947 262.562 98.1603 262.758 98.4914 262.894C98.8256 263.027 99.2957 263.092 99.9019 263.089C100.502 263.095 100.968 263.03 101.299 262.894C101.633 262.755 101.8 262.559 101.8 262.308C101.8 262.057 101.633 261.863 101.299 261.727C100.968 261.588 100.502 261.519 99.9019 261.519ZM110.582 260.552H108.178V262.104H111.407V262.796H104.133V262.104H107.335V260.552H105.047V256.418H110.502V257.11H105.898V258.13H110.334V258.795H105.898V259.878H110.582V260.552ZM119.231 260.49H111.984V259.798H119.231V260.49ZM116.02 256.56H118.504V257.234H116.069C116.098 257.488 116.233 257.719 116.472 257.926C116.712 258.133 117.035 258.304 117.443 258.441C117.852 258.577 118.317 258.665 118.841 258.707L118.583 259.354C117.883 259.289 117.271 259.143 116.747 258.915C116.227 258.684 115.845 258.387 115.603 258.024C115.357 258.387 114.975 258.684 114.454 258.915C113.934 259.143 113.326 259.289 112.631 259.354L112.365 258.707C112.885 258.665 113.348 258.577 113.753 258.441C114.161 258.304 114.485 258.133 114.725 257.926C114.964 257.719 115.1 257.488 115.133 257.234H112.711V256.56H115.186V255.797H116.02V256.56ZM115.603 261.084C116.179 261.084 116.672 261.136 117.08 261.239C117.491 261.34 117.804 261.491 118.02 261.692C118.236 261.89 118.344 262.131 118.344 262.415C118.344 262.698 118.236 262.939 118.02 263.137C117.804 263.339 117.491 263.489 117.08 263.59C116.672 263.69 116.179 263.739 115.603 263.736C115.023 263.739 114.527 263.69 114.113 263.59C113.702 263.489 113.387 263.339 113.168 263.137C112.952 262.939 112.844 262.698 112.844 262.415C112.844 262.131 112.952 261.89 113.168 261.692C113.387 261.491 113.702 261.34 114.113 261.239C114.527 261.136 115.023 261.084 115.603 261.084ZM115.603 261.714C114.991 261.714 114.519 261.774 114.188 261.896C113.86 262.017 113.696 262.19 113.696 262.415C113.696 262.639 113.86 262.811 114.188 262.929C114.516 263.047 114.988 263.103 115.603 263.098C116.209 263.103 116.676 263.047 117.004 262.929C117.336 262.811 117.501 262.639 117.501 262.415C117.501 262.19 117.336 262.017 117.004 261.896C116.676 261.774 116.209 261.714 115.603 261.714ZM120.553 264.836H119.799L120.269 262.388H121.262L120.553 264.836ZM126.966 256.374C127.38 256.371 127.751 256.449 128.079 256.609C128.408 256.768 128.663 256.993 128.847 257.283C129.033 257.57 129.128 257.896 129.131 258.263C129.128 258.63 129.033 258.958 128.847 259.248C128.663 259.535 128.408 259.759 128.079 259.922C127.751 260.082 127.38 260.161 126.966 260.161C126.552 260.161 126.18 260.082 125.848 259.922C125.52 259.759 125.263 259.535 125.077 259.248C124.89 258.958 124.799 258.63 124.802 258.263C124.799 257.896 124.89 257.57 125.077 257.283C125.263 256.993 125.52 256.768 125.848 256.609C126.18 256.449 126.552 256.371 126.966 256.374ZM126.966 257.101C126.709 257.101 126.478 257.15 126.274 257.247C126.073 257.342 125.915 257.478 125.8 257.655C125.687 257.83 125.633 258.032 125.635 258.263C125.633 258.494 125.687 258.698 125.8 258.875C125.915 259.05 126.073 259.186 126.274 259.283C126.478 259.378 126.709 259.425 126.966 259.425C127.223 259.425 127.452 259.378 127.654 259.283C127.858 259.186 128.017 259.05 128.133 258.875C128.248 258.698 128.306 258.494 128.306 258.263C128.306 258.032 128.248 257.83 128.133 257.655C128.017 257.478 127.858 257.342 127.654 257.247C127.452 257.15 127.223 257.101 126.966 257.101ZM130.949 263.772H130.106V255.806H130.949V263.772ZM124.42 261.359C125.402 261.359 126.319 261.343 127.17 261.31C128.025 261.275 128.838 261.202 129.61 261.093L129.672 261.705C128.879 261.859 128.073 261.956 127.254 261.998C126.438 262.039 125.529 262.06 124.527 262.06L124.42 261.359ZM135.118 256.95C135.115 257.317 135.192 257.667 135.349 258.001C135.508 258.333 135.738 258.625 136.036 258.88C136.335 259.134 136.685 259.328 137.087 259.461L136.662 260.126C136.206 259.966 135.809 259.731 135.469 259.421C135.131 259.107 134.873 258.742 134.692 258.325C134.512 258.778 134.25 259.172 133.907 259.509C133.567 259.844 133.164 260.093 132.697 260.259L132.271 259.603C132.676 259.458 133.028 259.249 133.326 258.977C133.628 258.705 133.859 258.395 134.018 258.046C134.178 257.694 134.258 257.329 134.258 256.95V256.187H135.118V256.95ZM138.817 263.754H137.975V261.643H133.433V260.96H138.817V263.754ZM138.817 260.578H137.975V255.806H138.817V260.578ZM143.696 255.939C144.293 255.939 144.803 255.992 145.226 256.099C145.652 256.202 145.976 256.356 146.198 256.56C146.422 256.764 146.535 257.012 146.535 257.305C146.535 257.598 146.422 257.848 146.198 258.055C145.976 258.259 145.652 258.414 145.226 258.52C144.803 258.627 144.293 258.68 143.696 258.68C143.099 258.68 142.587 258.627 142.161 258.52C141.739 258.414 141.415 258.259 141.19 258.055C140.968 257.848 140.857 257.598 140.857 257.305C140.857 257.012 140.968 256.764 141.19 256.56C141.415 256.356 141.739 256.202 142.161 256.099C142.587 255.992 143.099 255.939 143.696 255.939ZM143.696 256.56C143.063 256.56 142.577 256.625 142.237 256.755C141.897 256.885 141.73 257.069 141.736 257.305C141.733 257.548 141.898 257.732 142.232 257.859C142.569 257.987 143.057 258.05 143.696 258.05C144.332 258.05 144.818 257.987 145.155 257.859C145.495 257.732 145.665 257.548 145.665 257.305C145.665 257.069 145.494 256.885 145.151 256.755C144.811 256.625 144.326 256.56 143.696 256.56ZM147.324 259.842H140.077V259.168H147.324V259.842ZM146.41 262.317H141.78V263.027H146.632V263.674H140.955V261.705H145.577V261.084H140.946V260.454H146.41V262.317ZM157.1 263.745H156.283V259.647H155.414V263.373H154.625V255.966H155.414V258.955H156.283V255.797H157.1V263.745ZM152.123 256.764C152.123 257.769 152.027 258.689 151.835 259.523C151.646 260.357 151.295 261.122 150.784 261.82L150.118 261.421C150.553 260.859 150.866 260.255 151.059 259.607C151.254 258.959 151.368 258.239 151.4 257.447H150.322V256.764H152.123ZM154.004 256.764C154.004 257.471 153.971 258.134 153.906 258.755C153.844 259.373 153.715 259.996 153.52 260.623C153.325 261.247 153.043 261.82 152.673 262.344L151.99 261.962C152.312 261.539 152.564 261.081 152.744 260.587C152.927 260.09 153.056 259.589 153.13 259.084C153.204 258.575 153.25 258.03 153.267 257.447H152.38V256.764H154.004ZM165.26 261.022H162.014V263.754H161.189V261.022H157.987V260.321H165.26V261.022ZM161.606 256.108C162.162 256.108 162.653 256.18 163.078 256.325C163.507 256.467 163.84 256.672 164.076 256.941C164.316 257.207 164.436 257.518 164.436 257.873C164.436 258.225 164.316 258.534 164.076 258.8C163.84 259.063 163.507 259.265 163.078 259.407C162.653 259.549 162.162 259.62 161.606 259.62C161.047 259.62 160.553 259.549 160.124 259.407C159.699 259.265 159.367 259.063 159.131 258.8C158.894 258.534 158.776 258.225 158.776 257.873C158.776 257.518 158.894 257.207 159.131 256.941C159.367 256.672 159.699 256.467 160.124 256.325C160.553 256.18 161.047 256.108 161.606 256.108ZM161.606 256.782C161.213 256.785 160.868 256.83 160.572 256.919C160.277 257.008 160.048 257.134 159.885 257.296C159.722 257.459 159.642 257.651 159.645 257.873C159.642 258.092 159.722 258.282 159.885 258.445C160.048 258.605 160.277 258.729 160.572 258.818C160.868 258.903 161.213 258.946 161.606 258.946C161.999 258.946 162.344 258.903 162.639 258.818C162.935 258.729 163.164 258.605 163.327 258.445C163.492 258.282 163.575 258.092 163.575 257.873C163.575 257.651 163.494 257.459 163.331 257.296C163.169 257.134 162.938 257.008 162.639 256.919C162.344 256.83 161.999 256.785 161.606 256.782ZM172.277 258.804H166.804V256.09H167.638V258.13H172.277V258.804ZM173.111 260.481H165.837V259.807H173.111V260.481ZM172.33 263.568H166.742V261.235H167.585V262.876H172.33V263.568ZM182.505 261.59H181.662V255.815H182.505V261.59ZM182.744 263.585H177.307V261.004H178.158V262.902H182.744V263.585ZM178.194 256.347C178.59 256.347 178.948 256.431 179.267 256.6C179.589 256.768 179.842 257.002 180.026 257.301C180.212 257.599 180.305 257.938 180.305 258.316C180.305 258.701 180.212 259.044 180.026 259.345C179.842 259.644 179.589 259.878 179.267 260.046C178.948 260.212 178.59 260.294 178.194 260.294C177.798 260.294 177.438 260.212 177.116 260.046C176.794 259.878 176.539 259.642 176.353 259.341C176.167 259.039 176.074 258.698 176.074 258.316C176.074 257.938 176.167 257.599 176.353 257.301C176.539 257.002 176.794 256.768 177.116 256.6C177.438 256.431 177.798 256.347 178.194 256.347ZM178.194 257.083C177.948 257.083 177.727 257.137 177.529 257.243C177.333 257.346 177.18 257.491 177.067 257.678C176.955 257.864 176.899 258.077 176.899 258.316C176.899 258.562 176.953 258.779 177.063 258.968C177.175 259.155 177.329 259.299 177.524 259.403C177.722 259.506 177.945 259.558 178.194 259.558C178.436 259.558 178.655 259.506 178.85 259.403C179.045 259.299 179.199 259.153 179.312 258.964C179.424 258.775 179.48 258.559 179.48 258.316C179.48 258.08 179.424 257.868 179.312 257.682C179.199 257.493 179.044 257.346 178.846 257.243C178.651 257.137 178.433 257.083 178.194 257.083ZM190.391 263.772H189.557V259.434H187.978V258.742H189.557V255.806H190.391V263.772ZM187.845 257.199H184.98V258.742H187.508V259.416H184.98V261.19C185.716 261.187 186.328 261.171 186.816 261.142C187.304 261.112 187.795 261.054 188.289 260.969L188.377 261.652C187.83 261.74 187.285 261.801 186.741 261.834C186.2 261.866 185.536 261.885 184.749 261.891H184.128V256.516H187.845V257.199ZM198.392 260.765H197.594V258.582H196.618V260.703H195.829V255.957H196.618V257.891H197.594V255.815H198.392V260.765ZM198.392 263.754H197.558V261.829H192.99V261.146H198.392V263.754ZM194.968 258.662H192.786V259.709C193.318 259.703 193.782 259.684 194.179 259.651C194.575 259.619 194.98 259.561 195.394 259.478L195.483 260.17C195.01 260.253 194.55 260.309 194.103 260.339C193.657 260.368 193.12 260.383 192.493 260.383H191.97V258.032H194.161V257.048H191.952V256.374H194.968V258.662ZM202.269 257.243C202.269 257.624 202.346 257.993 202.499 258.347C202.653 258.702 202.872 259.019 203.156 259.297C203.443 259.574 203.78 259.789 204.167 259.94L203.706 260.596C203.277 260.425 202.904 260.173 202.588 259.842C202.275 259.511 202.032 259.125 201.861 258.684C201.689 259.152 201.436 259.563 201.102 259.917C200.768 260.269 200.373 260.537 199.918 260.72L199.466 260.046C199.865 259.898 200.212 259.682 200.508 259.399C200.806 259.112 201.034 258.782 201.191 258.409C201.351 258.037 201.432 257.648 201.435 257.243V256.258H202.269V257.243ZM206.092 261.732H205.249V259.23H203.706V258.547H205.249V257.624H203.706V256.941H205.249V255.815H206.092V261.732ZM206.269 263.585H200.903V261.137H201.754V262.902H206.269V263.585ZM213.703 261.794H209.977V256.569H213.703V261.794ZM210.811 261.111H212.887V257.234H210.811V261.111ZM216.116 263.772H215.273V255.806H216.116V263.772ZM223.966 263.772H223.123V255.806H223.966V263.772ZM221.695 257.243H218.741V261.102C219.555 261.099 220.223 261.081 220.746 261.048C221.272 261.016 221.802 260.951 222.334 260.853L222.423 261.554C221.849 261.658 221.274 261.729 220.697 261.767C220.124 261.802 219.407 261.82 218.546 261.82H217.89V256.542H221.695V257.243ZM227.39 256.4C227.748 256.4 228.07 256.498 228.357 256.693C228.644 256.885 228.876 257.162 229.053 257.522C229.234 257.88 229.345 258.302 229.386 258.786H231.027V255.806H231.861V263.772H231.027V259.469H229.395C229.365 259.978 229.262 260.422 229.085 260.8C228.907 261.179 228.672 261.47 228.379 261.674C228.087 261.878 227.757 261.98 227.39 261.98C226.994 261.98 226.644 261.866 226.339 261.638C226.035 261.408 225.796 261.082 225.625 260.663C225.456 260.24 225.374 259.747 225.377 259.186C225.374 258.627 225.456 258.137 225.625 257.718C225.796 257.295 226.035 256.969 226.339 256.742C226.647 256.514 226.997 256.4 227.39 256.4ZM227.39 257.154C227.151 257.154 226.939 257.237 226.756 257.403C226.573 257.568 226.429 257.805 226.326 258.112C226.225 258.417 226.175 258.775 226.175 259.186C226.175 259.6 226.225 259.96 226.326 260.268C226.429 260.575 226.573 260.812 226.756 260.978C226.939 261.143 227.151 261.226 227.39 261.226C227.63 261.226 227.841 261.143 228.024 260.978C228.208 260.812 228.35 260.575 228.45 260.268C228.554 259.96 228.606 259.6 228.606 259.186C228.606 258.775 228.554 258.417 228.45 258.112C228.35 257.805 228.208 257.568 228.024 257.403C227.841 257.237 227.63 257.154 227.39 257.154ZM237.432 256.4C237.825 256.4 238.175 256.514 238.483 256.742C238.793 256.969 239.034 257.295 239.206 257.718C239.38 258.137 239.469 258.627 239.472 259.186C239.469 259.747 239.38 260.24 239.206 260.663C239.034 261.082 238.793 261.408 238.483 261.638C238.175 261.866 237.825 261.98 237.432 261.98C237.036 261.98 236.684 261.866 236.376 261.638C236.069 261.408 235.828 261.082 235.653 260.663C235.482 260.24 235.397 259.747 235.4 259.186C235.397 258.627 235.482 258.137 235.653 257.718C235.828 257.298 236.069 256.974 236.376 256.746C236.684 256.516 237.036 256.4 237.432 256.4ZM237.432 257.154C237.189 257.154 236.975 257.237 236.789 257.403C236.605 257.568 236.462 257.805 236.358 258.112C236.258 258.417 236.208 258.775 236.208 259.186C236.208 259.6 236.258 259.96 236.358 260.268C236.462 260.575 236.605 260.812 236.789 260.978C236.975 261.143 237.189 261.226 237.432 261.226C237.677 261.226 237.893 261.143 238.079 260.978C238.266 260.812 238.409 260.575 238.51 260.268C238.613 259.96 238.665 259.6 238.665 259.186C238.665 258.775 238.613 258.417 238.51 258.112C238.409 257.805 238.266 257.568 238.079 257.403C237.893 257.237 237.677 257.154 237.432 257.154ZM241.494 258.92H242.772V259.629H241.494V263.754H240.652V255.806H241.494V258.92ZM249.602 260.711H244.067V256.462H249.522V257.145H244.919V258.219H249.354V258.884H244.919V260.037H249.602V260.711ZM250.427 262.752H243.153V262.06H250.427V262.752Z" fill="black"/>
</g>
<defs>
<clipPath id="clip0_3411_817">
<rect width="342" height="483" fill="white"/>
</clipPath>
</defs>
</svg>
