<svg width="380" height="315" version="1.1" xmlns="http://www.w3.org/2000/svg" desc="Created with imagetracer.js version 1.2.6" ><path fill="rgb(0,0,0)" stroke="rgb(0,0,0)" strokeWidth="1" opacity="0" d="M 0 0 L 137 0.5 L 126 3.5 Q 140.4 3.6 147 11.5 Q 153 16.5 151 29.5 Q 147.1 39.1 139.5 45 L 129.5 52 L 101.5 67 L 84 81.5 L 76 95.5 Q 73.4 103.4 75 115.5 Q 77.1 125.9 84.5 131 L 95.5 136 L 104.5 136 L 123.5 125 L 130.5 123 L 140.5 123 L 152.5 128 L 168.5 139 L 178.5 140 L 190.5 136 L 208 120.5 L 216 108.5 L 213.5 110 L 201.5 117 L 195.5 117 L 187.5 115 L 180.5 111 L 162.5 94 L 145 88.5 Q 169.7 80.2 185 62.5 L 195 46.5 L 198 38.5 L 198 28.5 L 189.5 16 Q 180.8 7.7 168.5 3 L 158 0.5 L 380 0 L 379.5 66 Q 376.5 46.5 365.5 35 L 365 37.5 L 366 38.5 L 367 49.5 L 365 60.5 L 362 67.5 Q 354.8 76.3 351 88.5 L 340.5 101 Q 322.8 116.3 298.5 125 L 279.5 130 L 264.5 131 L 263.5 130 L 237.5 128 Q 213.4 131.9 202 148.5 L 196 161.5 L 196 174.5 L 199.5 182 Q 205.7 165.7 218.5 156 Q 234.1 143.6 262.5 144 L 263.5 145 L 271.5 145 L 276.5 147 L 306.5 147 L 307.5 146 L 315.5 146 L 325.5 144 L 334.5 141 Q 351.1 133.1 362 119.5 Q 373.9 103.9 379.5 82 L 380 315 L 153 314.5 L 167.5 313 L 181.5 309 Q 198.2 301.2 210 288.5 Q 222.8 273.8 230 253.5 L 218.5 264 Q 205.4 274.4 188.5 281 L 171.5 286 L 156.5 287 L 136.5 280 L 129 272.5 Q 125.3 265.3 127 252.5 Q 129.6 245.1 135.5 241 L 144 233.5 L 151 219.5 L 151 205.5 Q 147.3 194.3 138.5 188 L 121.5 179 L 110.5 178 L 109.5 177 L 95.5 177 L 94.5 178 L 77.5 179 Q 70.5 177 66.5 172 L 66 173.5 Q 70 190.5 82.5 199 Q 91.9 205.6 104.5 209 L 115.5 210 L 116.5 211 L 128.5 211 L 132 213.5 Q 134.3 216.7 133 223.5 L 126.5 229 L 97.5 237 Q 90 240 86 246.5 L 77 264.5 Q 74.7 271.2 76 281.5 Q 79.5 293 87.5 300 Q 100.3 312.2 123 314.5 L 0 315 L 0.5 105 Q 6.3 130.7 24.5 144 Q 40.1 157.4 62.5 164 L 66.5 165 L 92.5 165 L 116.5 171 L 148.5 191 L 168 209.5 L 172 217.5 L 173 232.5 L 170 248.5 L 165 257 Q 184.5 251.8 197 238.5 L 206 222.5 L 207 207.5 Q 202.2 184.3 187.5 171 Q 179.7 165.3 168.5 163 L 153.5 163 L 130 157.5 L 139.5 153 L 143 149.5 Q 147.7 144.7 147 134.5 L 145 127 L 132.5 137 L 124.5 141 L 113.5 144 L 103.5 144 Q 73.8 135.7 57 114.5 L 50 104.5 L 40 82.5 L 36 68.5 L 36 55.5 L 41 40.5 L 56 20 L 38.5 26 Q 27.2 32.7 19 42.5 Q 5 58.5 0.5 84 L 0 0 Z M 239 4 L 234 6 L 251 13 L 257 21 L 255 27 L 247 34 L 227 45 Q 216 54 213 71 Q 212 82 214 90 Q 217 101 224 109 Q 234 123 255 127 L 273 127 Q 286 124 296 118 Q 312 106 317 83 Q 320 61 311 51 Q 305 41 294 38 L 297 49 L 297 63 L 291 78 Q 287 85 278 87 Q 267 89 263 85 Q 257 81 255 74 L 255 69 L 258 63 Q 263 55 272 51 Q 278 46 281 37 L 281 27 L 276 17 Q 266 2 239 4 Z M 242 155 L 234 157 L 229 160 L 225 166 L 226 185 L 233 211 Q 242 234 258 252 L 275 268 L 281 272 L 265 232 L 263 221 L 263 213 L 262 212 L 262 202 L 264 194 L 273 187 L 284 188 L 287 194 L 287 199 L 280 213 L 276 230 Q 275 254 286 267 Q 286 260 290 256 L 300 247 L 315 247 L 321 244 Q 328 239 331 230 L 334 217 L 334 213 L 330 220 Q 324 228 314 232 L 311 233 L 294 233 L 297 228 L 310 217 Q 324 206 329 187 Q 331 172 324 166 Q 320 159 312 158 L 294 158 Q 292 160 288 159 L 273 166 Q 266 170 263 178 L 262 178 L 265 163 Q 258 154 242 155 Z " /><path fill="rgb(255,255,255)" stroke="rgb(255,255,255)" strokeWidth="1" opacity="0.4980392156862745" d="M 137.5 0 L 142 0.5 L 137.5 1 L 137.5 0 Z " /><path fill="rgb(255,255,255)" stroke="rgb(255,255,255)" strokeWidth="1" opacity="0.4980392156862745" d="M 152.5 0 L 158 0.5 L 152.5 1 L 152.5 0 Z " /><path fill="rgb(255,255,255)" stroke="rgb(255,255,255)" strokeWidth="1" opacity="0.4980392156862745" d="M 132.5 1 L 135 1.5 L 132.5 2 L 132.5 1 Z " /><path fill="rgb(255,255,255)" stroke="rgb(255,255,255)" strokeWidth="1" opacity="0.4980392156862745" d="M 159.5 1 L 162 1.5 L 159.5 2 L 159.5 1 Z " /><path fill="rgb(255,255,255)" stroke="rgb(255,255,255)" strokeWidth="1" opacity="0.4980392156862745" d="M 129.5 2 Q 132.1 1.3 131 4 L 126 3.5 L 129.5 2 Z " /><path fill="rgb(255,255,255)" stroke="rgb(255,255,255)" strokeWidth="1" opacity="0.4980392156862745" d="M 163.5 2 L 171 4.5 L 169.5 5 L 163.5 3 L 163.5 2 Z " /><path fill="rgb(255,255,255)" stroke="rgb(255,255,255)" strokeWidth="1" opacity="0.4980392156862745" d="M 133.5 4 L 136 4.5 L 133.5 5 L 133.5 4 Z " /><path fill="rgb(255,255,255)" stroke="rgb(255,255,255)" strokeWidth="1" opacity="0.4980392156862745" d="M 238.5 4 L 255 4.5 L 238.5 5 L 238.5 4 Z " /><path fill="rgb(255,255,255)" stroke="rgb(255,255,255)" strokeWidth="1" opacity="0.4980392156862745" d="M 234.5 5 L 237 6.5 L 235.5 7 L 234.5 5 Z " /><path fill="rgb(255,255,255)" stroke="rgb(255,255,255)" strokeWidth="1" opacity="0.4980392156862745" d="M 256.5 5 L 259 5.5 L 256.5 6 L 256.5 5 Z " /><path fill="rgb(255,255,255)" stroke="rgb(255,255,255)" strokeWidth="1" opacity="0.4980392156862745" d="M 142.5 7 L 147 10.5 L 145.5 10 L 142.5 7 Z " /><path fill="rgb(255,255,255)" stroke="rgb(255,255,255)" strokeWidth="1" opacity="0.4980392156862745" d="M 176.5 7 L 183 11.5 L 180.5 10 Q 176.5 9.5 176.5 7 Z " /><path fill="rgb(255,255,255)" stroke="rgb(255,255,255)" strokeWidth="1" opacity="0.4980392156862745" d="M 241.5 8 Q 251.8 10.8 257 18.5 L 256.5 20 L 250.5 13 L 241.5 9 L 241.5 8 Z " /><path fill="rgb(255,255,255)" stroke="rgb(255,255,255)" strokeWidth="1" opacity="0.4980392156862745" d="M 267.5 9 L 268.5 11 L 267.5 9 Z " /><path fill="rgb(255,255,255)" stroke="rgb(255,255,255)" strokeWidth="1" opacity="0.4980392156862745" d="M 270.5 11 Q 277.2 15.8 280 24.5 L 279 24.5 Q 276.1 15.6 270.5 11 Z " /><path fill="rgb(255,255,255)" stroke="rgb(255,255,255)" strokeWidth="1" opacity="0.4980392156862745" d="M 147.5 12 L 151 17.5 L 150 17.5 L 147.5 12 Z " /><path fill="rgb(255,255,255)" stroke="rgb(255,255,255)" strokeWidth="1" opacity="0.4980392156862745" d="M 184.5 12 L 187.5 16 L 184.5 12 Z " /><path fill="rgb(255,255,255)" stroke="rgb(255,255,255)" strokeWidth="1" opacity="0.4980392156862745" d="M 189.5 16 L 196 24.5 L 194 23.5 L 189.5 16 Z " /><path fill="rgb(255,255,255)" stroke="rgb(255,255,255)" strokeWidth="1" opacity="0.4980392156862745" d="M 151.5 19 L 152 28.5 L 151 28.5 L 151.5 19 Z " /><path fill="rgb(255,255,255)" stroke="rgb(255,255,255)" strokeWidth="1" opacity="0.4980392156862745" d="M 54.5 20 Q 56.8 19.3 56 21.5 L 44.5 35 L 45 33.5 L 55 21.5 L 54.5 20 Z " /><path fill="rgb(255,255,255)" stroke="rgb(255,255,255)" strokeWidth="1" opacity="0.4980392156862745" d="M 50.5 21 L 53 21.5 L 45.5 24 L 45.5 23 L 50.5 21 Z " /><path fill="rgb(255,255,255)" stroke="rgb(255,255,255)" strokeWidth="1" opacity="0.4980392156862745" d="M 256.5 23 L 257 24.5 L 250.5 32 L 232.5 42 L 224 48.5 L 219.5 55 L 220 53.5 L 226.5 45 L 246.5 34 L 255 26.5 L 256.5 23 Z " /><path fill="rgb(255,255,255)" stroke="rgb(255,255,255)" strokeWidth="1" opacity="0.4980392156862745" d="M 42.5 24 L 44 24.5 Q 29.2 31.2 19.5 43 L 28.5 33 L 42.5 24 Z " /><path fill="rgb(255,255,255)" stroke="rgb(255,255,255)" strokeWidth="1" opacity="0.4980392156862745" d="M 196.5 26 L 198 31.5 L 197 31.5 L 196.5 26 Z " /><path fill="rgb(255,255,255)" stroke="rgb(255,255,255)" strokeWidth="1" opacity="0.4980392156862745" d="M 280.5 26 L 281 29.5 L 280 29.5 L 280.5 26 Z " /><path fill="rgb(255,255,255)" stroke="rgb(255,255,255)" strokeWidth="1" opacity="0.4980392156862745" d="M 150.5 30 L 151 31.5 L 148.5 35 L 149 33.5 L 150.5 30 Z " /><path fill="rgb(255,255,255)" stroke="rgb(255,255,255)" strokeWidth="1" opacity="0.4980392156862745" d="M 280.5 34 L 281 36.5 L 280 36.5 L 280.5 34 Z " /><path fill="rgb(255,255,255)" stroke="rgb(255,255,255)" strokeWidth="1" opacity="0.4980392156862745" d="M 365.5 35 L 374 48.5 L 373 48.5 L 366.5 37 L 365 37.5 L 365.5 35 Z " /><path fill="rgb(255,255,255)" stroke="rgb(255,255,255)" strokeWidth="1" opacity="0.4980392156862745" d="M 43.5 36 L 43 37.5 L 41.5 40 L 42 38.5 L 43.5 36 Z " /><path fill="rgb(255,255,255)" stroke="rgb(255,255,255)" strokeWidth="1" opacity="0.4980392156862745" d="M 147.5 36 L 146 38.5 L 139.5 46 L 123.5 56 L 124.5 54 Q 136.8 48.8 145 39.5 L 147.5 36 Z " /><path fill="rgb(255,255,255)" stroke="rgb(255,255,255)" strokeWidth="1" opacity="0.4980392156862745" d="M 197.5 36 L 198 38.5 L 196.5 41 L 196 39.5 L 197.5 36 Z " /><path fill="rgb(255,255,255)" stroke="rgb(255,255,255)" strokeWidth="1" opacity="0.4980392156862745" d="M 294 38 Q 304.8 41.4 311 50.5 Q 315.2 54.8 316 62.5 L 315 62.5 Q 312.4 49.1 302.5 43 L 295.5 39 L 295 40.5 L 297 47.5 L 296 47.5 L 294 38 Z " /><path fill="rgb(255,255,255)" stroke="rgb(255,255,255)" strokeWidth="1" opacity="0.4980392156862745" d="M 366.5 40 L 367 46.5 L 366 46.5 L 366.5 40 Z " /><path fill="rgb(255,255,255)" stroke="rgb(255,255,255)" strokeWidth="1" opacity="0.4980392156862745" d="M 40.5 41 L 41 42.5 L 39.5 45 L 39 43.5 L 40.5 41 Z " /><path fill="rgb(255,255,255)" stroke="rgb(255,255,255)" strokeWidth="1" opacity="0.4980392156862745" d="M 277.5 43 L 276 45.5 L 271.5 51 L 268.5 53 L 270.5 50 L 275 46.5 L 277.5 43 Z " /><path fill="rgb(255,255,255)" stroke="rgb(255,255,255)" strokeWidth="1" opacity="0.4980392156862745" d="M 18.5 44 L 16 47.5 L 12.5 53 L 13 51.5 L 18.5 44 Z " /><path fill="rgb(255,255,255)" stroke="rgb(255,255,255)" strokeWidth="1" opacity="0.4980392156862745" d="M 37.5 48 L 38 50.5 L 37 50.5 L 37.5 48 Z " /><path fill="rgb(255,255,255)" stroke="rgb(255,255,255)" strokeWidth="1" opacity="0.4980392156862745" d="M 297.5 49 L 298 60.5 L 297 60.5 L 297.5 49 Z " /><path fill="rgb(255,255,255)" stroke="rgb(255,255,255)" strokeWidth="1" opacity="0.4980392156862745" d="M 192.5 50 L 192 51.5 L 187.5 58 L 189 55.5 L 192.5 50 Z " /><path fill="rgb(255,255,255)" stroke="rgb(255,255,255)" strokeWidth="1" opacity="0.4980392156862745" d="M 366.5 50 L 367 55.5 L 366 55.5 L 366.5 50 Z " /><path fill="rgb(255,255,255)" stroke="rgb(255,255,255)" strokeWidth="1" opacity="0.4980392156862745" d="M 374.5 50 L 378 59.5 L 377 59.5 L 374.5 50 Z " /><path fill="rgb(255,255,255)" stroke="rgb(255,255,255)" strokeWidth="1" opacity="0.4980392156862745" d="M 36.5 52 L 37 54.5 L 36 54.5 L 36.5 52 Z " /><path fill="rgb(255,255,255)" stroke="rgb(255,255,255)" strokeWidth="1" opacity="0.4980392156862745" d="M 266.5 53 L 258 62.5 L 255.5 68 L 255 66.5 Q 258.7 57.7 266.5 53 Z " /><path fill="rgb(255,255,255)" stroke="rgb(255,255,255)" strokeWidth="1" opacity="0.4980392156862745" d="M 10.5 56 L 10 57.5 L 8.5 61 L 8 59.5 L 10.5 56 Z " /><path fill="rgb(255,255,255)" stroke="rgb(255,255,255)" strokeWidth="1" opacity="0.4980392156862745" d="M 121.5 56 L 120.5 58 L 105.5 66 L 106.5 64 L 121.5 56 Z " /><path fill="rgb(255,255,255)" stroke="rgb(255,255,255)" strokeWidth="1" opacity="0.4980392156862745" d="M 35.5 57 L 36 66.5 L 35 66.5 L 35.5 57 Z " /><path fill="rgb(255,255,255)" stroke="rgb(255,255,255)" strokeWidth="1" opacity="0.4980392156862745" d="M 365.5 57 L 366 59.5 L 365 59.5 L 365.5 57 Z " /><path fill="rgb(255,255,255)" stroke="rgb(255,255,255)" strokeWidth="1" opacity="0.4980392156862745" d="M 217.5 58 L 218 59.5 L 215.5 65 L 215 62.5 L 217.5 58 Z " /><path fill="rgb(255,255,255)" stroke="rgb(255,255,255)" strokeWidth="1" opacity="0.4980392156862745" d="M 186.5 59 L 185 61.5 L 174.5 73 L 171.5 75 L 173.5 72 L 184 62.5 L 186.5 59 Z " /><path fill="rgb(255,255,255)" stroke="rgb(255,255,255)" strokeWidth="1" opacity="0.4980392156862745" d="M 364.5 61 L 365 62.5 L 362.5 67 L 362 65.5 L 364.5 61 Z " /><path fill="rgb(255,255,255)" stroke="rgb(255,255,255)" strokeWidth="1" opacity="0.4980392156862745" d="M 378.5 61 L 379 63.5 L 378 63.5 L 378.5 61 Z " /><path fill="rgb(255,255,255)" stroke="rgb(255,255,255)" strokeWidth="1" opacity="0.4980392156862745" d="M 296.5 63 L 297 65.5 L 296 65.5 L 296.5 63 Z " /><path fill="rgb(255,255,255)" stroke="rgb(255,255,255)" strokeWidth="1" opacity="0.4980392156862745" d="M 6.5 64 L 7 65.5 L 5.5 68 L 5 66.5 L 6.5 64 Z " /><path fill="rgb(255,255,255)" stroke="rgb(255,255,255)" strokeWidth="1" opacity="0.4980392156862745" d="M 316.5 64 L 317 67.5 L 316 67.5 L 316.5 64 Z " /><path fill="rgb(255,255,255)" stroke="rgb(255,255,255)" strokeWidth="1" opacity="0.4980392156862745" d="M 103.5 66 L 102.5 68 L 96.5 72 L 98.5 69 L 103.5 66 Z " /><path fill="rgb(255,255,255)" stroke="rgb(255,255,255)" strokeWidth="1" opacity="0.4980392156862745" d="M 214.5 66 L 215 68.5 L 214 68.5 L 214.5 66 Z " /><path fill="rgb(255,255,255)" stroke="rgb(255,255,255)" strokeWidth="1" opacity="0.4980392156862745" d="M 379.5 66 L 380 71.5 L 379 71.5 L 379.5 66 Z " /><path fill="rgb(255,255,255)" stroke="rgb(255,255,255)" strokeWidth="1" opacity="0.4980392156862745" d="M 361.5 68 L 361 69.5 L 358.5 74 L 359 72.5 L 361.5 68 Z " /><path fill="rgb(255,255,255)" stroke="rgb(255,255,255)" strokeWidth="1" opacity="0.4980392156862745" d="M 36.5 69 L 37 71.5 L 36 71.5 L 36.5 69 Z " /><path fill="rgb(255,255,255)" stroke="rgb(255,255,255)" strokeWidth="1" opacity="0.4980392156862745" d="M 213.5 70 L 214 85.5 L 213 85.5 L 213.5 70 Z " /><path fill="rgb(255,255,255)" stroke="rgb(255,255,255)" strokeWidth="1" opacity="0.4980392156862745" d="M 254.5 70 L 255 72.5 L 254 72.5 L 254.5 70 Z " /><path fill="rgb(255,255,255)" stroke="rgb(255,255,255)" strokeWidth="1" opacity="0.4980392156862745" d="M 294.5 70 L 295 71.5 L 293.5 74 L 293 72.5 L 294.5 70 Z " /><path fill="rgb(255,255,255)" stroke="rgb(255,255,255)" strokeWidth="1" opacity="0.4980392156862745" d="M 3.5 72 L 4 74.5 L 2.5 78 L 2 75.5 L 3.5 72 Z " /><path fill="rgb(255,255,255)" stroke="rgb(255,255,255)" strokeWidth="1" opacity="0.4980392156862745" d="M 94.5 72 L 91.5 76 L 84.5 82 L 90.5 75 L 94.5 72 Z " /><path fill="rgb(255,255,255)" stroke="rgb(255,255,255)" strokeWidth="1" opacity="0.4980392156862745" d="M 37.5 73 L 39 78.5 L 38 78.5 L 37.5 73 Z " /><path fill="rgb(255,255,255)" stroke="rgb(255,255,255)" strokeWidth="1" opacity="0.4980392156862745" d="M 169.5 75 L 168.5 77 L 169.5 75 Z " /><path fill="rgb(255,255,255)" stroke="rgb(255,255,255)" strokeWidth="1" opacity="0.4980392156862745" d="M 292.5 75 L 292 76.5 L 283.5 86 L 282 85.5 L 291 77.5 L 292.5 75 Z " /><path fill="rgb(255,255,255)" stroke="rgb(255,255,255)" strokeWidth="1" opacity="0.4980392156862745" d="M 166.5 77 L 165.5 79 L 163.5 80 L 164.5 78 L 166.5 77 Z " /><path fill="rgb(255,255,255)" stroke="rgb(255,255,255)" strokeWidth="1" opacity="0.4980392156862745" d="M 256.5 77 L 262.5 85 L 266.5 87 L 277 87.5 L 266.5 88 L 258 81.5 L 256.5 77 Z " /><path fill="rgb(255,255,255)" stroke="rgb(255,255,255)" strokeWidth="1" opacity="0.4980392156862745" d="M 356.5 77 L 356 78.5 L 353.5 84 L 353 82.5 L 356.5 77 Z " /><path fill="rgb(255,255,255)" stroke="rgb(255,255,255)" strokeWidth="1" opacity="0.4980392156862745" d="M 379.5 77 L 380 81.5 L 379 81.5 L 379.5 77 Z " /><path fill="rgb(255,255,255)" stroke="rgb(255,255,255)" strokeWidth="1" opacity="0.4980392156862745" d="M 1.5 79 L 2 82.5 L 1 82.5 L 1.5 79 Z " /><path fill="rgb(255,255,255)" stroke="rgb(255,255,255)" strokeWidth="1" opacity="0.4980392156862745" d="M 316.5 79 L 317 82.5 L 316 82.5 L 316.5 79 Z " /><path fill="rgb(255,255,255)" stroke="rgb(255,255,255)" strokeWidth="1" opacity="0.4980392156862745" d="M 157.5 82 L 156.5 84 L 155 83.5 L 157.5 82 Z " /><path fill="rgb(255,255,255)" stroke="rgb(255,255,255)" strokeWidth="1" opacity="0.4980392156862745" d="M 40.5 83 L 43 89.5 L 42 89.5 L 40.5 83 Z " /><path fill="rgb(255,255,255)" stroke="rgb(255,255,255)" strokeWidth="1" opacity="0.4980392156862745" d="M 83.5 83 L 81.5 86 L 83.5 83 Z " /><path fill="rgb(255,255,255)" stroke="rgb(255,255,255)" strokeWidth="1" opacity="0.4980392156862745" d="M 378.5 83 L 379 85.5 L 378 85.5 L 378.5 83 Z " /><path fill="rgb(255,255,255)" stroke="rgb(255,255,255)" strokeWidth="1" opacity="0.4980392156862745" d="M 0.5 84 L 1 89.5 L 0 89.5 L 0.5 84 Z " /><path fill="rgb(255,255,255)" stroke="rgb(255,255,255)" strokeWidth="1" opacity="0.4980392156862745" d="M 352.5 85 L 353 86.5 L 346.5 95 L 349 91.5 L 352.5 85 Z " /><path fill="rgb(255,255,255)" stroke="rgb(255,255,255)" strokeWidth="1" opacity="0.4980392156862745" d="M 278.5 86 L 281 86.5 L 278.5 87 L 278.5 86 Z " /><path fill="rgb(255,255,255)" stroke="rgb(255,255,255)" strokeWidth="1" opacity="0.4980392156862745" d="M 80.5 87 L 80 88.5 L 76.5 98 L 76 95.5 L 80.5 87 Z " /><path fill="rgb(255,255,255)" stroke="rgb(255,255,255)" strokeWidth="1" opacity="0.4980392156862745" d="M 214.5 87 L 215 89.5 L 214 89.5 L 214.5 87 Z " /><path fill="rgb(255,255,255)" stroke="rgb(255,255,255)" strokeWidth="1" opacity="0.4980392156862745" d="M 377.5 87 L 378 88.5 L 376.5 91 L 376 89.5 L 377.5 87 Z " /><path fill="rgb(255,255,255)" stroke="rgb(255,255,255)" strokeWidth="1" opacity="0.4980392156862745" d="M 143.5 88 L 147 89.5 L 141.5 90 L 141.5 89 L 143.5 88 Z " /><path fill="rgb(255,255,255)" stroke="rgb(255,255,255)" strokeWidth="1" opacity="0.4980392156862745" d="M 149.5 90 L 153 90.5 L 149.5 91 L 149.5 90 Z " /><path fill="rgb(255,255,255)" stroke="rgb(255,255,255)" strokeWidth="1" opacity="0.4980392156862745" d="M 43.5 91 Q 51.8 112.2 68 125.5 L 56 114.5 Q 47.2 104.4 43.5 91 Z " /><path fill="rgb(255,255,255)" stroke="rgb(255,255,255)" strokeWidth="1" opacity="0.4980392156862745" d="M 157.5 92 L 165.5 96 L 180.5 111 L 187 114.5 L 185.5 115 L 180.5 112 L 165.5 97 L 157.5 93 L 157.5 92 Z " /><path fill="rgb(255,255,255)" stroke="rgb(255,255,255)" strokeWidth="1" opacity="0.4980392156862745" d="M 216.5 94 Q 222 107.5 232.5 116 L 239 120.5 L 237.5 120 L 224 108.5 Q 218.1 102.4 216.5 94 Z " /><path fill="rgb(255,255,255)" stroke="rgb(255,255,255)" strokeWidth="1" opacity="0.4980392156862745" d="M 311.5 96 L 312 97.5 L 309.5 101 L 310 99.5 L 311.5 96 Z " /><path fill="rgb(255,255,255)" stroke="rgb(255,255,255)" strokeWidth="1" opacity="0.4980392156862745" d="M 345.5 96 L 340.5 102 L 335.5 106 L 339.5 101 L 345.5 96 Z " /><path fill="rgb(255,255,255)" stroke="rgb(255,255,255)" strokeWidth="1" opacity="0.4980392156862745" d="M 373.5 97 L 374 98.5 L 372.5 101 L 372 99.5 L 373.5 97 Z " /><path fill="rgb(255,255,255)" stroke="rgb(255,255,255)" strokeWidth="1" opacity="0.4980392156862745" d="M 75.5 99 L 76 103.5 L 75 103.5 L 75.5 99 Z " /><path fill="rgb(255,255,255)" stroke="rgb(255,255,255)" strokeWidth="1" opacity="0.4980392156862745" d="M 0.5 100 L 1 104.5 L 0 104.5 L 0.5 100 Z " /><path fill="rgb(255,255,255)" stroke="rgb(255,255,255)" strokeWidth="1" opacity="0.4980392156862745" d="M 308.5 102 L 308 103.5 L 295.5 118 L 287.5 122 L 287.5 121 Q 298.2 117.2 304 108.5 L 308.5 102 Z " /><path fill="rgb(255,255,255)" stroke="rgb(255,255,255)" strokeWidth="1" opacity="0.4980392156862745" d="M 1.5 106 Q 3.3 117.2 9 124.5 L 7 123.5 L 1 109.5 L 1.5 106 Z " /><path fill="rgb(255,255,255)" stroke="rgb(255,255,255)" strokeWidth="1" opacity="0.4980392156862745" d="M 333.5 106 L 331.5 109 L 309.5 121 L 309.5 120 Q 323.3 114.8 333.5 106 Z " /><path fill="rgb(255,255,255)" stroke="rgb(255,255,255)" strokeWidth="1" opacity="0.4980392156862745" d="M 215.5 108 L 216 109.5 L 202.5 117 L 202.5 116 Q 210.6 113.6 215.5 108 Z " /><path fill="rgb(255,255,255)" stroke="rgb(255,255,255)" strokeWidth="1" opacity="0.4980392156862745" d="M 367.5 110 L 367 111.5 L 362.5 118 L 364 115.5 L 367.5 110 Z " /><path fill="rgb(255,255,255)" stroke="rgb(255,255,255)" strokeWidth="1" opacity="0.4980392156862745" d="M 75.5 112 L 76 115.5 L 75 115.5 L 75.5 112 Z " /><path fill="rgb(255,255,255)" stroke="rgb(255,255,255)" strokeWidth="1" opacity="0.4980392156862745" d="M 213.5 112 L 212 114.5 L 197.5 131 L 207 120.5 L 213.5 112 Z " /><path fill="rgb(255,255,255)" stroke="rgb(255,255,255)" strokeWidth="1" opacity="0.4980392156862745" d="M 191.5 116 L 195 116.5 L 191.5 117 L 191.5 116 Z " /><path fill="rgb(255,255,255)" stroke="rgb(255,255,255)" strokeWidth="1" opacity="0.4980392156862745" d="M 76.5 117 Q 78.3 125.7 84.5 130 L 87 131.5 L 85.5 131 L 79 125.5 L 76 119.5 L 76.5 117 Z " /><path fill="rgb(255,255,255)" stroke="rgb(255,255,255)" strokeWidth="1" opacity="0.4980392156862745" d="M 198.5 117 L 201 117.5 L 198.5 118 L 198.5 117 Z " /><path fill="rgb(255,255,255)" stroke="rgb(255,255,255)" strokeWidth="1" opacity="0.4980392156862745" d="M 361.5 119 L 351.5 130 L 361.5 119 Z " /><path fill="rgb(255,255,255)" stroke="rgb(255,255,255)" strokeWidth="1" opacity="0.4980392156862745" d="M 306.5 121 L 308 121.5 L 299.5 125 L 299.5 124 L 306.5 121 Z " /><path fill="rgb(255,255,255)" stroke="rgb(255,255,255)" strokeWidth="1" opacity="0.4980392156862745" d="M 133.5 122 L 138 122.5 L 133.5 123 L 133.5 122 Z " /><path fill="rgb(255,255,255)" stroke="rgb(255,255,255)" strokeWidth="1" opacity="0.4980392156862745" d="M 284.5 122 L 286 122.5 L 282.5 124 L 282.5 123 L 284.5 122 Z " /><path fill="rgb(255,255,255)" stroke="rgb(255,255,255)" strokeWidth="1" opacity="0.4980392156862745" d="M 127.5 123 L 130 123.5 L 127.5 124 L 127.5 123 Z " /><path fill="rgb(255,255,255)" stroke="rgb(255,255,255)" strokeWidth="1" opacity="0.4980392156862745" d="M 141.5 123 L 144 123.5 L 141.5 124 L 141.5 123 Z " /><path fill="rgb(255,255,255)" stroke="rgb(255,255,255)" strokeWidth="1" opacity="0.4980392156862745" d="M 244.5 123 L 248 124.5 L 246.5 125 L 244.5 123 Z " /><path fill="rgb(255,255,255)" stroke="rgb(255,255,255)" strokeWidth="1" opacity="0.4980392156862745" d="M 145.5 124 L 152 127.5 L 150.5 127 L 145.5 125 L 145.5 124 Z " /><path fill="rgb(255,255,255)" stroke="rgb(255,255,255)" strokeWidth="1" opacity="0.4980392156862745" d="M 278.5 124 L 281 124.5 L 278.5 125 L 278.5 124 Z " /><path fill="rgb(255,255,255)" stroke="rgb(255,255,255)" strokeWidth="1" opacity="0.4980392156862745" d="M 121.5 125 L 123 125.5 L 118.5 128 L 119.5 126 L 121.5 125 Z " /><path fill="rgb(255,255,255)" stroke="rgb(255,255,255)" strokeWidth="1" opacity="0.4980392156862745" d="M 249.5 125 L 252 125.5 L 249.5 126 L 249.5 125 Z " /><path fill="rgb(255,255,255)" stroke="rgb(255,255,255)" strokeWidth="1" opacity="0.4980392156862745" d="M 274.5 125 L 277 125.5 L 274.5 126 L 274.5 125 Z " /><path fill="rgb(255,255,255)" stroke="rgb(255,255,255)" strokeWidth="1" opacity="0.4980392156862745" d="M 9.5 126 L 14 131.5 L 10 128.5 L 9.5 126 Z " /><path fill="rgb(255,255,255)" stroke="rgb(255,255,255)" strokeWidth="1" opacity="0.4980392156862745" d="M 69.5 126 L 76 131.5 L 73.5 130 L 69.5 126 Z " /><path fill="rgb(255,255,255)" stroke="rgb(255,255,255)" strokeWidth="1" opacity="0.4980392156862745" d="M 254.5 126 L 258 126.5 L 254.5 127 L 254.5 126 Z " /><path fill="rgb(255,255,255)" stroke="rgb(255,255,255)" strokeWidth="1" opacity="0.4980392156862745" d="M 267.5 126 L 273 126.5 L 267.5 127 L 267.5 126 Z " /><path fill="rgb(255,255,255)" stroke="rgb(255,255,255)" strokeWidth="1" opacity="0.4980392156862745" d="M 143.5 127 Q 145.8 126.3 145 128.5 L 146 132.5 L 145 132.5 Q 145.8 128.8 143.5 128 L 133.5 137 L 135.5 134 L 143.5 127 Z " /><path fill="rgb(255,255,255)" stroke="rgb(255,255,255)" strokeWidth="1" opacity="0.4980392156862745" d="M 289.5 127 L 292 127.5 L 289.5 128 L 289.5 127 Z " /><path fill="rgb(255,255,255)" stroke="rgb(255,255,255)" strokeWidth="1" opacity="0.4980392156862745" d="M 116.5 128 L 114.5 131 L 106.5 135 L 106.5 134 L 116.5 128 Z " /><path fill="rgb(255,255,255)" stroke="rgb(255,255,255)" strokeWidth="1" opacity="0.4980392156862745" d="M 153.5 128 L 165 136.5 L 163.5 136 Q 155.8 133.1 153.5 128 Z " /><path fill="rgb(255,255,255)" stroke="rgb(255,255,255)" strokeWidth="1" opacity="0.4980392156862745" d="M 237.5 128 L 245 128.5 L 237.5 129 L 237.5 128 Z " /><path fill="rgb(255,255,255)" stroke="rgb(255,255,255)" strokeWidth="1" opacity="0.4980392156862745" d="M 285.5 128 L 288 128.5 L 285.5 129 L 285.5 128 Z " /><path fill="rgb(255,255,255)" stroke="rgb(255,255,255)" strokeWidth="1" opacity="0.4980392156862745" d="M 230.5 129 L 234 129.5 Q 213.4 133.9 203 148.5 L 198.5 157 L 198 155.5 Q 203.1 144.6 212.5 138 L 230.5 129 Z " /><path fill="rgb(255,255,255)" stroke="rgb(255,255,255)" strokeWidth="1" opacity="0.4980392156862745" d="M 247.5 129 L 254 129.5 L 247.5 130 L 247.5 129 Z " /><path fill="rgb(255,255,255)" stroke="rgb(255,255,255)" strokeWidth="1" opacity="0.4980392156862745" d="M 280.5 129 L 284 129.5 L 280.5 130 L 280.5 129 Z " /><path fill="rgb(255,255,255)" stroke="rgb(255,255,255)" strokeWidth="1" opacity="0.4980392156862745" d="M 256.5 130 L 264 130.5 L 256.5 131 L 256.5 130 Z " /><path fill="rgb(255,255,255)" stroke="rgb(255,255,255)" strokeWidth="1" opacity="0.4980392156862745" d="M 272.5 130 L 279 130.5 L 272.5 131 L 272.5 130 Z " /><path fill="rgb(255,255,255)" stroke="rgb(255,255,255)" strokeWidth="1" opacity="0.4980392156862745" d="M 349.5 130 L 346.5 134 L 343.5 136 L 345.5 133 L 349.5 130 Z " /><path fill="rgb(255,255,255)" stroke="rgb(255,255,255)" strokeWidth="1" opacity="0.4980392156862745" d="M 195.5 131 L 193.5 134 L 187.5 137 L 187.5 136 L 195.5 131 Z " /><path fill="rgb(255,255,255)" stroke="rgb(255,255,255)" strokeWidth="1" opacity="0.4980392156862745" d="M 77.5 132 L 78.5 134 L 77.5 132 Z " /><path fill="rgb(255,255,255)" stroke="rgb(255,255,255)" strokeWidth="1" opacity="0.4980392156862745" d="M 14.5 133 L 24.5 144 L 14.5 133 Z " /><path fill="rgb(255,255,255)" stroke="rgb(255,255,255)" strokeWidth="1" opacity="0.4980392156862745" d="M 80.5 134 L 84 136.5 L 82.5 136 L 80.5 134 Z " /><path fill="rgb(255,255,255)" stroke="rgb(255,255,255)" strokeWidth="1" opacity="0.4980392156862745" d="M 146.5 134 L 147 140.5 L 146 140.5 L 146.5 134 Z " /><path fill="rgb(255,255,255)" stroke="rgb(255,255,255)" strokeWidth="1" opacity="0.4980392156862745" d="M 95.5 135 L 99 135.5 L 95.5 136 L 95.5 135 Z " /><path fill="rgb(255,255,255)" stroke="rgb(255,255,255)" strokeWidth="1" opacity="0.4980392156862745" d="M 101.5 135 L 105 135.5 L 101.5 136 L 101.5 135 Z " /><path fill="rgb(255,255,255)" stroke="rgb(255,255,255)" strokeWidth="1" opacity="0.4980392156862745" d="M 341.5 136 L 340.5 138 L 341.5 136 Z " /><path fill="rgb(255,255,255)" stroke="rgb(255,255,255)" strokeWidth="1" opacity="0.4980392156862745" d="M 131.5 137 L 130.5 139 L 119.5 143 L 119.5 142 Q 127.2 141.2 131.5 137 Z " /><path fill="rgb(255,255,255)" stroke="rgb(255,255,255)" strokeWidth="1" opacity="0.4980392156862745" d="M 180.5 138 L 183 138.5 L 180.5 139 L 180.5 138 Z " /><path fill="rgb(255,255,255)" stroke="rgb(255,255,255)" strokeWidth="1" opacity="0.4980392156862745" d="M 171.5 139 L 179 139.5 L 171.5 140 L 171.5 139 Z " /><path fill="rgb(255,255,255)" stroke="rgb(255,255,255)" strokeWidth="1" opacity="0.4980392156862745" d="M 91.5 140 L 95 141.5 L 93.5 142 L 91.5 140 Z " /><path fill="rgb(255,255,255)" stroke="rgb(255,255,255)" strokeWidth="1" opacity="0.4980392156862745" d="M 145.5 142 L 146 144.5 L 143.5 148 L 144 146.5 L 145.5 142 Z " /><path fill="rgb(255,255,255)" stroke="rgb(255,255,255)" strokeWidth="1" opacity="0.4980392156862745" d="M 99.5 143 L 103 143.5 L 99.5 144 L 99.5 143 Z " /><path fill="rgb(255,255,255)" stroke="rgb(255,255,255)" strokeWidth="1" opacity="0.4980392156862745" d="M 114.5 143 L 118 143.5 L 114.5 144 L 114.5 143 Z " /><path fill="rgb(255,255,255)" stroke="rgb(255,255,255)" strokeWidth="1" opacity="0.4980392156862745" d="M 323.5 143 L 326 143.5 L 323.5 144 L 323.5 143 Z " /><path fill="rgb(255,255,255)" stroke="rgb(255,255,255)" strokeWidth="1" opacity="0.4980392156862745" d="M 26.5 144 L 38 152.5 L 36.5 152 Q 29 149.3 26.5 144 Z " /><path fill="rgb(255,255,255)" stroke="rgb(255,255,255)" strokeWidth="1" opacity="0.4980392156862745" d="M 104.5 144 L 113 144.5 L 104.5 145 L 104.5 144 Z " /><path fill="rgb(255,255,255)" stroke="rgb(255,255,255)" strokeWidth="1" opacity="0.4980392156862745" d="M 246.5 144 L 253 144.5 L 246.5 145 L 246.5 144 Z " /><path fill="rgb(255,255,255)" stroke="rgb(255,255,255)" strokeWidth="1" opacity="0.4980392156862745" d="M 263.5 144 L 269 144.5 L 263.5 145 L 263.5 144 Z " /><path fill="rgb(255,255,255)" stroke="rgb(255,255,255)" strokeWidth="1" opacity="0.4980392156862745" d="M 317.5 144 L 321 144.5 L 317.5 145 L 317.5 144 Z " /><path fill="rgb(255,255,255)" stroke="rgb(255,255,255)" strokeWidth="1" opacity="0.4980392156862745" d="M 241.5 145 L 244 145.5 L 241.5 146 L 241.5 145 Z " /><path fill="rgb(255,255,255)" stroke="rgb(255,255,255)" strokeWidth="1" opacity="0.4980392156862745" d="M 272.5 145 L 275 145.5 L 272.5 146 L 272.5 145 Z " /><path fill="rgb(255,255,255)" stroke="rgb(255,255,255)" strokeWidth="1" opacity="0.4980392156862745" d="M 310.5 145 L 316 145.5 L 310.5 146 L 310.5 145 Z " /><path fill="rgb(255,255,255)" stroke="rgb(255,255,255)" strokeWidth="1" opacity="0.4980392156862745" d="M 237.5 146 L 240 146.5 L 237.5 147 L 237.5 146 Z " /><path fill="rgb(255,255,255)" stroke="rgb(255,255,255)" strokeWidth="1" opacity="0.4980392156862745" d="M 276.5 146 L 284 146.5 L 276.5 147 L 276.5 146 Z " /><path fill="rgb(255,255,255)" stroke="rgb(255,255,255)" strokeWidth="1" opacity="0.4980392156862745" d="M 296.5 146 L 307 146.5 L 296.5 147 L 296.5 146 Z " /><path fill="rgb(255,255,255)" stroke="rgb(255,255,255)" strokeWidth="1" opacity="0.4980392156862745" d="M 231.5 148 L 233 148.5 L 229.5 150 L 229.5 149 L 231.5 148 Z " /><path fill="rgb(255,255,255)" stroke="rgb(255,255,255)" strokeWidth="1" opacity="0.4980392156862745" d="M 142.5 149 L 139.5 153 L 137.5 154 L 138.5 152 L 142.5 149 Z " /><path fill="rgb(255,255,255)" stroke="rgb(255,255,255)" strokeWidth="1" opacity="0.4980392156862745" d="M 223.5 152 L 222.5 154 L 223.5 152 Z " /><path fill="rgb(255,255,255)" stroke="rgb(255,255,255)" strokeWidth="1" opacity="0.4980392156862745" d="M 39.5 153 L 52 159.5 L 50.5 160 L 40.5 155 L 39.5 153 Z " /><path fill="rgb(255,255,255)" stroke="rgb(255,255,255)" strokeWidth="1" opacity="0.4980392156862745" d="M 220.5 154 L 219.5 156 L 220.5 154 Z " /><path fill="rgb(255,255,255)" stroke="rgb(255,255,255)" strokeWidth="1" opacity="0.4980392156862745" d="M 241.5 155 L 250 155.5 L 241.5 156 L 241.5 155 Z " /><path fill="rgb(255,255,255)" stroke="rgb(255,255,255)" strokeWidth="1" opacity="0.4980392156862745" d="M 129.5 156 L 131 156.5 L 127.5 158 L 127.5 157 L 129.5 156 Z " /><path fill="rgb(255,255,255)" stroke="rgb(255,255,255)" strokeWidth="1" opacity="0.4980392156862745" d="M 217.5 156 L 208.5 166 L 217.5 156 Z " /><path fill="rgb(255,255,255)" stroke="rgb(255,255,255)" strokeWidth="1" opacity="0.4980392156862745" d="M 236.5 156 L 239 156.5 Q 231.2 157.7 227 162.5 L 226.5 164 L 226 162.5 L 236.5 156 Z " /><path fill="rgb(255,255,255)" stroke="rgb(255,255,255)" strokeWidth="1" opacity="0.4980392156862745" d="M 251.5 156 L 255 156.5 L 251.5 157 L 251.5 156 Z " /><path fill="rgb(255,255,255)" stroke="rgb(255,255,255)" strokeWidth="1" opacity="0.4980392156862745" d="M 293.5 158 L 312 158.5 L 293.5 159 L 293.5 158 Z " /><path fill="rgb(255,255,255)" stroke="rgb(255,255,255)" strokeWidth="1" opacity="0.4980392156862745" d="M 134.5 159 L 137 159.5 L 134.5 160 L 134.5 159 Z " /><path fill="rgb(255,255,255)" stroke="rgb(255,255,255)" strokeWidth="1" opacity="0.4980392156862745" d="M 261.5 159 Q 265.8 159.8 265 165.5 L 264 165.5 L 264 162.5 L 261.5 159 Z " /><path fill="rgb(255,255,255)" stroke="rgb(255,255,255)" strokeWidth="1" opacity="0.4980392156862745" d="M 287.5 159 L 291 159.5 Q 274 162.5 265.5 174 L 272.5 166 L 287.5 159 Z " /><path fill="rgb(255,255,255)" stroke="rgb(255,255,255)" strokeWidth="1" opacity="0.4980392156862745" d="M 314.5 159 Q 321 160.5 324 165.5 L 319.5 162 L 314.5 160 L 314.5 159 Z " /><path fill="rgb(255,255,255)" stroke="rgb(255,255,255)" strokeWidth="1" opacity="0.4980392156862745" d="M 138.5 160 L 141 160.5 L 138.5 161 L 138.5 160 Z " /><path fill="rgb(255,255,255)" stroke="rgb(255,255,255)" strokeWidth="1" opacity="0.4980392156862745" d="M 142.5 161 L 146 161.5 L 142.5 162 L 142.5 161 Z " /><path fill="rgb(255,255,255)" stroke="rgb(255,255,255)" strokeWidth="1" opacity="0.4980392156862745" d="M 196.5 161 L 197 166.5 L 196 166.5 L 196.5 161 Z " /><path fill="rgb(255,255,255)" stroke="rgb(255,255,255)" strokeWidth="1" opacity="0.4980392156862745" d="M 147.5 162 L 153 162.5 L 147.5 163 L 147.5 162 Z " /><path fill="rgb(255,255,255)" stroke="rgb(255,255,255)" strokeWidth="1" opacity="0.4980392156862745" d="M 62.5 163 L 65 163.5 L 62.5 164 L 62.5 163 Z " /><path fill="rgb(255,255,255)" stroke="rgb(255,255,255)" strokeWidth="1" opacity="0.4980392156862745" d="M 163.5 163 L 169 163.5 L 163.5 164 L 163.5 163 Z " /><path fill="rgb(255,255,255)" stroke="rgb(255,255,255)" strokeWidth="1" opacity="0.4980392156862745" d="M 66.5 164 L 71 164.5 L 66.5 165 L 66.5 164 Z " /><path fill="rgb(255,255,255)" stroke="rgb(255,255,255)" strokeWidth="1" opacity="0.4980392156862745" d="M 76.5 164 L 91 164.5 L 76.5 165 L 76.5 164 Z " /><path fill="rgb(255,255,255)" stroke="rgb(255,255,255)" strokeWidth="1" opacity="0.4980392156862745" d="M 170.5 164 L 173 164.5 L 170.5 165 L 170.5 164 Z " /><path fill="rgb(255,255,255)" stroke="rgb(255,255,255)" strokeWidth="1" opacity="0.4980392156862745" d="M 93.5 165 L 97 165.5 L 93.5 166 L 93.5 165 Z " /><path fill="rgb(255,255,255)" stroke="rgb(255,255,255)" strokeWidth="1" opacity="0.4980392156862745" d="M 225.5 165 L 226 178.5 L 225 178.5 L 225.5 165 Z " /><path fill="rgb(255,255,255)" stroke="rgb(255,255,255)" strokeWidth="1" opacity="0.4980392156862745" d="M 99.5 166 L 102 166.5 L 99.5 167 L 99.5 166 Z " /><path fill="rgb(255,255,255)" stroke="rgb(255,255,255)" strokeWidth="1" opacity="0.4980392156862745" d="M 177.5 166 L 181 167.5 L 179.5 168 L 177.5 166 Z " /><path fill="rgb(255,255,255)" stroke="rgb(255,255,255)" strokeWidth="1" opacity="0.4980392156862745" d="M 103.5 167 L 106 167.5 L 103.5 168 L 103.5 167 Z " /><path fill="rgb(255,255,255)" stroke="rgb(255,255,255)" strokeWidth="1" opacity="0.4980392156862745" d="M 207.5 167 L 206 169.5 L 204.5 172 L 205 170.5 L 207.5 167 Z " /><path fill="rgb(255,255,255)" stroke="rgb(255,255,255)" strokeWidth="1" opacity="0.4980392156862745" d="M 324.5 167 Q 329 171 329 179.5 L 328 179.5 L 328 175.5 L 324.5 167 Z " /><path fill="rgb(255,255,255)" stroke="rgb(255,255,255)" strokeWidth="1" opacity="0.4980392156862745" d="M 107.5 168 L 110 168.5 L 107.5 169 L 107.5 168 Z " /><path fill="rgb(255,255,255)" stroke="rgb(255,255,255)" strokeWidth="1" opacity="0.4980392156862745" d="M 263.5 168 L 264 170.5 L 263 170.5 L 263.5 168 Z " /><path fill="rgb(255,255,255)" stroke="rgb(255,255,255)" strokeWidth="1" opacity="0.4980392156862745" d="M 184.5 169 L 185.5 171 L 184.5 169 Z " /><path fill="rgb(255,255,255)" stroke="rgb(255,255,255)" strokeWidth="1" opacity="0.4980392156862745" d="M 196.5 170 L 197 174.5 L 196 174.5 L 196.5 170 Z " /><path fill="rgb(255,255,255)" stroke="rgb(255,255,255)" strokeWidth="1" opacity="0.4980392156862745" d="M 187.5 171 L 190.5 175 L 187.5 171 Z " /><path fill="rgb(255,255,255)" stroke="rgb(255,255,255)" strokeWidth="1" opacity="0.4980392156862745" d="M 66.5 172 L 72 176.5 L 69.5 175 Q 66.9 174.2 68 177.5 Q 72.3 190.7 82.5 198 L 88 201.5 L 86.5 201 Q 77.7 197.3 73 189.5 Q 68.1 184.4 67 175.5 L 67.5 174 Q 64.7 174.7 66.5 172 Z " /><path fill="rgb(255,255,255)" stroke="rgb(255,255,255)" strokeWidth="1" opacity="0.4980392156862745" d="M 119.5 172 L 125 175.5 L 123.5 175 Q 119.5 174.5 119.5 172 Z " /><path fill="rgb(255,255,255)" stroke="rgb(255,255,255)" strokeWidth="1" opacity="0.4980392156862745" d="M 203.5 173 L 203 174.5 L 201.5 178 L 201 176.5 L 203.5 173 Z " /><path fill="rgb(255,255,255)" stroke="rgb(255,255,255)" strokeWidth="1" opacity="0.4980392156862745" d="M 262.5 173 L 263.5 176 L 265 175.5 Q 263.5 178.5 262 175.5 L 262.5 173 Z " /><path fill="rgb(255,255,255)" stroke="rgb(255,255,255)" strokeWidth="1" opacity="0.4980392156862745" d="M 126.5 176 L 130 178.5 L 128.5 178 L 126.5 176 Z " /><path fill="rgb(255,255,255)" stroke="rgb(255,255,255)" strokeWidth="1" opacity="0.4980392156862745" d="M 191.5 176 Q 201.2 185.3 205 200.5 L 204 200.5 Q 199.6 185.3 191.5 176 Z " /><path fill="rgb(255,255,255)" stroke="rgb(255,255,255)" strokeWidth="1" opacity="0.4980392156862745" d="M 197.5 176 L 200 181.5 L 198 180.5 L 197.5 176 Z " /><path fill="rgb(255,255,255)" stroke="rgb(255,255,255)" strokeWidth="1" opacity="0.4980392156862745" d="M 95.5 177 L 110 177.5 L 95.5 178 L 95.5 177 Z " /><path fill="rgb(255,255,255)" stroke="rgb(255,255,255)" strokeWidth="1" opacity="0.4980392156862745" d="M 75.5 178 L 85 179.5 L 77.5 180 L 75.5 178 Z " /><path fill="rgb(255,255,255)" stroke="rgb(255,255,255)" strokeWidth="1" opacity="0.4980392156862745" d="M 86.5 178 L 92 178.5 L 86.5 179 L 86.5 178 Z " /><path fill="rgb(255,255,255)" stroke="rgb(255,255,255)" strokeWidth="1" opacity="0.4980392156862745" d="M 113.5 178 L 118 178.5 L 113.5 179 L 113.5 178 Z " /><path fill="rgb(255,255,255)" stroke="rgb(255,255,255)" strokeWidth="1" opacity="0.4980392156862745" d="M 261 178 L 263 178.5 L 261.5 181 L 261 178 Z " /><path fill="rgb(255,255,255)" stroke="rgb(255,255,255)" strokeWidth="1" opacity="0.4980392156862745" d="M 119.5 179 Q 128.9 180.2 134 185.5 L 132.5 185 L 119.5 180 L 119.5 179 Z " /><path fill="rgb(255,255,255)" stroke="rgb(255,255,255)" strokeWidth="1" opacity="0.4980392156862745" d="M 131.5 179 L 135 181.5 L 133.5 181 L 131.5 179 Z " /><path fill="rgb(255,255,255)" stroke="rgb(255,255,255)" strokeWidth="1" opacity="0.4980392156862745" d="M 226.5 181 L 227 184.5 L 226 184.5 L 226.5 181 Z " /><path fill="rgb(255,255,255)" stroke="rgb(255,255,255)" strokeWidth="1" opacity="0.4980392156862745" d="M 136.5 182 L 137.5 184 L 136.5 182 Z " /><path fill="rgb(255,255,255)" stroke="rgb(255,255,255)" strokeWidth="1" opacity="0.4980392156862745" d="M 328.5 182 L 329 186.5 L 328 186.5 L 328.5 182 Z " /><path fill="rgb(255,255,255)" stroke="rgb(255,255,255)" strokeWidth="1" opacity="0.4980392156862745" d="M 139.5 184 L 140.5 186 L 139.5 184 Z " /><path fill="rgb(255,255,255)" stroke="rgb(255,255,255)" strokeWidth="1" opacity="0.4980392156862745" d="M 135.5 186 L 136.5 188 L 135.5 186 Z " /><path fill="rgb(255,255,255)" stroke="rgb(255,255,255)" strokeWidth="1" opacity="0.4980392156862745" d="M 142.5 186 L 148 190.5 L 145.5 189 L 142.5 186 Z " /><path fill="rgb(255,255,255)" stroke="rgb(255,255,255)" strokeWidth="1" opacity="0.4980392156862745" d="M 227.5 186 L 228 189.5 L 227 189.5 L 227.5 186 Z " /><path fill="rgb(255,255,255)" stroke="rgb(255,255,255)" strokeWidth="1" opacity="0.4980392156862745" d="M 273.5 186 L 280 186.5 L 273.5 187 L 273.5 186 Z " /><path fill="rgb(255,255,255)" stroke="rgb(255,255,255)" strokeWidth="1" opacity="0.4980392156862745" d="M 270.5 187 L 272 187.5 L 264.5 193 L 268.5 188 L 270.5 187 Z " /><path fill="rgb(255,255,255)" stroke="rgb(255,255,255)" strokeWidth="1" opacity="0.4980392156862745" d="M 138.5 188 Q 148.8 194.2 151 208.5 L 150 208.5 L 147 198.5 L 138.5 188 Z " /><path fill="rgb(255,255,255)" stroke="rgb(255,255,255)" strokeWidth="1" opacity="0.4980392156862745" d="M 284.5 188 L 287 192.5 L 286 192.5 L 284.5 188 Z " /><path fill="rgb(255,255,255)" stroke="rgb(255,255,255)" strokeWidth="1" opacity="0.4980392156862745" d="M 327.5 188 L 328 190.5 L 327 190.5 L 327.5 188 Z " /><path fill="rgb(255,255,255)" stroke="rgb(255,255,255)" strokeWidth="1" opacity="0.4980392156862745" d="M 149.5 191 L 168 208.5 L 153.5 195 L 149.5 191 Z " /><path fill="rgb(255,255,255)" stroke="rgb(255,255,255)" strokeWidth="1" opacity="0.4980392156862745" d="M 228.5 191 L 229 193.5 L 228 193.5 L 228.5 191 Z " /><path fill="rgb(255,255,255)" stroke="rgb(255,255,255)" strokeWidth="1" opacity="0.4980392156862745" d="M 326.5 192 L 327 193.5 L 325.5 196 L 325 194.5 L 326.5 192 Z " /><path fill="rgb(255,255,255)" stroke="rgb(255,255,255)" strokeWidth="1" opacity="0.4980392156862745" d="M 229.5 195 L 231 200.5 L 230 200.5 L 229.5 195 Z " /><path fill="rgb(255,255,255)" stroke="rgb(255,255,255)" strokeWidth="1" opacity="0.4980392156862745" d="M 262.5 197 L 263 200.5 L 262 200.5 L 262.5 197 Z " /><path fill="rgb(255,255,255)" stroke="rgb(255,255,255)" strokeWidth="1" opacity="0.4980392156862745" d="M 286.5 199 L 287 201.5 L 280.5 214 L 280 212.5 L 286.5 199 Z " /><path fill="rgb(255,255,255)" stroke="rgb(255,255,255)" strokeWidth="1" opacity="0.4980392156862745" d="M 322.5 201 L 322 202.5 L 319.5 206 L 321 203.5 L 322.5 201 Z " /><path fill="rgb(255,255,255)" stroke="rgb(255,255,255)" strokeWidth="1" opacity="0.4980392156862745" d="M 205.5 202 L 206 204.5 L 205 204.5 L 205.5 202 Z " /><path fill="rgb(255,255,255)" stroke="rgb(255,255,255)" strokeWidth="1" opacity="0.4980392156862745" d="M 261.5 204 L 262 207.5 L 261 207.5 L 261.5 204 Z " /><path fill="rgb(255,255,255)" stroke="rgb(255,255,255)" strokeWidth="1" opacity="0.4980392156862745" d="M 232.5 205 Q 246.1 243.4 274.5 267 L 278.5 270 L 279 268.5 L 276 261.5 L 277 261.5 L 281 272 L 274.5 268 L 258 251.5 L 242 229.5 L 233 210.5 L 232.5 205 Z " /><path fill="rgb(255,255,255)" stroke="rgb(255,255,255)" strokeWidth="1" opacity="0.4980392156862745" d="M 206.5 207 L 207 217.5 L 206 217.5 L 206.5 207 Z " /><path fill="rgb(255,255,255)" stroke="rgb(255,255,255)" strokeWidth="1" opacity="0.4980392156862745" d="M 318.5 207 L 309.5 217 L 297.5 227 L 301.5 222 L 318.5 207 Z " /><path fill="rgb(255,255,255)" stroke="rgb(255,255,255)" strokeWidth="1" opacity="0.4980392156862745" d="M 104.5 208 L 107 208.5 L 104.5 209 L 104.5 208 Z " /><path fill="rgb(255,255,255)" stroke="rgb(255,255,255)" strokeWidth="1" opacity="0.4980392156862745" d="M 109.5 209 L 113 209.5 L 109.5 210 L 109.5 209 Z " /><path fill="rgb(255,255,255)" stroke="rgb(255,255,255)" strokeWidth="1" opacity="0.4980392156862745" d="M 116.5 210 L 128 210.5 L 116.5 211 L 116.5 210 Z " /><path fill="rgb(255,255,255)" stroke="rgb(255,255,255)" strokeWidth="1" opacity="0.4980392156862745" d="M 168.5 210 L 172 216.5 L 171 216.5 L 168.5 210 Z " /><path fill="rgb(255,255,255)" stroke="rgb(255,255,255)" strokeWidth="1" opacity="0.4980392156862745" d="M 129.5 211 L 133 213.5 Q 135.3 216.7 134 223.5 Q 128.1 232.1 114.5 233 L 114.5 232 L 126.5 229 L 133 223.5 Q 134.7 214.8 130.5 212 L 129.5 211 Z " /><path fill="rgb(255,255,255)" stroke="rgb(255,255,255)" strokeWidth="1" opacity="0.4980392156862745" d="M 262.5 212 L 263 217.5 L 262 217.5 L 262.5 212 Z " /><path fill="rgb(255,255,255)" stroke="rgb(255,255,255)" strokeWidth="1" opacity="0.4980392156862745" d="M 333.5 213 L 334 216.5 L 332 216.5 L 331 219.5 L 322.5 228 L 314.5 232 L 314.5 231 Q 324.5 227.5 330 219.5 L 333.5 213 Z " /><path fill="rgb(255,255,255)" stroke="rgb(255,255,255)" strokeWidth="1" opacity="0.4980392156862745" d="M 279.5 215 L 280 217.5 L 278.5 222 L 278 218.5 L 279.5 215 Z " /><path fill="rgb(255,255,255)" stroke="rgb(255,255,255)" strokeWidth="1" opacity="0.4980392156862745" d="M 150.5 216 L 151 219.5 L 150 219.5 L 150.5 216 Z " /><path fill="rgb(255,255,255)" stroke="rgb(255,255,255)" strokeWidth="1" opacity="0.4980392156862745" d="M 172.5 218 L 173 225.5 L 172 225.5 L 172.5 218 Z " /><path fill="rgb(255,255,255)" stroke="rgb(255,255,255)" strokeWidth="1" opacity="0.4980392156862745" d="M 205.5 220 L 206 222.5 L 205 222.5 L 205.5 220 Z " /><path fill="rgb(255,255,255)" stroke="rgb(255,255,255)" strokeWidth="1" opacity="0.4980392156862745" d="M 332.5 220 L 333 223.5 L 332 223.5 L 332.5 220 Z " /><path fill="rgb(255,255,255)" stroke="rgb(255,255,255)" strokeWidth="1" opacity="0.4980392156862745" d="M 263.5 221 L 264 226.5 L 263 226.5 L 263.5 221 Z " /><path fill="rgb(255,255,255)" stroke="rgb(255,255,255)" strokeWidth="1" opacity="0.4980392156862745" d="M 277.5 223 L 278 227.5 L 277 227.5 L 277.5 223 Z " /><path fill="rgb(255,255,255)" stroke="rgb(255,255,255)" strokeWidth="1" opacity="0.4980392156862745" d="M 148.5 224 L 149 225.5 L 146.5 229 L 147 227.5 L 148.5 224 Z " /><path fill="rgb(255,255,255)" stroke="rgb(255,255,255)" strokeWidth="1" opacity="0.4980392156862745" d="M 204.5 224 L 205 225.5 L 203.5 228 L 203 226.5 L 204.5 224 Z " /><path fill="rgb(255,255,255)" stroke="rgb(255,255,255)" strokeWidth="1" opacity="0.4980392156862745" d="M 264.5 228 L 265 230.5 L 264 230.5 L 264.5 228 Z " /><path fill="rgb(255,255,255)" stroke="rgb(255,255,255)" strokeWidth="1" opacity="0.4980392156862745" d="M 296.5 228 L 294 231.5 L 294.5 233 L 309.5 233 L 309.5 234 L 292 233.5 L 296.5 228 Z " /><path fill="rgb(255,255,255)" stroke="rgb(255,255,255)" strokeWidth="1" opacity="0.4980392156862745" d="M 276.5 229 L 277 241.5 L 276 241.5 L 276.5 229 Z " /><path fill="rgb(255,255,255)" stroke="rgb(255,255,255)" strokeWidth="1" opacity="0.4980392156862745" d="M 145.5 230 L 144 232.5 L 136.5 241 L 130.5 246 L 135.5 240 L 143 233.5 L 145.5 230 Z " /><path fill="rgb(255,255,255)" stroke="rgb(255,255,255)" strokeWidth="1" opacity="0.4980392156862745" d="M 201.5 231 L 200.5 233 L 201.5 231 Z " /><path fill="rgb(255,255,255)" stroke="rgb(255,255,255)" strokeWidth="1" opacity="0.4980392156862745" d="M 110.5 233 L 113 233.5 L 107.5 235 L 107.5 234 L 110.5 233 Z " /><path fill="rgb(255,255,255)" stroke="rgb(255,255,255)" strokeWidth="1" opacity="0.4980392156862745" d="M 172.5 233 L 173 240.5 L 172 240.5 L 172.5 233 Z " /><path fill="rgb(255,255,255)" stroke="rgb(255,255,255)" strokeWidth="1" opacity="0.4980392156862745" d="M 199.5 234 L 197 237.5 L 193.5 242 L 183.5 249 L 184.5 247 L 196 238.5 L 199.5 234 Z " /><path fill="rgb(255,255,255)" stroke="rgb(255,255,255)" strokeWidth="1" opacity="0.4980392156862745" d="M 103.5 235 L 106 235.5 Q 93 237.5 87 246.5 L 79.5 261 L 79 259.5 Q 83.6 246.6 93.5 239 L 103.5 235 Z " /><path fill="rgb(255,255,255)" stroke="rgb(255,255,255)" strokeWidth="1" opacity="0.4980392156862745" d="M 327.5 235 L 327 236.5 L 320.5 244 L 326 237.5 L 327.5 235 Z " /><path fill="rgb(255,255,255)" stroke="rgb(255,255,255)" strokeWidth="1" opacity="0.4980392156862745" d="M 267.5 238 L 270 244.5 L 269 244.5 L 267.5 238 Z " /><path fill="rgb(255,255,255)" stroke="rgb(255,255,255)" strokeWidth="1" opacity="0.4980392156862745" d="M 171.5 242 L 172 245.5 L 170.5 248 L 170 246.5 L 171.5 242 Z " /><path fill="rgb(255,255,255)" stroke="rgb(255,255,255)" strokeWidth="1" opacity="0.4980392156862745" d="M 277.5 244 L 278 247.5 L 277 247.5 L 277.5 244 Z " /><path fill="rgb(255,255,255)" stroke="rgb(255,255,255)" strokeWidth="1" opacity="0.4980392156862745" d="M 318.5 244 L 317.5 246 L 316 245.5 L 318.5 244 Z " /><path fill="rgb(255,255,255)" stroke="rgb(255,255,255)" strokeWidth="1" opacity="0.4980392156862745" d="M 270.5 246 L 272 249.5 L 271 249.5 L 270.5 246 Z " /><path fill="rgb(255,255,255)" stroke="rgb(255,255,255)" strokeWidth="1" opacity="0.4980392156862745" d="M 312.5 246 L 315 246.5 L 312.5 247 L 312.5 246 Z " /><path fill="rgb(255,255,255)" stroke="rgb(255,255,255)" strokeWidth="1" opacity="0.4980392156862745" d="M 129.5 247 L 129 248.5 L 127.5 252 L 127 250.5 L 129.5 247 Z " /><path fill="rgb(255,255,255)" stroke="rgb(255,255,255)" strokeWidth="1" opacity="0.4980392156862745" d="M 297.5 247 L 299 247.5 L 290 255.5 L 288.5 258 L 289 256.5 L 297.5 247 Z " /><path fill="rgb(255,255,255)" stroke="rgb(255,255,255)" strokeWidth="1" opacity="0.4980392156862745" d="M 169.5 249 L 170 250.5 L 168 251.5 L 169.5 249 Z " /><path fill="rgb(255,255,255)" stroke="rgb(255,255,255)" strokeWidth="1" opacity="0.4980392156862745" d="M 181.5 249 L 180.5 251 L 175.5 253 L 175.5 252 L 181.5 249 Z " /><path fill="rgb(255,255,255)" stroke="rgb(255,255,255)" strokeWidth="1" opacity="0.4980392156862745" d="M 278.5 249 L 279 251.5 L 278 251.5 L 278.5 249 Z " /><path fill="rgb(255,255,255)" stroke="rgb(255,255,255)" strokeWidth="1" opacity="0.4980392156862745" d="M 272.5 251 L 274 254.5 L 273 254.5 L 272.5 251 Z " /><path fill="rgb(255,255,255)" stroke="rgb(255,255,255)" strokeWidth="1" opacity="0.4980392156862745" d="M 126.5 253 L 127 265.5 L 126 265.5 L 126.5 253 Z " /><path fill="rgb(255,255,255)" stroke="rgb(255,255,255)" strokeWidth="1" opacity="0.4980392156862745" d="M 167.5 253 L 166.5 257 Q 164.3 257.8 165 255.5 L 167.5 253 Z " /><path fill="rgb(255,255,255)" stroke="rgb(255,255,255)" strokeWidth="1" opacity="0.4980392156862745" d="M 229.5 253 L 230 254.5 L 228.5 257 L 227.5 256 L 218.5 265 L 204.5 274 L 205.5 272 Q 220.1 265.1 229.5 253 Z " /><path fill="rgb(255,255,255)" stroke="rgb(255,255,255)" strokeWidth="1" opacity="0.4980392156862745" d="M 279.5 253 L 286 266.5 L 284 265.5 Q 279.5 260 279.5 253 Z " /><path fill="rgb(255,255,255)" stroke="rgb(255,255,255)" strokeWidth="1" opacity="0.4980392156862745" d="M 170.5 254 L 172 254.5 L 168.5 256 L 168.5 255 L 170.5 254 Z " /><path fill="rgb(255,255,255)" stroke="rgb(255,255,255)" strokeWidth="1" opacity="0.4980392156862745" d="M 274.5 256 L 276 259.5 L 275 259.5 L 274.5 256 Z " /><path fill="rgb(255,255,255)" stroke="rgb(255,255,255)" strokeWidth="1" opacity="0.4980392156862745" d="M 227.5 258 L 228 259.5 L 221.5 271 L 222 269.5 L 227.5 258 Z " /><path fill="rgb(255,255,255)" stroke="rgb(255,255,255)" strokeWidth="1" opacity="0.4980392156862745" d="M 78.5 262 L 79 263.5 L 77.5 267 L 77 264.5 L 78.5 262 Z " /><path fill="rgb(255,255,255)" stroke="rgb(255,255,255)" strokeWidth="1" opacity="0.4980392156862745" d="M 127.5 267 L 128 269.5 L 127 269.5 L 127.5 267 Z " /><path fill="rgb(255,255,255)" stroke="rgb(255,255,255)" strokeWidth="1" opacity="0.4980392156862745" d="M 76.5 268 L 77 271.5 L 76 271.5 L 76.5 268 Z " /><path fill="rgb(255,255,255)" stroke="rgb(255,255,255)" strokeWidth="1" opacity="0.4980392156862745" d="M 220.5 272 L 220 273.5 L 218.5 276 L 219 274.5 L 220.5 272 Z " /><path fill="rgb(255,255,255)" stroke="rgb(255,255,255)" strokeWidth="1" opacity="0.4980392156862745" d="M 129.5 273 L 135.5 280 L 129.5 273 Z " /><path fill="rgb(255,255,255)" stroke="rgb(255,255,255)" strokeWidth="1" opacity="0.4980392156862745" d="M 202.5 274 L 201.5 276 L 194.5 279 L 194.5 278 L 202.5 274 Z " /><path fill="rgb(255,255,255)" stroke="rgb(255,255,255)" strokeWidth="1" opacity="0.4980392156862745" d="M 76.5 277 L 79 286.5 L 78 286.5 Q 74.9 282.9 76.5 277 Z " /><path fill="rgb(255,255,255)" stroke="rgb(255,255,255)" strokeWidth="1" opacity="0.4980392156862745" d="M 217.5 277 L 216.5 279 L 217.5 277 Z " /><path fill="rgb(255,255,255)" stroke="rgb(255,255,255)" strokeWidth="1" opacity="0.4980392156862745" d="M 191.5 279 L 193 279.5 L 177.5 285 L 177.5 284 L 191.5 279 Z " /><path fill="rgb(255,255,255)" stroke="rgb(255,255,255)" strokeWidth="1" opacity="0.4980392156862745" d="M 137.5 280 L 142 282.5 L 140.5 283 L 137.5 280 Z " /><path fill="rgb(255,255,255)" stroke="rgb(255,255,255)" strokeWidth="1" opacity="0.4980392156862745" d="M 215.5 280 L 214.5 282 L 215.5 280 Z " /><path fill="rgb(255,255,255)" stroke="rgb(255,255,255)" strokeWidth="1" opacity="0.4980392156862745" d="M 143.5 283 L 148 284.5 L 145.5 285 L 143.5 283 Z " /><path fill="rgb(255,255,255)" stroke="rgb(255,255,255)" strokeWidth="1" opacity="0.4980392156862745" d="M 213.5 283 L 210 287.5 L 204.5 294 L 199.5 298 L 203.5 293 L 209 288.5 L 213.5 283 Z " /><path fill="rgb(255,255,255)" stroke="rgb(255,255,255)" strokeWidth="1" opacity="0.4980392156862745" d="M 172.5 285 L 176 285.5 L 172.5 286 L 172.5 285 Z " /><path fill="rgb(255,255,255)" stroke="rgb(255,255,255)" strokeWidth="1" opacity="0.4980392156862745" d="M 152.5 286 L 156 286.5 L 152.5 287 L 152.5 286 Z " /><path fill="rgb(255,255,255)" stroke="rgb(255,255,255)" strokeWidth="1" opacity="0.4980392156862745" d="M 166.5 286 L 171 286.5 L 166.5 287 L 166.5 286 Z " /><path fill="rgb(255,255,255)" stroke="rgb(255,255,255)" strokeWidth="1" opacity="0.4980392156862745" d="M 159.5 287 L 163 287.5 L 159.5 288 L 159.5 287 Z " /><path fill="rgb(255,255,255)" stroke="rgb(255,255,255)" strokeWidth="1" opacity="0.4980392156862745" d="M 80.5 290 L 87.5 299 Q 94.8 305.8 105 309.5 L 103.5 310 Q 91.8 305.2 84 296.5 L 80.5 290 Z " /><path fill="rgb(255,255,255)" stroke="rgb(255,255,255)" strokeWidth="1" opacity="0.4980392156862745" d="M 197.5 298 L 195.5 301 L 197.5 298 Z " /><path fill="rgb(255,255,255)" stroke="rgb(255,255,255)" strokeWidth="1" opacity="0.4980392156862745" d="M 193.5 301 L 192.5 303 L 193.5 301 Z " /><path fill="rgb(255,255,255)" stroke="rgb(255,255,255)" strokeWidth="1" opacity="0.4980392156862745" d="M 190.5 303 L 189.5 305 L 180.5 309 L 180.5 308 L 190.5 303 Z " /><path fill="rgb(255,255,255)" stroke="rgb(255,255,255)" strokeWidth="1" opacity="0.4980392156862745" d="M 173.5 310 L 176 310.5 L 173.5 311 L 173.5 310 Z " /><path fill="rgb(255,255,255)" stroke="rgb(255,255,255)" strokeWidth="1" opacity="0.4980392156862745" d="M 169.5 311 L 172 311.5 L 169.5 312 L 169.5 311 Z " /><path fill="rgb(255,255,255)" stroke="rgb(255,255,255)" strokeWidth="1" opacity="0.4980392156862745" d="M 112.5 312 L 115 312.5 L 112.5 313 L 112.5 312 Z " /><path fill="rgb(255,255,255)" stroke="rgb(255,255,255)" strokeWidth="1" opacity="0.4980392156862745" d="M 164.5 312 L 168 312.5 L 164.5 313 L 164.5 312 Z " /><path fill="rgb(255,255,255)" stroke="rgb(255,255,255)" strokeWidth="1" opacity="0.4980392156862745" d="M 116.5 313 L 120 313.5 L 116.5 314 L 116.5 313 Z " /><path fill="rgb(255,255,255)" stroke="rgb(255,255,255)" strokeWidth="1" opacity="0.4980392156862745" d="M 156.5 313 L 162 313.5 L 156.5 314 L 156.5 313 Z " /><path fill="rgb(255,255,255)" stroke="rgb(255,255,255)" strokeWidth="1" opacity="0.4980392156862745" d="M 123.5 314 L 131 314.5 L 123.5 315 L 123.5 314 Z " /><path fill="rgb(255,255,255)" stroke="rgb(255,255,255)" strokeWidth="1" opacity="0.4980392156862745" d="M 138.5 314 L 153 314.5 L 138.5 315 L 138.5 314 Z " /><path fill="rgb(255,255,255)" stroke="rgb(255,255,255)" strokeWidth="1" opacity="1" d="M 142.5 0 L 158.5 1 L 171.5 5 Q 182.8 10.2 191 18.5 Q 197.5 24 198 35.5 L 193 49.5 Q 185.6 62.6 174.5 72 Q 160.1 83.1 141 89.5 L 156.5 92 L 165.5 97 L 183.5 114 L 191.5 117 L 200.5 118 L 213.5 111 L 211 114.5 L 196.5 131 L 183.5 138 L 170.5 139 L 146.5 124 L 133.5 122 L 121.5 125 Q 113.2 133.2 99.5 136 Q 86.5 134 80 125.5 Q 74.5 118 75 104.5 Q 77.2 103.3 76 98.5 L 81 86.5 L 90.5 76 Q 107.7 62.2 129.5 53 L 146 39.5 L 152 28.5 L 152 19.5 L 145.5 9 Q 140.2 4 131 4 Q 129.7 0.7 134.5 2 L 142.5 0 Z " /><path fill="rgb(255,255,255)" stroke="rgb(255,255,255)" strokeWidth="1" opacity="1" d="M 236.5 5 Q 264.8 1.7 275 16.5 Q 280.8 22.2 281 33.5 Q 279 44.5 271.5 50 L 257 62.5 L 254 72.5 Q 255.9 81.6 262.5 86 Q 266.8 89.7 276.5 88 L 283.5 86 L 292 77.5 Q 299 67.5 298 49.5 L 295 39.5 L 296.5 40 Q 305.3 43.3 310 50.5 Q 317.9 60.1 317 78.5 Q 312.5 104 295.5 117 Q 282.1 127.1 258.5 127 L 248.5 125 L 239.5 121 L 225 108.5 Q 218.5 101 215 90.5 Q 212.3 82.2 214 69.5 Q 217 54.5 226.5 46 L 246.5 35 L 256 26.5 L 257 18.5 L 250.5 12 L 237.5 7 L 236.5 5 Z " /><path fill="rgb(255,255,255)" stroke="rgb(255,255,255)" strokeWidth="1" opacity="1" d="M 53.5 21 L 55 21.5 Q 44.7 30.2 39 43.5 L 35 57.5 L 35 66.5 Q 39.5 88 49 104.5 Q 56.5 117 67.5 126 Q 78.8 135.8 93.5 142 L 104.5 145 L 112.5 145 Q 133 141.5 143.5 128 Q 147.3 132.3 146 141.5 Q 144.5 148.5 139.5 152 L 127 157.5 L 142.5 162 L 157.5 164 L 162.5 163 L 173.5 165 L 181.5 168 L 191 175.5 L 203 195.5 L 206 205.5 L 206 219.5 Q 202.8 233.3 193.5 241 Q 182.5 251 166.5 256 L 168 253.5 L 173 240.5 L 173 218.5 L 168 208.5 L 153.5 194 Q 136.2 180.3 115.5 170 L 90.5 164 L 76.5 164 L 71.5 165 Q 34.3 157.3 14 132.5 Q 0.5 118 0 90.5 L 4 71.5 L 12 53.5 Q 18.7 42.2 28.5 34 Q 38.6 25.1 53.5 21 Z " /><path fill="rgb(255,255,255)" stroke="rgb(255,255,255)" strokeWidth="1" opacity="1" d="M 366.5 37 Q 378.5 51.5 380 76.5 L 378 86.5 L 368 109.5 Q 361.1 121.7 350.5 130 L 339.5 138 L 326.5 143 L 309.5 146 L 284.5 147 L 268.5 144 L 246.5 144 Q 221 148.5 208 165.5 L 199.5 181 L 197 175.5 L 196 167.5 Q 198.5 166 197 160.5 L 201 151.5 L 212.5 139 L 230.5 130 L 246.5 129 L 256.5 131 L 278.5 131 Q 320.9 122.4 346 96.5 L 352 88.5 L 365 62.5 Q 368.7 54.2 367 40.5 L 366.5 37 Z " /><path fill="rgb(255,255,255)" stroke="rgb(255,255,255)" strokeWidth="1" opacity="1" d="M 239.5 156 L 255.5 157 Q 261.3 158.3 264 162.5 L 264 167.5 L 261 180.5 L 262 180.5 Q 265.3 171.8 272.5 167 Q 280.3 161.3 291.5 159 L 313.5 159 Q 320.3 161.3 324 166.5 Q 328 172.5 329 181.5 L 327 191.5 L 323 200.5 L 309.5 216 L 297 226.5 L 292 233.5 L 309.5 234 Q 323.6 230.1 331 219.5 L 332.5 216 L 333 219.5 L 328 234.5 L 319.5 244 Q 311.9 248.9 297.5 247 L 289 255.5 L 285.5 265 Q 275.3 252.7 277 228.5 L 280 214.5 L 287 201.5 L 287 191.5 L 284.5 188 Q 280.9 185.1 273.5 186 Q 267 187.5 264 192.5 L 262 197.5 L 261 207.5 L 262 208.5 L 262 217.5 L 263 218.5 L 264 230.5 L 280 270.5 L 275.5 267 L 259 251.5 Q 243.2 234.3 234 210.5 L 226 180.5 L 226 164.5 L 228.5 161 L 239.5 156 Z " /><path fill="rgb(255,255,255)" stroke="rgb(255,255,255)" strokeWidth="1" opacity="1" d="M 67.5 174 L 77.5 180 L 84.5 180 Q 95.5 176 112.5 178 Q 134 181.5 145 195.5 Q 151.2 202.3 151 215.5 Q 147.9 231.9 136.5 240 L 130 245.5 Q 124 251.5 126 265.5 Q 128 275.5 135.5 280 L 145.5 285 L 162.5 288 L 179.5 285 L 195.5 279 Q 214.6 270.6 227.5 256 L 228 257.5 Q 219.4 278.4 204.5 293 Q 193.1 304.1 176.5 310 L 155.5 314 L 131.5 315 L 130.5 314 L 120.5 314 L 105.5 310 Q 93.3 305.2 85 296.5 Q 76.7 288.4 76 272.5 Q 80 251.5 93.5 240 L 106.5 235 L 126.5 230 L 134 223.5 Q 135.8 213.8 130.5 211 Q 124.3 208.2 113.5 210 L 94.5 205 Q 81.9 199.6 74 189.5 Q 68.6 182.7 67.5 174 Z " /></svg>