<svg width="339" height="321" viewBox="0 0 339 321" fill="none" xmlns="http://www.w3.org/2000/svg">
<rect x="1.92356" y="1.92356" width="316.746" height="316.746" rx="64.7598" fill="url(#paint0_linear_444_719)" stroke="url(#paint1_linear_444_719)" strokeWidth="3.84712"/>
<mask id="path-2-inside-1_444_719" fill="white">
<path d="M128.863 82.3887C155.294 82.3887 176.72 103.815 176.72 130.245C176.72 151.499 162.863 169.513 143.691 175.755L140.929 180.924C142.095 185.061 142.721 189.425 142.721 193.936C142.72 220.366 121.294 241.791 94.8643 241.791C68.4341 241.791 47.008 220.366 47.0078 193.936C47.0078 184.976 49.4723 176.593 53.7568 169.423L85.3086 110.39C92.8517 93.8696 109.516 82.3887 128.863 82.3887Z"/>
</mask>
<path d="M128.863 82.3887C155.294 82.3887 176.72 103.815 176.72 130.245C176.72 151.499 162.863 169.513 143.691 175.755L140.929 180.924C142.095 185.061 142.721 189.425 142.721 193.936C142.72 220.366 121.294 241.791 94.8643 241.791C68.4341 241.791 47.008 220.366 47.0078 193.936C47.0078 184.976 49.4723 176.593 53.7568 169.423L85.3086 110.39C92.8517 93.8696 109.516 82.3887 128.863 82.3887Z" fill="url(#paint2_linear_444_719)"/>
<path d="M128.863 82.3887V81.7475V82.3887ZM176.72 130.245H177.361H176.72ZM143.691 175.755L143.493 175.145L143.248 175.225L143.126 175.453L143.691 175.755ZM140.929 180.924L140.363 180.622L140.242 180.849L140.312 181.098L140.929 180.924ZM142.721 193.936L143.362 193.936V193.936H142.721ZM94.8643 241.791V242.432H94.8643L94.8643 241.791ZM47.0078 193.936H46.3666V193.936L47.0078 193.936ZM53.7568 169.423L54.3072 169.752L54.3151 169.739L54.3223 169.725L53.7568 169.423ZM85.3086 110.39L85.8741 110.692L85.8835 110.674L85.8919 110.656L85.3086 110.39ZM128.863 82.3887V83.0299C154.939 83.0299 176.079 104.169 176.079 130.245H176.72H177.361C177.361 103.461 155.648 81.7475 128.863 81.7475V82.3887ZM176.72 130.245H176.079C176.078 151.213 162.408 168.986 143.493 175.145L143.691 175.755L143.89 176.365C163.317 170.039 177.361 151.785 177.361 130.245H176.72ZM143.691 175.755L143.126 175.453L140.363 180.622L140.929 180.924L141.494 181.226L144.257 176.057L143.691 175.755ZM140.929 180.924L140.312 181.098C141.462 185.179 142.08 189.485 142.08 193.936H142.721H143.362C143.362 189.366 142.728 184.943 141.546 180.75L140.929 180.924ZM142.721 193.936L142.08 193.936C142.079 220.011 120.94 241.15 94.8643 241.15L94.8643 241.791L94.8643 242.432C121.648 242.432 143.362 220.72 143.362 193.936L142.721 193.936ZM94.8643 241.791V241.15C68.7883 241.15 47.6492 220.011 47.649 193.936L47.0078 193.936L46.3666 193.936C46.3668 220.72 68.08 242.432 94.8643 242.432V241.791ZM47.0078 193.936H47.649C47.649 185.095 50.0804 176.825 54.3072 169.752L53.7568 169.423L53.2064 169.094C48.8642 176.36 46.3666 184.857 46.3666 193.936H47.0078ZM53.7568 169.423L54.3223 169.725L85.8741 110.692L85.3086 110.39L84.7431 110.087L53.1914 169.121L53.7568 169.423ZM85.3086 110.39L85.8919 110.656C93.3346 94.3558 109.777 83.0299 128.863 83.0299V82.3887V81.7475C109.256 81.7475 92.3689 93.3834 84.7253 110.123L85.3086 110.39Z" fill="url(#paint3_linear_444_719)" mask="url(#path-2-inside-1_444_719)"/>
<path d="M128.794 82.3872C129.699 82.3872 130.598 82.4128 131.49 82.4624C131.494 82.4626 131.498 82.4632 131.502 82.4634C132.368 82.5117 133.227 82.5826 134.08 82.6763C134.118 82.6804 134.155 82.6848 134.192 82.689C134.746 82.7511 135.297 82.8229 135.845 82.9038C135.872 82.9079 135.9 82.9124 135.928 82.9165C136.196 82.9566 136.463 82.998 136.729 83.0425C136.77 83.0493 136.811 83.0571 136.852 83.064C137.039 83.0958 137.226 83.1296 137.413 83.1636C138.114 83.2911 138.811 83.4326 139.501 83.5903C139.598 83.6126 139.696 83.6358 139.793 83.6587C140.055 83.7202 140.315 83.7843 140.575 83.8501C140.663 83.8724 140.752 83.8937 140.84 83.9165C141.176 84.0035 141.51 84.0939 141.843 84.188L141.896 84.2026C141.942 84.2158 141.988 84.2303 142.034 84.2437C142.322 84.3264 142.61 84.4115 142.896 84.4995C142.989 84.5282 143.082 84.5572 143.175 84.5864C143.463 84.6771 143.75 84.7707 144.036 84.8667C144.085 84.883 144.133 84.8991 144.182 84.9155C144.53 85.0337 144.876 85.1559 145.221 85.2817C145.253 85.2937 145.286 85.3059 145.318 85.3179C145.625 85.4306 145.93 85.5458 146.233 85.6646C146.305 85.6925 146.376 85.7212 146.447 85.7495C147.121 86.0171 147.788 86.2993 148.446 86.5962C148.486 86.6143 148.526 86.6327 148.566 86.6509C148.877 86.7922 149.187 86.9368 149.494 87.0845C149.519 87.0963 149.544 87.1077 149.568 87.1196C150.246 87.4466 150.915 87.7894 151.574 88.147C151.6 88.1609 151.626 88.175 151.651 88.189C151.957 88.3557 152.261 88.5256 152.563 88.6987C152.581 88.7086 152.598 88.7181 152.615 88.728L152.786 88.8257C161.297 93.7656 168.145 101.254 172.287 110.246L203.92 169.426C208.203 176.595 210.666 184.978 210.666 193.936C210.666 220.366 189.24 241.792 162.81 241.792C161.911 241.792 161.018 241.766 160.132 241.717C160.092 241.715 160.053 241.713 160.014 241.71C159.488 241.68 158.964 241.641 158.442 241.594C158.336 241.585 158.231 241.575 158.125 241.565C157.954 241.548 157.783 241.531 157.612 241.512C157.515 241.502 157.417 241.491 157.319 241.48C157.091 241.454 156.864 241.426 156.637 241.397C156.523 241.382 156.409 241.366 156.296 241.351C156.184 241.336 156.073 241.32 155.962 241.304C155.435 241.229 154.91 241.145 154.389 241.052C154.364 241.048 154.339 241.044 154.314 241.04C138.609 238.232 125.557 227.764 119.167 213.637L87.7822 154.917C83.4382 147.713 80.9376 139.27 80.9375 130.244C80.9376 103.814 102.364 82.3873 128.794 82.3872Z" fill="url(#paint4_linear_444_719)"/>
<mask id="path-5-inside-2_444_719" fill="white">
<path d="M197.607 83.2759C224.038 83.2759 245.464 104.702 245.464 131.132C245.464 152.385 231.609 170.398 212.439 176.641L209.667 181.829C210.83 185.961 211.454 190.319 211.454 194.824C211.454 221.254 190.029 242.679 163.599 242.679C137.168 242.679 115.742 221.254 115.742 194.824C115.742 185.768 118.257 177.3 122.627 170.08L154.032 111.321C161.566 94.7771 178.243 83.2759 197.607 83.2759Z"/>
</mask>
<path d="M197.607 83.2759C224.038 83.2759 245.464 104.702 245.464 131.132C245.464 152.385 231.609 170.398 212.439 176.641L209.667 181.829C210.83 185.961 211.454 190.319 211.454 194.824C211.454 221.254 190.029 242.679 163.599 242.679C137.168 242.679 115.742 221.254 115.742 194.824C115.742 185.768 118.257 177.3 122.627 170.08L154.032 111.321C161.566 94.7771 178.243 83.2759 197.607 83.2759Z" fill="url(#paint5_linear_444_719)"/>
<path d="M197.607 83.2759V82.6347V83.2759ZM245.464 131.132L246.105 131.132V131.132H245.464ZM212.439 176.641L212.241 176.031L211.996 176.111L211.874 176.339L212.439 176.641ZM209.667 181.829L209.102 181.526L208.98 181.754L209.05 182.002L209.667 181.829ZM211.454 194.824H212.095H211.454ZM163.599 242.679V243.32H163.599L163.599 242.679ZM115.742 194.824H115.101H115.742ZM122.627 170.08L123.175 170.412L123.184 170.397L123.192 170.382L122.627 170.08ZM154.032 111.321L154.598 111.623L154.607 111.605L154.616 111.587L154.032 111.321ZM197.607 83.2759V83.9171C223.684 83.9171 244.823 105.056 244.823 131.132H245.464H246.105C246.105 104.348 224.392 82.6348 197.607 82.6347V83.2759ZM245.464 131.132L244.823 131.132C244.823 152.099 231.154 169.871 212.241 176.031L212.439 176.641L212.638 177.251C232.063 170.924 246.105 152.671 246.105 131.132L245.464 131.132ZM212.439 176.641L211.874 176.339L209.102 181.526L209.667 181.829L210.232 182.131L213.005 176.943L212.439 176.641ZM209.667 181.829L209.05 182.002C210.197 186.079 210.813 190.379 210.813 194.824H211.454H212.095C212.095 190.26 211.463 185.843 210.284 181.655L209.667 181.829ZM211.454 194.824H210.813C210.813 220.9 189.674 242.038 163.599 242.038L163.599 242.679L163.599 243.32C190.383 243.32 212.095 221.608 212.095 194.824H211.454ZM163.599 242.679V242.038C137.523 242.038 116.384 220.9 116.383 194.824H115.742H115.101C115.101 221.608 136.814 243.32 163.599 243.32V242.679ZM115.742 194.824H116.383C116.383 185.888 118.865 177.534 123.175 170.412L122.627 170.08L122.078 169.748C117.65 177.065 115.101 185.648 115.101 194.824H115.742ZM122.627 170.08L123.192 170.382L154.598 111.623L154.032 111.321L153.467 111.019L122.061 169.777L122.627 170.08ZM154.032 111.321L154.616 111.587C162.049 95.263 178.504 83.9171 197.607 83.9171V83.2759V82.6347C177.983 82.6347 161.083 94.2911 153.449 111.055L154.032 111.321Z" fill="url(#paint6_linear_444_719)" mask="url(#path-5-inside-2_444_719)"/>
<g filter="url(#filter0_df_444_719)">
<mask id="mask0_444_719" style="mask-type:alpha" maskUnits="userSpaceOnUse" x="149" y="83" width="130" height="160">
<mask id="path-7-inside-3_444_719" fill="white">
<path d="M196.981 83.2751C199.102 83.2751 201.19 83.4131 203.237 83.6804C203.257 83.683 203.277 83.6856 203.297 83.6882C203.868 83.7635 204.436 83.8489 205 83.9441C205.01 83.9458 205.02 83.9473 205.03 83.949C205.237 83.984 205.443 84.0216 205.649 84.0593C205.934 84.1114 206.219 84.1653 206.502 84.2224C206.552 84.2325 206.602 84.2424 206.652 84.2527C207.024 84.3289 207.395 84.4101 207.764 84.4949C207.787 84.5002 207.81 84.5061 207.833 84.5115C208.198 84.5959 208.561 84.6843 208.923 84.7771C208.933 84.7796 208.942 84.7824 208.952 84.7849C223.104 88.4241 234.724 98.3719 240.634 111.454L271.979 170.098C276.343 177.315 278.854 185.777 278.854 194.825C278.853 221.255 257.428 242.68 230.998 242.68C228.593 242.68 226.23 242.501 223.92 242.159C223.891 242.155 223.862 242.151 223.833 242.146C223.338 242.072 222.846 241.989 222.355 241.899C222.076 241.848 221.798 241.795 221.521 241.739C221.451 241.725 221.381 241.712 221.312 241.698C220.975 241.629 220.639 241.556 220.305 241.479C220.192 241.454 220.08 241.427 219.968 241.4C219.712 241.34 219.458 241.278 219.204 241.214C219.115 241.191 219.026 241.169 218.937 241.146C218.247 240.967 217.564 240.773 216.888 240.564C216.793 240.535 216.699 240.505 216.604 240.475C216.318 240.385 216.033 240.293 215.749 240.198C215.7 240.181 215.651 240.165 215.602 240.148C214.902 239.911 214.21 239.657 213.525 239.388C213.467 239.366 213.409 239.343 213.352 239.32C212.333 238.916 211.331 238.477 210.348 238.007C210.287 237.977 210.226 237.948 210.165 237.919C200.114 233.053 192.022 224.777 187.396 214.591L156.031 155.91C151.649 148.682 149.125 140.201 149.125 131.132C149.125 104.702 170.551 83.2754 196.981 83.2751Z"/>
</mask>
<path d="M196.981 83.2751C199.102 83.2751 201.19 83.4131 203.237 83.6804C203.257 83.683 203.277 83.6856 203.297 83.6882C203.868 83.7635 204.436 83.8489 205 83.9441C205.01 83.9458 205.02 83.9473 205.03 83.949C205.237 83.984 205.443 84.0216 205.649 84.0593C205.934 84.1114 206.219 84.1653 206.502 84.2224C206.552 84.2325 206.602 84.2424 206.652 84.2527C207.024 84.3289 207.395 84.4101 207.764 84.4949C207.787 84.5002 207.81 84.5061 207.833 84.5115C208.198 84.5959 208.561 84.6843 208.923 84.7771C208.933 84.7796 208.942 84.7824 208.952 84.7849C223.104 88.4241 234.724 98.3719 240.634 111.454L271.979 170.098C276.343 177.315 278.854 185.777 278.854 194.825C278.853 221.255 257.428 242.68 230.998 242.68C228.593 242.68 226.23 242.501 223.92 242.159C223.891 242.155 223.862 242.151 223.833 242.146C223.338 242.072 222.846 241.989 222.355 241.899C222.076 241.848 221.798 241.795 221.521 241.739C221.451 241.725 221.381 241.712 221.312 241.698C220.975 241.629 220.639 241.556 220.305 241.479C220.192 241.454 220.08 241.427 219.968 241.4C219.712 241.34 219.458 241.278 219.204 241.214C219.115 241.191 219.026 241.169 218.937 241.146C218.247 240.967 217.564 240.773 216.888 240.564C216.793 240.535 216.699 240.505 216.604 240.475C216.318 240.385 216.033 240.293 215.749 240.198C215.7 240.181 215.651 240.165 215.602 240.148C214.902 239.911 214.21 239.657 213.525 239.388C213.467 239.366 213.409 239.343 213.352 239.32C212.333 238.916 211.331 238.477 210.348 238.007C210.287 237.977 210.226 237.948 210.165 237.919C200.114 233.053 192.022 224.777 187.396 214.591L156.031 155.91C151.649 148.682 149.125 140.201 149.125 131.132C149.125 104.702 170.551 83.2754 196.981 83.2751Z" fill="black"/>
<path d="M196.981 83.2751V82.634H196.981L196.981 83.2751ZM203.237 83.6804L203.154 84.3162L203.155 84.3162L203.237 83.6804ZM203.297 83.6882L203.381 83.0525L203.38 83.0525L203.297 83.6882ZM205 83.9441L204.893 84.5763L204.894 84.5764L205 83.9441ZM205.03 83.949L205.137 83.3168L205.137 83.3168L205.03 83.949ZM205.649 84.0593L205.534 84.69L205.534 84.6901L205.649 84.0593ZM206.502 84.2224L206.629 83.5939L206.629 83.5939L206.502 84.2224ZM206.652 84.2527L206.523 84.8808L206.524 84.8808L206.652 84.2527ZM207.764 84.4949L207.908 83.87L207.907 83.87L207.764 84.4949ZM207.833 84.5115L207.688 85.1361L207.688 85.1361L207.833 84.5115ZM208.923 84.7771L209.082 84.1561L209.082 84.156L208.923 84.7771ZM208.952 84.7849L208.792 85.4058L208.792 85.4059L208.952 84.7849ZM240.634 111.454L240.049 111.718L240.058 111.737L240.068 111.756L240.634 111.454ZM271.979 170.098L271.414 170.401L271.422 170.416L271.431 170.43L271.979 170.098ZM278.854 194.825L279.495 194.825V194.825H278.854ZM230.998 242.68L230.998 243.322H230.998L230.998 242.68ZM223.92 242.159L224.014 241.525L224.014 241.525L223.92 242.159ZM223.833 242.146L223.738 242.78L223.738 242.78L223.833 242.146ZM222.355 241.899L222.471 241.268L222.47 241.268L222.355 241.899ZM221.521 241.739L221.394 242.368L221.394 242.368L221.521 241.739ZM221.312 241.698L221.441 241.07L221.441 241.07L221.312 241.698ZM220.305 241.479L220.162 242.104L220.162 242.104L220.305 241.479ZM219.968 241.4L220.115 240.776L220.115 240.776L219.968 241.4ZM219.204 241.214L219.047 241.835L219.047 241.835L219.204 241.214ZM218.937 241.146L219.098 240.526L219.098 240.526L218.937 241.146ZM216.888 240.564L216.699 241.177L216.699 241.177L216.888 240.564ZM216.604 240.475L216.797 239.864L216.797 239.864L216.604 240.475ZM215.749 240.198L215.545 240.806L215.545 240.806L215.749 240.198ZM215.602 240.148L215.808 239.541L215.808 239.541L215.602 240.148ZM213.525 239.388L213.291 239.985L213.291 239.985L213.525 239.388ZM213.352 239.32L213.588 238.724L213.588 238.724L213.352 239.32ZM210.348 238.007L210.071 238.585L210.071 238.585L210.348 238.007ZM210.165 237.919L210.445 237.342L210.444 237.342L210.165 237.919ZM187.396 214.591L187.979 214.325L187.971 214.307L187.961 214.288L187.396 214.591ZM156.031 155.91L156.597 155.608L156.589 155.592L156.58 155.577L156.031 155.91ZM149.125 131.132L148.484 131.132V131.132L149.125 131.132ZM196.981 83.2751V83.9163C199.074 83.9163 201.134 84.0525 203.154 84.3162L203.237 83.6804L203.32 83.0446C201.246 82.7738 199.13 82.634 196.981 82.634V83.2751ZM203.237 83.6804L203.155 84.3162C203.174 84.3188 203.193 84.3213 203.213 84.3239L203.297 83.6882L203.38 83.0525C203.361 83.0499 203.34 83.0473 203.32 83.0446L203.237 83.6804ZM203.297 83.6882L203.213 84.3239C203.776 84.3982 204.336 84.4824 204.893 84.5763L205 83.9441L205.107 83.3118C204.535 83.2153 203.959 83.1288 203.381 83.0525L203.297 83.6882ZM205 83.9441L204.894 84.5764C204.902 84.5779 204.911 84.5792 204.915 84.5799C204.921 84.5808 204.922 84.581 204.923 84.5812L205.03 83.949L205.137 83.3168C205.128 83.3152 205.12 83.3139 205.115 83.3132C205.109 83.3123 205.108 83.312 205.106 83.3118L205 83.9441ZM205.03 83.949L204.923 84.5812C205.125 84.6154 205.328 84.6523 205.534 84.69L205.649 84.0593L205.765 83.4286C205.559 83.391 205.349 83.3526 205.137 83.3168L205.03 83.949ZM205.649 84.0593L205.534 84.6901C205.816 84.7416 206.097 84.7948 206.375 84.851L206.502 84.2224L206.629 83.5939C206.341 83.5359 206.053 83.4811 205.765 83.4286L205.649 84.0593ZM206.502 84.2224L206.375 84.8509C206.43 84.862 206.474 84.8706 206.523 84.8808L206.652 84.2527L206.781 83.6246C206.73 83.6142 206.674 83.6031 206.629 83.5939L206.502 84.2224ZM206.652 84.2527L206.524 84.8808C206.89 84.9559 207.255 85.0359 207.62 85.1198L207.764 84.4949L207.907 83.87C207.534 83.7842 207.159 83.7019 206.781 83.6245L206.652 84.2527ZM207.764 84.4949L207.62 85.1197C207.627 85.1213 207.635 85.1232 207.647 85.1261C207.657 85.1287 207.672 85.1324 207.688 85.1361L207.833 84.5115L207.978 83.8869C207.97 83.8851 207.962 83.8832 207.95 83.8802C207.939 83.8775 207.924 83.8737 207.908 83.87L207.764 84.4949ZM207.833 84.5115L207.688 85.1361C208.049 85.2195 208.407 85.3067 208.764 85.3982L208.923 84.7771L209.082 84.156C208.715 84.062 208.347 83.9723 207.978 83.8868L207.833 84.5115ZM208.923 84.7771L208.763 85.3981C208.763 85.3981 208.764 85.3983 208.77 85.3998C208.774 85.4009 208.783 85.4034 208.792 85.4058L208.952 84.7849L209.112 84.164C209.112 84.164 209.112 84.164 209.111 84.1637C209.11 84.1633 209.108 84.1629 209.105 84.1622C209.101 84.161 209.092 84.1586 209.082 84.1561L208.923 84.7771ZM208.952 84.7849L208.792 85.4059C222.754 88.996 234.219 98.8106 240.049 111.718L240.634 111.454L241.218 111.19C235.23 97.9331 223.455 87.8522 209.112 84.1639L208.952 84.7849ZM240.634 111.454L240.068 111.756L271.414 170.401L271.979 170.098L272.545 169.796L241.199 111.152L240.634 111.454ZM271.979 170.098L271.431 170.43C275.735 177.549 278.212 185.897 278.212 194.825H278.854H279.495C279.495 185.657 276.95 177.08 272.528 169.767L271.979 170.098ZM278.854 194.825L278.212 194.825C278.212 220.901 257.074 242.039 230.998 242.039L230.998 242.68L230.998 243.322C257.782 243.321 279.494 221.609 279.495 194.825L278.854 194.825ZM230.998 242.68L230.998 242.039C228.625 242.039 226.293 241.863 224.014 241.525L223.92 242.159L223.826 242.793C226.166 243.14 228.561 243.322 230.998 243.322L230.998 242.68ZM223.92 242.159L224.014 241.525C223.973 241.519 223.962 241.517 223.928 241.512L223.833 242.146L223.738 242.78C223.762 242.784 223.809 242.791 223.826 242.793L223.92 242.159ZM223.833 242.146L223.928 241.512C223.441 241.439 222.955 241.357 222.471 241.268L222.355 241.899L222.24 242.53C222.736 242.62 223.235 242.705 223.738 242.78L223.833 242.146ZM222.355 241.899L222.47 241.268C222.195 241.218 221.921 241.165 221.647 241.11L221.521 241.739L221.394 242.368C221.675 242.424 221.957 242.478 222.241 242.53L222.355 241.899ZM221.521 241.739L221.647 241.11C221.551 241.091 221.52 241.086 221.441 241.07L221.312 241.698L221.182 242.326C221.242 242.338 221.351 242.359 221.394 242.368L221.521 241.739ZM221.312 241.698L221.441 241.07C221.109 241.002 220.778 240.93 220.447 240.854L220.305 241.479L220.162 242.104C220.5 242.182 220.84 242.256 221.183 242.326L221.312 241.698ZM220.305 241.479L220.447 240.854C220.338 240.829 220.231 240.803 220.115 240.776L219.968 241.4L219.821 242.024C219.929 242.05 220.046 242.078 220.162 242.104L220.305 241.479ZM219.968 241.4L220.115 240.776C219.863 240.717 219.612 240.655 219.362 240.592L219.204 241.214L219.047 241.835C219.304 241.9 219.562 241.963 219.821 242.024L219.968 241.4ZM219.204 241.214L219.362 240.592C219.262 240.567 219.186 240.549 219.098 240.526L218.937 241.146L218.775 241.767C218.865 241.79 218.968 241.815 219.047 241.835L219.204 241.214ZM218.937 241.146L219.098 240.526C218.418 240.349 217.745 240.157 217.076 239.951L216.888 240.564L216.699 241.177C217.384 241.388 218.076 241.585 218.775 241.767L218.937 241.146ZM216.888 240.564L217.077 239.951C216.984 239.923 216.894 239.894 216.797 239.864L216.604 240.475L216.412 241.087C216.504 241.116 216.602 241.147 216.699 241.177L216.888 240.564ZM216.604 240.475L216.797 239.864C216.513 239.774 216.232 239.684 215.953 239.59L215.749 240.198L215.545 240.806C215.834 240.903 216.123 240.996 216.412 241.087L216.604 240.475ZM215.749 240.198L215.953 239.59C215.905 239.574 215.856 239.558 215.808 239.541L215.602 240.148L215.395 240.755C215.445 240.772 215.495 240.789 215.545 240.806L215.749 240.198ZM215.602 240.148L215.808 239.541C215.118 239.307 214.435 239.057 213.76 238.792L213.525 239.388L213.291 239.985C213.985 240.257 214.686 240.515 215.395 240.755L215.602 240.148ZM213.525 239.388L213.76 238.792C213.7 238.768 213.644 238.746 213.588 238.724L213.352 239.32L213.115 239.916C213.174 239.94 213.235 239.963 213.291 239.985L213.525 239.388ZM213.352 239.32L213.588 238.724C212.583 238.325 211.595 237.893 210.625 237.428L210.348 238.007L210.071 238.585C211.067 239.062 212.082 239.506 213.115 239.916L213.352 239.32ZM210.348 238.007L210.625 237.428C210.564 237.399 210.504 237.371 210.445 237.342L210.165 237.919L209.886 238.496C209.948 238.526 210.009 238.555 210.071 238.585L210.348 238.007ZM210.165 237.919L210.444 237.342C200.528 232.541 192.543 224.375 187.979 214.325L187.396 214.591L186.812 214.856C191.5 225.178 199.7 233.565 209.886 238.496L210.165 237.919ZM187.396 214.591L187.961 214.288L156.597 155.608L156.031 155.91L155.466 156.212L186.83 214.893L187.396 214.591ZM156.031 155.91L156.58 155.577C152.256 148.447 149.766 140.081 149.766 131.132L149.125 131.132L148.484 131.132C148.484 140.322 151.041 148.917 155.483 156.242L156.031 155.91ZM149.125 131.132L149.766 131.132C149.766 105.056 170.906 83.9165 196.981 83.9163L196.981 83.2751L196.981 82.634C170.197 82.6342 148.484 104.347 148.484 131.132L149.125 131.132Z" fill="url(#paint7_linear_444_719)" mask="url(#path-7-inside-3_444_719)"/>
</mask>
<g mask="url(#mask0_444_719)">
<mask id="path-9-inside-4_444_719" fill="white">
<path d="M241.084 108.401C241.226 108.647 241.365 108.893 241.502 109.14C241.521 109.175 241.541 109.209 241.56 109.244C241.975 109.997 242.367 110.757 242.738 111.523C242.75 111.549 242.763 111.574 242.776 111.6C242.896 111.85 243.013 112.1 243.129 112.35C243.142 112.378 243.154 112.406 243.167 112.434C243.404 112.951 243.632 113.469 243.849 113.99C243.854 114.002 243.859 114.013 243.863 114.025C244.082 114.552 244.291 115.082 244.49 115.614C244.499 115.639 244.509 115.663 244.518 115.688C244.593 115.89 244.665 116.093 244.738 116.295C244.826 116.543 244.911 116.79 244.995 117.038C245.022 117.117 245.05 117.194 245.076 117.272C245.186 117.602 245.29 117.933 245.392 118.264C245.422 118.363 245.452 118.462 245.482 118.561C245.558 118.812 245.631 119.063 245.702 119.315C245.732 119.419 245.761 119.523 245.79 119.628C245.88 119.955 245.968 120.283 246.051 120.611C246.071 120.69 246.089 120.769 246.109 120.848C246.174 121.112 246.238 121.376 246.299 121.641C246.324 121.751 246.349 121.861 246.373 121.971C246.434 122.245 246.492 122.518 246.548 122.792C246.564 122.87 246.58 122.947 246.596 123.025C246.663 123.366 246.727 123.707 246.787 124.048C246.8 124.118 246.811 124.188 246.823 124.258C246.871 124.542 246.917 124.827 246.96 125.111C246.975 125.21 246.99 125.308 247.004 125.406C247.046 125.694 247.085 125.982 247.122 126.271C247.13 126.33 247.138 126.389 247.145 126.448C247.189 126.8 247.228 127.153 247.264 127.506C247.271 127.577 247.276 127.648 247.283 127.719C247.309 127.989 247.333 128.259 247.355 128.529C247.363 128.639 247.372 128.748 247.38 128.858C247.429 129.538 247.463 130.219 247.483 130.9C247.486 131.018 247.489 131.136 247.491 131.254C247.496 131.5 247.5 131.747 247.502 131.993C247.502 132.094 247.503 132.195 247.503 132.296C247.503 132.632 247.5 132.968 247.493 133.304C247.491 133.385 247.488 133.466 247.486 133.547C247.479 133.813 247.47 134.078 247.458 134.343C247.453 134.456 247.447 134.569 247.442 134.682C247.427 134.968 247.411 135.253 247.392 135.539C247.388 135.589 247.385 135.64 247.382 135.691C247.357 136.042 247.327 136.393 247.295 136.744C247.288 136.812 247.281 136.881 247.275 136.949C247.247 137.23 247.217 137.51 247.184 137.791C247.173 137.89 247.161 137.988 247.149 138.087C247.066 138.769 246.969 139.449 246.857 140.127C246.843 140.212 246.827 140.298 246.813 140.383C246.767 140.652 246.718 140.921 246.668 141.189C246.65 141.281 246.634 141.374 246.616 141.466C246.484 142.141 246.337 142.813 246.176 143.482C246.156 143.566 246.137 143.65 246.116 143.733C246.05 144.003 245.98 144.273 245.909 144.542C245.887 144.627 245.865 144.713 245.842 144.798C245.756 145.119 245.666 145.438 245.572 145.757C245.552 145.825 245.531 145.894 245.511 145.962C245.425 146.251 245.337 146.538 245.246 146.824C245.226 146.887 245.206 146.949 245.186 147.011C245.092 147.305 244.995 147.597 244.895 147.889C244.878 147.938 244.862 147.988 244.845 148.037C244.727 148.377 244.605 148.714 244.48 149.051C244.466 149.086 244.452 149.121 244.439 149.157C244.329 149.45 244.216 149.743 244.1 150.035C244.072 150.105 244.045 150.176 244.016 150.247C243.75 150.908 243.467 151.564 243.171 152.214C243.147 152.266 243.124 152.317 243.1 152.369C242.969 152.654 242.835 152.937 242.698 153.22C242.676 153.265 242.655 153.311 242.633 153.356C242.319 153.998 241.992 154.633 241.65 155.261C241.612 155.33 241.575 155.398 241.537 155.467C241.382 155.748 241.224 156.028 241.064 156.306C241.047 156.336 241.03 156.365 241.013 156.394C240.832 156.706 240.648 157.016 240.46 157.323C240.435 157.365 240.409 157.405 240.383 157.447C239.841 158.329 239.27 159.196 238.668 160.044L203.223 217.042C199.157 224.307 193.143 230.605 185.41 235.07C169.601 244.197 150.75 243.278 136.245 234.295C129.748 230.272 124.122 224.633 120.034 217.552C119.936 217.383 119.841 217.211 119.746 217.041C119.739 217.03 119.733 217.017 119.726 217.005C119.634 216.841 119.543 216.675 119.452 216.51C119.43 216.469 119.408 216.428 119.386 216.388C110.424 199.836 112.22 180.203 122.569 165.743L157.798 109.09C161.865 101.75 167.916 95.3854 175.712 90.884C198.601 77.6691 227.869 85.512 241.084 108.401Z"/>
</mask>
<path d="M241.084 108.401C241.226 108.647 241.365 108.893 241.502 109.14C241.521 109.175 241.541 109.209 241.56 109.244C241.975 109.997 242.367 110.757 242.738 111.523C242.75 111.549 242.763 111.574 242.776 111.6C242.896 111.85 243.013 112.1 243.129 112.35C243.142 112.378 243.154 112.406 243.167 112.434C243.404 112.951 243.632 113.469 243.849 113.99C243.854 114.002 243.859 114.013 243.863 114.025C244.082 114.552 244.291 115.082 244.49 115.614C244.499 115.639 244.509 115.663 244.518 115.688C244.593 115.89 244.665 116.093 244.738 116.295C244.826 116.543 244.911 116.79 244.995 117.038C245.022 117.117 245.05 117.194 245.076 117.272C245.186 117.602 245.29 117.933 245.392 118.264C245.422 118.363 245.452 118.462 245.482 118.561C245.558 118.812 245.631 119.063 245.702 119.315C245.732 119.419 245.761 119.523 245.79 119.628C245.88 119.955 245.968 120.283 246.051 120.611C246.071 120.69 246.089 120.769 246.109 120.848C246.174 121.112 246.238 121.376 246.299 121.641C246.324 121.751 246.349 121.861 246.373 121.971C246.434 122.245 246.492 122.518 246.548 122.792C246.564 122.87 246.58 122.947 246.596 123.025C246.663 123.366 246.727 123.707 246.787 124.048C246.8 124.118 246.811 124.188 246.823 124.258C246.871 124.542 246.917 124.827 246.96 125.111C246.975 125.21 246.99 125.308 247.004 125.406C247.046 125.694 247.085 125.982 247.122 126.271C247.13 126.33 247.138 126.389 247.145 126.448C247.189 126.8 247.228 127.153 247.264 127.506C247.271 127.577 247.276 127.648 247.283 127.719C247.309 127.989 247.333 128.259 247.355 128.529C247.363 128.639 247.372 128.748 247.38 128.858C247.429 129.538 247.463 130.219 247.483 130.9C247.486 131.018 247.489 131.136 247.491 131.254C247.496 131.5 247.5 131.747 247.502 131.993C247.502 132.094 247.503 132.195 247.503 132.296C247.503 132.632 247.5 132.968 247.493 133.304C247.491 133.385 247.488 133.466 247.486 133.547C247.479 133.813 247.47 134.078 247.458 134.343C247.453 134.456 247.447 134.569 247.442 134.682C247.427 134.968 247.411 135.253 247.392 135.539C247.388 135.589 247.385 135.64 247.382 135.691C247.357 136.042 247.327 136.393 247.295 136.744C247.288 136.812 247.281 136.881 247.275 136.949C247.247 137.23 247.217 137.51 247.184 137.791C247.173 137.89 247.161 137.988 247.149 138.087C247.066 138.769 246.969 139.449 246.857 140.127C246.843 140.212 246.827 140.298 246.813 140.383C246.767 140.652 246.718 140.921 246.668 141.189C246.65 141.281 246.634 141.374 246.616 141.466C246.484 142.141 246.337 142.813 246.176 143.482C246.156 143.566 246.137 143.65 246.116 143.733C246.05 144.003 245.98 144.273 245.909 144.542C245.887 144.627 245.865 144.713 245.842 144.798C245.756 145.119 245.666 145.438 245.572 145.757C245.552 145.825 245.531 145.894 245.511 145.962C245.425 146.251 245.337 146.538 245.246 146.824C245.226 146.887 245.206 146.949 245.186 147.011C245.092 147.305 244.995 147.597 244.895 147.889C244.878 147.938 244.862 147.988 244.845 148.037C244.727 148.377 244.605 148.714 244.48 149.051C244.466 149.086 244.452 149.121 244.439 149.157C244.329 149.45 244.216 149.743 244.1 150.035C244.072 150.105 244.045 150.176 244.016 150.247C243.75 150.908 243.467 151.564 243.171 152.214C243.147 152.266 243.124 152.317 243.1 152.369C242.969 152.654 242.835 152.937 242.698 153.22C242.676 153.265 242.655 153.311 242.633 153.356C242.319 153.998 241.992 154.633 241.65 155.261C241.612 155.33 241.575 155.398 241.537 155.467C241.382 155.748 241.224 156.028 241.064 156.306C241.047 156.336 241.03 156.365 241.013 156.394C240.832 156.706 240.648 157.016 240.46 157.323C240.435 157.365 240.409 157.405 240.383 157.447C239.841 158.329 239.27 159.196 238.668 160.044L203.223 217.042C199.157 224.307 193.143 230.605 185.41 235.07C169.601 244.197 150.75 243.278 136.245 234.295C129.748 230.272 124.122 224.633 120.034 217.552C119.936 217.383 119.841 217.211 119.746 217.041C119.739 217.03 119.733 217.017 119.726 217.005C119.634 216.841 119.543 216.675 119.452 216.51C119.43 216.469 119.408 216.428 119.386 216.388C110.424 199.836 112.22 180.203 122.569 165.743L157.798 109.09C161.865 101.75 167.916 95.3854 175.712 90.884C198.601 77.6691 227.869 85.512 241.084 108.401Z" fill="url(#paint8_linear_444_719)"/>
<path d="M241.084 108.401L241.64 108.081L241.64 108.081L241.084 108.401ZM241.502 109.14L240.941 109.451L240.941 109.451L241.502 109.14ZM241.56 109.244L242.121 108.935L242.121 108.935L241.56 109.244ZM242.738 111.523L242.161 111.802L242.161 111.802L242.738 111.523ZM242.776 111.6L243.353 111.322L243.353 111.322L242.776 111.6ZM243.129 112.35L242.547 112.619L242.547 112.619L243.129 112.35ZM243.167 112.434L243.75 112.167L243.75 112.167L243.167 112.434ZM243.849 113.99L243.257 114.237L243.257 114.237L243.849 113.99ZM243.863 114.025L244.456 113.779L244.456 113.779L243.863 114.025ZM244.49 115.614L243.889 115.839L243.889 115.839L244.49 115.614ZM244.518 115.688L245.119 115.464L245.119 115.464L244.518 115.688ZM244.738 116.295L244.134 116.511L244.134 116.511L244.738 116.295ZM244.995 117.038L245.603 116.833L245.603 116.833L244.995 117.038ZM245.076 117.272L244.468 117.475L244.468 117.475L245.076 117.272ZM245.392 118.264L246.005 118.075L246.005 118.075L245.392 118.264ZM245.482 118.561L244.868 118.746L244.868 118.746L245.482 118.561ZM245.702 119.315L246.319 119.141L246.319 119.141L245.702 119.315ZM245.79 119.628L245.172 119.798L245.172 119.798L245.79 119.628ZM246.051 120.611L246.673 120.454L246.673 120.454L246.051 120.611ZM246.109 120.848L245.486 121.002L245.486 121.002L246.109 120.848ZM246.299 121.641L246.924 121.498L246.923 121.498L246.299 121.641ZM246.373 121.971L245.747 122.11L245.747 122.11L246.373 121.971ZM246.548 122.792L247.176 122.664L247.176 122.664L246.548 122.792ZM246.596 123.025L245.967 123.149L245.967 123.149L246.596 123.025ZM246.787 124.048L247.419 123.938L247.419 123.938L246.787 124.048ZM246.823 124.258L246.191 124.366L246.191 124.366L246.823 124.258ZM246.96 125.111L247.594 125.015L247.594 125.015L246.96 125.111ZM247.004 125.406L246.37 125.499L246.37 125.499L247.004 125.406ZM247.122 126.271L247.758 126.19L247.758 126.19L247.122 126.271ZM247.145 126.448L246.509 126.526L246.509 126.526L247.145 126.448ZM247.264 127.506L247.901 127.442L247.901 127.442L247.264 127.506ZM247.283 127.719L246.645 127.781L246.645 127.781L247.283 127.719ZM247.355 128.529L247.994 128.479L247.994 128.479L247.355 128.529ZM247.38 128.858L246.74 128.904L246.74 128.904L247.38 128.858ZM247.483 130.9L248.124 130.881L248.124 130.881L247.483 130.9ZM247.491 131.254L246.85 131.267L246.85 131.268L247.491 131.254ZM247.502 131.993L248.143 131.989L248.143 131.989L247.502 131.993ZM247.503 132.296L246.862 132.295L246.862 132.295L247.503 132.296ZM247.493 133.304L248.134 133.317L248.134 133.317L247.493 133.304ZM247.486 133.547L246.845 133.53L246.845 133.53L247.486 133.547ZM247.458 134.343L248.099 134.371L248.099 134.371L247.458 134.343ZM247.442 134.682L246.801 134.65L246.801 134.65L247.442 134.682ZM247.392 135.539L248.031 135.582L248.031 135.582L247.392 135.539ZM247.382 135.691L246.742 135.645L246.742 135.645L247.382 135.691ZM247.295 136.744L247.933 136.803L247.933 136.803L247.295 136.744ZM247.275 136.949L246.637 136.887L246.637 136.887L247.275 136.949ZM247.184 137.791L247.821 137.864L247.821 137.864L247.184 137.791ZM247.149 138.087L246.513 138.01L246.513 138.01L247.149 138.087ZM246.857 140.127L247.49 140.231L247.49 140.231L246.857 140.127ZM246.813 140.383L246.181 140.275L246.181 140.275L246.813 140.383ZM246.668 141.189L247.298 141.308L247.298 141.308L246.668 141.189ZM246.616 141.466L245.986 141.343L245.986 141.343L246.616 141.466ZM246.176 143.482L246.8 143.632L246.8 143.632L246.176 143.482ZM246.116 143.733L245.493 143.58L245.493 143.58L246.116 143.733ZM245.909 144.542L246.529 144.705L246.529 144.705L245.909 144.542ZM245.842 144.798L245.223 144.631L245.223 144.631L245.842 144.798ZM245.572 145.757L246.188 145.936L246.188 145.936L245.572 145.757ZM245.511 145.962L244.896 145.78L244.896 145.78L245.511 145.962ZM245.246 146.824L245.857 147.019L245.857 147.019L245.246 146.824ZM245.186 147.011L244.576 146.815L244.576 146.815L245.186 147.011ZM244.895 147.889L245.502 148.097L245.502 148.097L244.895 147.889ZM244.845 148.037L244.239 147.827L244.239 147.827L244.845 148.037ZM244.48 149.051L245.08 149.275L245.08 149.275L244.48 149.051ZM244.439 149.157L243.839 148.932L243.839 148.932L244.439 149.157ZM244.1 150.035L244.696 150.272L244.696 150.271L244.1 150.035ZM244.016 150.247L243.421 150.007L243.421 150.007L244.016 150.247ZM243.171 152.214L243.754 152.48L243.754 152.48L243.171 152.214ZM243.1 152.369L242.518 152.101L242.518 152.101L243.1 152.369ZM242.698 153.22L243.275 153.499L243.275 153.499L242.698 153.22ZM242.633 153.356L242.056 153.075L242.056 153.075L242.633 153.356ZM241.65 155.261L242.213 155.568L242.213 155.568L241.65 155.261ZM241.537 155.467L240.976 155.157L240.976 155.157L241.537 155.467ZM241.064 156.306L241.619 156.627L241.619 156.627L241.064 156.306ZM241.013 156.394L240.458 156.072L240.458 156.072L241.013 156.394ZM240.46 157.323L241.007 157.658L241.007 157.658L240.46 157.323ZM240.383 157.447L239.837 157.111L239.837 157.111L240.383 157.447ZM238.668 160.044L238.145 159.673L238.134 159.689L238.123 159.705L238.668 160.044ZM203.223 217.042L202.679 216.704L202.671 216.716L202.664 216.729L203.223 217.042ZM185.41 235.07L185.731 235.625L185.731 235.625L185.41 235.07ZM136.245 234.295L136.583 233.75L136.583 233.75L136.245 234.295ZM120.034 217.552L119.479 217.872L119.479 217.872L120.034 217.552ZM119.746 217.041L119.187 217.355L119.187 217.355L119.746 217.041ZM119.726 217.005L120.286 216.692L120.286 216.692L119.726 217.005ZM119.452 216.51L118.889 216.816L118.889 216.816L119.452 216.51ZM119.386 216.388L119.95 216.082L119.95 216.082L119.386 216.388ZM122.569 165.743L123.09 166.116L123.102 166.099L123.113 166.081L122.569 165.743ZM157.798 109.09L158.342 109.428L158.351 109.415L158.359 109.401L157.798 109.09ZM175.712 90.884L175.392 90.3287L175.392 90.3287L175.712 90.884ZM241.084 108.401L240.529 108.722C240.669 108.964 240.806 109.207 240.941 109.451L241.502 109.14L242.063 108.829C241.924 108.58 241.784 108.33 241.64 108.081L241.084 108.401ZM241.502 109.14L240.941 109.451C240.963 109.491 240.979 109.519 240.998 109.554L241.56 109.244L242.121 108.935C242.102 108.9 242.079 108.859 242.063 108.829L241.502 109.14ZM241.56 109.244L240.998 109.554C241.408 110.297 241.795 111.047 242.161 111.802L242.738 111.523L243.315 111.244C242.94 110.468 242.542 109.698 242.121 108.935L241.56 109.244ZM242.738 111.523L242.161 111.802C242.191 111.864 242.175 111.83 242.198 111.879L242.776 111.6L243.353 111.322C243.346 111.306 243.338 111.291 243.332 111.278C243.325 111.264 243.32 111.254 243.315 111.244L242.738 111.523ZM242.776 111.6L242.198 111.879C242.317 112.124 242.432 112.371 242.547 112.619L243.129 112.35L243.711 112.082C243.595 111.829 243.476 111.575 243.353 111.322L242.776 111.6ZM243.129 112.35L242.547 112.619C242.561 112.65 242.567 112.664 242.584 112.702L243.167 112.434L243.75 112.167C243.742 112.149 243.723 112.107 243.711 112.082L243.129 112.35ZM243.167 112.434L242.584 112.702C242.818 113.212 243.043 113.724 243.257 114.237L243.849 113.99L244.441 113.744C244.221 113.215 243.99 112.69 243.75 112.167L243.167 112.434ZM243.849 113.99L243.257 114.237C243.263 114.251 243.264 114.254 243.271 114.271L243.863 114.025L244.456 113.779C244.453 113.773 244.445 113.753 244.441 113.744L243.849 113.99ZM243.863 114.025L243.271 114.271C243.487 114.791 243.693 115.314 243.889 115.839L244.49 115.614L245.09 115.389C244.889 114.851 244.678 114.314 244.456 113.779L243.863 114.025ZM244.49 115.614L243.889 115.839C243.913 115.901 243.899 115.863 243.917 115.912L244.518 115.688L245.119 115.464C245.113 115.449 245.107 115.434 245.103 115.422C245.098 115.409 245.094 115.399 245.09 115.389L244.49 115.614ZM244.518 115.688L243.917 115.912C243.99 116.109 244.061 116.308 244.134 116.511L244.738 116.295L245.342 116.08C245.27 115.878 245.196 115.671 245.119 115.464L244.518 115.688ZM244.738 116.295L244.134 116.511C244.221 116.754 244.305 116.998 244.388 117.244L244.995 117.038L245.603 116.833C245.518 116.583 245.431 116.331 245.342 116.08L244.738 116.295ZM244.995 117.038L244.388 117.244C244.429 117.365 244.436 117.377 244.468 117.475L245.076 117.272L245.685 117.07C245.665 117.011 245.615 116.869 245.603 116.833L244.995 117.038ZM245.076 117.272L244.468 117.475C244.575 117.798 244.678 118.124 244.779 118.453L245.392 118.264L246.005 118.075C245.902 117.743 245.797 117.406 245.685 117.07L245.076 117.272ZM245.392 118.264L244.779 118.453C244.809 118.549 244.838 118.646 244.868 118.746L245.482 118.561L246.096 118.376C246.066 118.277 246.036 118.176 246.005 118.075L245.392 118.264ZM245.482 118.561L244.868 118.746C244.942 118.993 245.015 119.241 245.085 119.49L245.702 119.315L246.319 119.141C246.247 118.886 246.173 118.631 246.096 118.376L245.482 118.561ZM245.702 119.315L245.085 119.49C245.115 119.595 245.144 119.697 245.172 119.798L245.79 119.628L246.408 119.457C246.379 119.35 246.348 119.243 246.319 119.141L245.702 119.315ZM245.79 119.628L245.172 119.798C245.261 120.123 245.348 120.446 245.43 120.769L246.051 120.611L246.673 120.454C246.588 120.12 246.499 119.788 246.408 119.457L245.79 119.628ZM246.051 120.611L245.43 120.769C245.451 120.854 245.461 120.9 245.486 121.002L246.109 120.848L246.731 120.694C246.717 120.638 246.691 120.526 246.673 120.454L246.051 120.611ZM246.109 120.848L245.486 121.002C245.551 121.263 245.614 121.524 245.674 121.785L246.299 121.641L246.923 121.498C246.862 121.229 246.797 120.961 246.731 120.693L246.109 120.848ZM246.299 121.641L245.674 121.785C245.698 121.893 245.723 122.002 245.747 122.11L246.373 121.971L246.999 121.833C246.974 121.721 246.949 121.609 246.924 121.498L246.299 121.641ZM246.373 121.971L245.747 122.11C245.807 122.38 245.865 122.65 245.92 122.92L246.548 122.792L247.176 122.664C247.12 122.386 247.06 122.109 246.999 121.833L246.373 121.971ZM246.548 122.792L245.92 122.92C245.937 123.006 245.951 123.072 245.967 123.149L246.596 123.025L247.224 122.9C247.209 122.822 247.19 122.733 247.176 122.664L246.548 122.792ZM246.596 123.025L245.967 123.149C246.033 123.486 246.097 123.823 246.156 124.159L246.787 124.048L247.419 123.938C247.358 123.591 247.293 123.245 247.224 122.9L246.596 123.025ZM246.787 124.048L246.156 124.159C246.168 124.231 246.176 124.283 246.191 124.366L246.823 124.258L247.455 124.15C247.445 124.094 247.431 124.005 247.419 123.938L246.787 124.048ZM246.823 124.258L246.191 124.366C246.238 124.646 246.283 124.926 246.326 125.208L246.96 125.111L247.594 125.015C247.55 124.727 247.504 124.439 247.455 124.15L246.823 124.258ZM246.96 125.111L246.326 125.208C246.341 125.305 246.355 125.402 246.37 125.499L247.004 125.406L247.639 125.314C247.624 125.214 247.609 125.114 247.594 125.015L246.96 125.111ZM247.004 125.406L246.37 125.499C246.411 125.783 246.45 126.067 246.486 126.352L247.122 126.271L247.758 126.19C247.721 125.898 247.681 125.606 247.639 125.314L247.004 125.406ZM247.122 126.271L246.486 126.351C246.497 126.438 246.5 126.456 246.509 126.526L247.145 126.448L247.782 126.369C247.776 126.322 247.762 126.221 247.758 126.19L247.122 126.271ZM247.145 126.448L246.509 126.526C246.552 126.874 246.59 127.222 246.626 127.57L247.264 127.506L247.901 127.442C247.866 127.085 247.826 126.727 247.782 126.369L247.145 126.448ZM247.264 127.506L246.626 127.57C246.634 127.655 246.635 127.677 246.645 127.781L247.283 127.719L247.921 127.658C247.917 127.62 247.907 127.499 247.901 127.442L247.264 127.506ZM247.283 127.719L246.645 127.781C246.67 128.048 246.695 128.314 246.715 128.58L247.355 128.529L247.994 128.479C247.972 128.204 247.947 127.93 247.921 127.658L247.283 127.719ZM247.355 128.529L246.715 128.58C246.724 128.688 246.732 128.796 246.74 128.904L247.38 128.858L248.019 128.811C248.011 128.7 248.003 128.589 247.994 128.479L247.355 128.529ZM247.38 128.858L246.74 128.904C246.788 129.575 246.823 130.247 246.842 130.918L247.483 130.9L248.124 130.881C248.104 130.191 248.069 129.501 248.019 128.811L247.38 128.858ZM247.483 130.9L246.842 130.918C246.845 131.033 246.847 131.147 246.85 131.267L247.491 131.254L248.132 131.24C248.13 131.125 248.127 131.002 248.124 130.881L247.483 130.9ZM247.491 131.254L246.85 131.268C246.855 131.512 246.859 131.755 246.861 131.997L247.502 131.993L248.143 131.989C248.141 131.739 248.138 131.489 248.132 131.24L247.491 131.254ZM247.502 131.993L246.861 131.997C246.861 132.097 246.862 132.197 246.862 132.295L247.503 132.296L248.144 132.296C248.144 132.193 248.144 132.09 248.143 131.989L247.502 131.993ZM247.503 132.296L246.862 132.295C246.862 132.628 246.859 132.96 246.852 133.29L247.493 133.304L248.134 133.317C248.141 132.976 248.144 132.635 248.144 132.296L247.503 132.296ZM247.493 133.304L246.852 133.29C246.85 133.376 246.847 133.429 246.845 133.53L247.486 133.547L248.127 133.564C248.128 133.503 248.132 133.394 248.134 133.317L247.493 133.304ZM247.486 133.547L246.845 133.53C246.838 133.792 246.829 134.054 246.818 134.316L247.458 134.343L248.099 134.371C248.11 134.102 248.12 133.833 248.127 133.564L247.486 133.547ZM247.458 134.343L246.818 134.316C246.813 134.426 246.807 134.535 246.801 134.65L247.442 134.682L248.082 134.714C248.088 134.603 248.094 134.487 248.099 134.371L247.458 134.343ZM247.442 134.682L246.801 134.65C246.787 134.933 246.771 135.214 246.752 135.495L247.392 135.539L248.031 135.582C248.051 135.292 248.068 135.003 248.082 134.714L247.442 134.682ZM247.392 135.539L246.752 135.495C246.748 135.557 246.746 135.592 246.742 135.645L247.382 135.691L248.021 135.737C248.025 135.688 248.029 135.622 248.031 135.582L247.392 135.539ZM247.382 135.691L246.742 135.645C246.717 135.992 246.689 136.338 246.656 136.684L247.295 136.744L247.933 136.803C247.966 136.448 247.996 136.093 248.021 135.737L247.382 135.691ZM247.295 136.744L246.656 136.684C246.65 136.751 246.644 136.815 246.637 136.887L247.275 136.949L247.913 137.012C247.919 136.946 247.927 136.874 247.933 136.803L247.295 136.744ZM247.275 136.949L246.637 136.887C246.61 137.163 246.579 137.44 246.547 137.717L247.184 137.791L247.821 137.864C247.854 137.581 247.885 137.297 247.913 137.012L247.275 136.949ZM247.184 137.791L246.547 137.717C246.536 137.815 246.525 137.912 246.513 138.01L247.149 138.087L247.786 138.165C247.798 138.064 247.81 137.964 247.821 137.864L247.184 137.791ZM247.149 138.087L246.513 138.01C246.431 138.683 246.335 139.354 246.225 140.022L246.857 140.127L247.49 140.231C247.604 139.544 247.701 138.855 247.786 138.165L247.149 138.087ZM246.857 140.127L246.225 140.022C246.21 140.108 246.198 140.177 246.181 140.275L246.813 140.383L247.445 140.492C247.457 140.418 247.476 140.317 247.49 140.231L246.857 140.127ZM246.813 140.383L246.181 140.275C246.135 140.54 246.088 140.805 246.038 141.07L246.668 141.189L247.298 141.308C247.349 141.036 247.398 140.764 247.445 140.492L246.813 140.383ZM246.668 141.189L246.038 141.07C246.019 141.17 246.004 141.252 245.986 141.343L246.616 141.466L247.245 141.589C247.263 141.495 247.282 141.392 247.298 141.308L246.668 141.189ZM246.616 141.466L245.986 141.343C245.857 142.009 245.711 142.672 245.553 143.332L246.176 143.482L246.8 143.632C246.962 142.955 247.111 142.274 247.245 141.589L246.616 141.466ZM246.176 143.482L245.553 143.332C245.531 143.422 245.513 143.498 245.493 143.58L246.116 143.733L246.739 143.886C246.76 143.801 246.781 143.71 246.8 143.632L246.176 143.482ZM246.116 143.733L245.493 143.58C245.428 143.846 245.36 144.112 245.29 144.378L245.909 144.542L246.529 144.705C246.601 144.434 246.671 144.161 246.739 143.886L246.116 143.733ZM245.909 144.542L245.29 144.378C245.264 144.474 245.246 144.546 245.223 144.631L245.842 144.798L246.461 144.965C246.484 144.879 246.51 144.78 246.529 144.705L245.909 144.542ZM245.842 144.798L245.223 144.631C245.138 144.947 245.049 145.262 244.957 145.577L245.572 145.757L246.188 145.936C246.282 145.614 246.373 145.29 246.461 144.965L245.842 144.798ZM245.572 145.757L244.957 145.577C244.937 145.647 244.92 145.7 244.896 145.78L245.511 145.962L246.125 146.145C246.142 146.088 246.168 146.004 246.188 145.936L245.572 145.757ZM245.511 145.962L244.896 145.78C244.812 146.065 244.725 146.348 244.635 146.63L245.246 146.824L245.857 147.019C245.95 146.728 246.039 146.437 246.125 146.145L245.511 145.962ZM245.246 146.824L244.635 146.63C244.616 146.691 244.597 146.75 244.576 146.815L245.186 147.011L245.796 147.208C245.816 147.148 245.837 147.083 245.857 147.019L245.246 146.824ZM245.186 147.011L244.576 146.815C244.482 147.106 244.387 147.394 244.289 147.68L244.895 147.889L245.502 148.097C245.604 147.8 245.701 147.504 245.796 147.208L245.186 147.011ZM244.895 147.889L244.289 147.68C244.266 147.747 244.258 147.772 244.239 147.827L244.845 148.037L245.451 148.248C245.466 148.204 245.491 148.13 245.502 148.097L244.895 147.889ZM244.845 148.037L244.239 147.827C244.123 148.161 244.003 148.494 243.879 148.827L244.48 149.051L245.08 149.275C245.207 148.934 245.331 148.592 245.451 148.248L244.845 148.037ZM244.48 149.051L243.879 148.827C243.874 148.84 243.868 148.854 243.861 148.872C243.855 148.889 243.847 148.91 243.839 148.932L244.439 149.157L245.039 149.382C245.045 149.368 245.05 149.354 245.057 149.336C245.064 149.318 245.072 149.297 245.08 149.275L244.48 149.051ZM244.439 149.157L243.839 148.932C243.73 149.222 243.619 149.51 243.504 149.798L244.1 150.035L244.696 150.271C244.813 149.976 244.928 149.679 245.039 149.382L244.439 149.157ZM244.1 150.035L243.504 149.798C243.473 149.877 243.45 149.937 243.421 150.007L244.016 150.247L244.611 150.486C244.639 150.415 244.671 150.334 244.696 150.272L244.1 150.035ZM244.016 150.247L243.421 150.007C243.159 150.659 242.88 151.306 242.587 151.948L243.171 152.214L243.754 152.48C244.054 151.822 244.34 151.157 244.611 150.486L244.016 150.247ZM243.171 152.214L242.587 151.948C242.564 152 242.541 152.051 242.518 152.101L243.1 152.369L243.683 152.637C243.707 152.584 243.731 152.532 243.754 152.48L243.171 152.214ZM243.1 152.369L242.518 152.101C242.388 152.382 242.256 152.662 242.121 152.941L242.698 153.22L243.275 153.499C243.414 153.213 243.55 152.926 243.683 152.637L243.1 152.369ZM242.698 153.22L242.121 152.941C242.097 152.99 242.078 153.03 242.056 153.075L242.633 153.356L243.209 153.637C243.231 153.591 243.256 153.54 243.275 153.499L242.698 153.22ZM242.633 153.356L242.056 153.075C241.747 153.708 241.424 154.334 241.087 154.954L241.65 155.261L242.213 155.568C242.559 154.931 242.892 154.287 243.209 153.637L242.633 153.356ZM241.65 155.261L241.087 154.954C241.048 155.024 241.012 155.091 240.976 155.157L241.537 155.467L242.099 155.776C242.138 155.706 242.176 155.635 242.213 155.568L241.65 155.261ZM241.537 155.467L240.976 155.157C240.823 155.435 240.667 155.711 240.508 155.986L241.064 156.306L241.619 156.627C241.782 156.345 241.942 156.061 242.099 155.776L241.537 155.467ZM241.064 156.306L240.508 155.986C240.489 156.018 240.475 156.043 240.458 156.072L241.013 156.394L241.567 156.716C241.584 156.687 241.604 156.653 241.619 156.627L241.064 156.306ZM241.013 156.394L240.458 156.072C240.28 156.38 240.098 156.686 239.913 156.989L240.46 157.323L241.007 157.658C241.198 157.345 241.384 157.031 241.567 156.716L241.013 156.394ZM240.46 157.323L239.913 156.989C239.879 157.045 239.88 157.041 239.837 157.111L240.383 157.447L240.929 157.783C240.937 157.77 240.991 157.685 241.007 157.658L240.46 157.323ZM240.383 157.447L239.837 157.111C239.302 157.981 238.738 158.837 238.145 159.673L238.668 160.044L239.191 160.415C239.801 159.554 240.38 158.676 240.929 157.783L240.383 157.447ZM238.668 160.044L238.123 159.705L202.679 216.704L203.223 217.042L203.768 217.381L239.212 160.382L238.668 160.044ZM203.223 217.042L202.664 216.729C198.652 223.896 192.72 230.109 185.09 234.515L185.41 235.07L185.731 235.625C193.567 231.101 199.662 224.718 203.783 217.355L203.223 217.042ZM185.41 235.07L185.09 234.515C169.493 243.519 150.894 242.613 136.583 233.75L136.245 234.295L135.908 234.84C150.605 243.942 169.709 244.875 185.731 235.625L185.41 235.07ZM136.245 234.295L136.583 233.75C130.174 229.781 124.623 224.218 120.589 217.231L120.034 217.552L119.479 217.872C123.621 225.047 129.323 230.763 135.908 234.84L136.245 234.295ZM120.034 217.552L120.589 217.231C120.494 217.066 120.403 216.902 120.305 216.728L119.746 217.041L119.187 217.355C119.28 217.521 119.378 217.699 119.479 217.872L120.034 217.552ZM119.746 217.041L120.305 216.728C120.305 216.728 120.305 216.727 120.304 216.726C120.303 216.724 120.302 216.723 120.301 216.719C120.298 216.714 120.292 216.703 120.286 216.692L119.726 217.005L119.167 217.319C119.167 217.319 119.167 217.319 119.168 217.321C119.169 217.322 119.17 217.324 119.172 217.328C119.175 217.333 119.18 217.344 119.187 217.355L119.746 217.041ZM119.726 217.005L120.286 216.692C120.195 216.53 120.105 216.366 120.015 216.203L119.452 216.51L118.889 216.816C118.981 216.984 119.073 217.151 119.167 217.319L119.726 217.005ZM119.452 216.51L120.015 216.203C119.993 216.162 119.975 216.128 119.95 216.082L119.386 216.388L118.823 216.693C118.842 216.729 118.867 216.776 118.889 216.816L119.452 216.51ZM119.386 216.388L119.95 216.082C111.108 199.753 112.879 180.384 123.09 166.116L122.569 165.743L122.047 165.37C111.561 180.023 109.739 199.918 118.823 216.693L119.386 216.388ZM122.569 165.743L123.113 166.081L158.342 109.428L157.798 109.09L157.253 108.751L122.024 165.404L122.569 165.743ZM157.798 109.09L158.359 109.401C162.371 102.16 168.34 95.8809 176.033 91.4393L175.712 90.884L175.392 90.3287C167.492 94.8899 161.359 101.34 157.237 108.779L157.798 109.09ZM175.712 90.884L176.033 91.4393C198.615 78.4015 227.491 86.1393 240.529 108.722L241.084 108.401L241.64 108.081C228.248 84.8848 198.588 76.9368 175.392 90.3287L175.712 90.884Z" fill="url(#paint9_linear_444_719)" mask="url(#path-9-inside-4_444_719)"/>
</g>
</g>
<g filter="url(#filter1_diifn_444_719)">
<path d="M196.988 82.3872C197.897 82.3872 198.799 82.4134 199.695 82.4634C199.704 82.4639 199.713 82.4648 199.722 82.4653C200.604 82.515 201.48 82.5882 202.35 82.6851C202.363 82.6865 202.376 82.6875 202.39 82.689C202.655 82.7188 202.92 82.7505 203.185 82.7847C203.257 82.794 203.33 82.8043 203.402 82.814C203.612 82.8421 203.821 82.872 204.03 82.9028C204.079 82.91 204.127 82.917 204.176 82.9243C204.415 82.9603 204.653 82.9971 204.891 83.0366C205.012 83.0568 205.134 83.079 205.255 83.1001C205.355 83.1175 205.455 83.1348 205.555 83.1528C206.296 83.2867 207.032 83.4374 207.761 83.605C207.799 83.6137 207.837 83.6225 207.875 83.6313C208.197 83.7062 208.517 83.7854 208.837 83.8667C208.901 83.883 208.965 83.899 209.028 83.9155C209.748 84.1018 210.46 84.3045 211.166 84.5229C211.211 84.537 211.257 84.5508 211.302 84.5649C224.369 88.6529 235.028 98.1923 240.612 110.521L272.003 169.251C276.351 176.459 278.854 184.905 278.854 193.936C278.853 220.366 257.427 241.792 230.997 241.792C229.181 241.792 227.388 241.69 225.625 241.493C225.621 241.492 225.617 241.492 225.613 241.492C224.744 241.394 223.883 241.274 223.028 241.13C222.993 241.124 222.957 241.118 222.922 241.112C222.722 241.078 222.522 241.042 222.322 241.005C222.093 240.963 221.865 240.919 221.638 240.874C221.519 240.85 221.4 240.829 221.282 240.804C220.968 240.739 220.655 240.671 220.343 240.6C220.192 240.566 220.041 240.529 219.891 240.494C219.686 240.445 219.481 240.396 219.277 240.344C219.148 240.312 219.018 240.279 218.889 240.246C218.626 240.177 218.364 240.106 218.104 240.033C217.962 239.993 217.821 239.953 217.68 239.913C217.421 239.838 217.163 239.76 216.905 239.681C216.798 239.648 216.69 239.614 216.583 239.581C216.349 239.507 216.115 239.431 215.883 239.354C215.755 239.312 215.628 239.27 215.501 239.226C215.203 239.124 214.907 239.02 214.612 238.913C214.509 238.875 214.407 238.836 214.304 238.797C214.063 238.708 213.823 238.616 213.584 238.523C213.487 238.485 213.391 238.447 213.295 238.409C213.063 238.316 212.832 238.222 212.602 238.126C212.491 238.08 212.38 238.035 212.27 237.988C211.972 237.861 211.675 237.732 211.381 237.599C211.279 237.553 211.177 237.505 211.075 237.458C210.86 237.36 210.647 237.26 210.434 237.159C210.316 237.103 210.2 237.046 210.083 236.99C209.815 236.859 209.548 236.728 209.282 236.592C209.253 236.578 209.224 236.563 209.195 236.548C208.886 236.39 208.578 236.226 208.272 236.061C208.184 236.013 208.095 235.964 208.007 235.916C207.788 235.796 207.571 235.674 207.354 235.551C207.252 235.493 207.15 235.435 207.049 235.376C206.802 235.233 206.556 235.087 206.312 234.94C206.24 234.897 206.167 234.854 206.096 234.81C205.82 234.642 205.546 234.47 205.273 234.296C205.211 234.256 205.148 234.216 205.086 234.175C204.839 234.016 204.593 233.854 204.349 233.69C204.296 233.654 204.243 233.619 204.19 233.583C203.606 233.187 203.03 232.779 202.464 232.358C202.391 232.304 202.319 232.249 202.247 232.195C201.998 232.007 201.75 231.818 201.505 231.625C201.481 231.606 201.456 231.588 201.432 231.569C201.144 231.342 200.858 231.112 200.575 230.879C200.551 230.86 200.528 230.84 200.504 230.82C200.258 230.616 200.014 230.409 199.771 230.201C199.709 230.147 199.646 230.092 199.584 230.038C199.346 229.83 199.109 229.622 198.875 229.41C198.852 229.389 198.829 229.368 198.806 229.347C198.545 229.11 198.288 228.871 198.033 228.628C197.973 228.571 197.913 228.512 197.853 228.455C197.658 228.268 197.465 228.078 197.273 227.888C197.211 227.826 197.149 227.765 197.087 227.703C196.591 227.204 196.105 226.695 195.631 226.175C195.582 226.122 195.534 226.069 195.485 226.015C195.29 225.799 195.096 225.58 194.904 225.36C194.856 225.305 194.808 225.25 194.76 225.195C194.526 224.924 194.295 224.651 194.067 224.375C194.056 224.362 194.045 224.348 194.034 224.334C193.82 224.075 193.61 223.813 193.401 223.548C193.361 223.497 193.321 223.446 193.281 223.395C193.092 223.154 192.905 222.911 192.721 222.666C192.687 222.621 192.653 222.576 192.619 222.531C192.404 222.243 192.192 221.952 191.983 221.659C191.966 221.634 191.948 221.608 191.931 221.583C191.743 221.319 191.558 221.052 191.375 220.783C191.336 220.725 191.297 220.666 191.258 220.608C191.084 220.35 190.913 220.089 190.744 219.828C190.716 219.785 190.688 219.742 190.66 219.699C190.471 219.403 190.285 219.106 190.103 218.806C190.071 218.754 190.04 218.701 190.008 218.648C189.847 218.382 189.689 218.115 189.533 217.845C189.504 217.794 189.474 217.743 189.444 217.692C189.078 217.053 188.726 216.406 188.39 215.75C188.378 215.726 188.366 215.703 188.354 215.679C188.199 215.375 188.047 215.07 187.898 214.762C187.878 214.72 187.857 214.678 187.837 214.636C187.687 214.324 187.54 214.011 187.396 213.695L156.018 154.987C151.648 147.767 149.133 139.299 149.133 130.244C149.133 103.814 170.558 82.3874 196.988 82.3872Z" fill="url(#paint10_linear_444_719)" fill-opacity="0.58" shape-rendering="crispEdges"/>
<path d="M196.988 82.3872L196.988 81.746H196.988L196.988 82.3872ZM199.695 82.4634L199.66 83.1036L199.66 83.1036L199.695 82.4634ZM199.722 82.4653L199.758 81.8252L199.758 81.8252L199.722 82.4653ZM202.35 82.6851L202.279 83.3223L202.279 83.3223L202.35 82.6851ZM202.39 82.689L202.461 82.0518L202.461 82.0518L202.39 82.689ZM203.185 82.7847L203.102 83.4206L203.102 83.4206L203.185 82.7847ZM203.402 82.814L203.487 82.1785L203.487 82.1784L203.402 82.814ZM204.03 82.9028L203.937 83.5372L203.937 83.5372L204.03 82.9028ZM204.176 82.9243L204.271 82.2903L204.271 82.2903L204.176 82.9243ZM204.891 83.0366L204.786 83.6691L204.786 83.6692L204.891 83.0366ZM205.255 83.1001L205.365 82.4684L205.365 82.4684L205.255 83.1001ZM205.555 83.1528L205.441 83.7838L205.441 83.7838L205.555 83.1528ZM207.761 83.605L207.904 82.9801L207.904 82.9801L207.761 83.605ZM207.875 83.6313L207.73 84.2559L207.73 84.2559L207.875 83.6313ZM208.837 83.8667L208.995 83.2454L208.995 83.2453L208.837 83.8667ZM209.028 83.9155L208.867 84.5362L208.868 84.5362L209.028 83.9155ZM211.166 84.5229L211.356 83.9105L211.356 83.9104L211.166 84.5229ZM211.302 84.5649L211.11 85.1768L211.11 85.1769L211.302 84.5649ZM240.612 110.521L240.028 110.786L240.037 110.805L240.047 110.823L240.612 110.521ZM272.003 169.251L271.437 169.554L271.445 169.568L271.454 169.583L272.003 169.251ZM278.854 193.936L279.495 193.936V193.936H278.854ZM230.997 241.792V242.434H230.997L230.997 241.792ZM225.625 241.493L225.696 240.855H225.696L225.625 241.493ZM225.613 241.492L225.542 242.129H225.542L225.613 241.492ZM223.028 241.13L223.134 240.498H223.134L223.028 241.13ZM222.922 241.112L222.814 241.744H222.814L222.922 241.112ZM222.322 241.005L222.438 240.375H222.438L222.322 241.005ZM221.638 240.874L221.513 241.502L221.513 241.502L221.638 240.874ZM221.282 240.804L221.412 240.176H221.412L221.282 240.804ZM220.343 240.6L220.201 241.225L220.201 241.225L220.343 240.6ZM219.891 240.494L220.039 239.87L220.039 239.87L219.891 240.494ZM219.277 240.344L219.121 240.966L219.121 240.966L219.277 240.344ZM218.889 240.246L219.05 239.625L219.05 239.625L218.889 240.246ZM218.104 240.033L217.931 240.65H217.931L218.104 240.033ZM217.68 239.913L217.858 239.297L217.858 239.297L217.68 239.913ZM216.905 239.681L216.717 240.294H216.717L216.905 239.681ZM216.583 239.581L216.776 238.969H216.776L216.583 239.581ZM215.883 239.354L215.68 239.962L215.68 239.962L215.883 239.354ZM215.501 239.226L215.708 238.619L215.708 238.619L215.501 239.226ZM214.612 238.913L214.393 239.515L214.393 239.515L214.612 238.913ZM214.304 238.797L214.527 238.196H214.527L214.304 238.797ZM213.584 238.523L213.351 239.12L213.351 239.12L213.584 238.523ZM213.295 238.409L213.532 237.813L213.532 237.813L213.295 238.409ZM212.602 238.126L212.355 238.718L212.355 238.718L212.602 238.126ZM212.27 237.988L212.521 237.398L212.521 237.398L212.27 237.988ZM211.381 237.599L211.118 238.184L211.118 238.184L211.381 237.599ZM211.075 237.458L211.342 236.876L211.342 236.876L211.075 237.458ZM210.434 237.159L210.158 237.738L210.158 237.738L210.434 237.159ZM210.083 236.99L210.364 236.413L210.364 236.413L210.083 236.99ZM209.282 236.592L208.991 237.163L208.991 237.163L209.282 236.592ZM209.195 236.548L209.488 235.978L209.488 235.978L209.195 236.548ZM208.272 236.061L207.968 236.625L207.968 236.625L208.272 236.061ZM208.007 235.916L208.315 235.353L208.315 235.353L208.007 235.916ZM207.354 235.551L207.037 236.108L207.037 236.108L207.354 235.551ZM207.049 235.376L207.37 234.822L207.37 234.822L207.049 235.376ZM206.312 234.94L205.98 235.489L205.98 235.489L206.312 234.94ZM206.096 234.81L206.43 234.263L206.43 234.263L206.096 234.81ZM205.273 234.296L204.928 234.837L204.928 234.837L205.273 234.296ZM205.086 234.175L205.434 233.637H205.434L205.086 234.175ZM204.349 233.69L203.991 234.222L203.991 234.222L204.349 233.69ZM204.19 233.583L204.55 233.053L204.55 233.053L204.19 233.583ZM202.464 232.358L202.081 232.872L202.081 232.872L202.464 232.358ZM202.247 232.195L202.633 231.683L202.633 231.683L202.247 232.195ZM201.505 231.625L201.109 232.13L201.109 232.13L201.505 231.625ZM201.432 231.569L201.828 231.065L201.828 231.065L201.432 231.569ZM200.575 230.879L200.167 231.374L200.167 231.374L200.575 230.879ZM200.504 230.82L200.913 230.326L200.913 230.326L200.504 230.82ZM199.771 230.201L199.353 230.686L199.353 230.686L199.771 230.201ZM199.584 230.038L200.005 229.554L200.005 229.554L199.584 230.038ZM198.875 229.41L198.444 229.885L198.444 229.885L198.875 229.41ZM198.806 229.347L199.237 228.873L199.237 228.873L198.806 229.347ZM198.033 228.628L197.591 229.093L197.591 229.093L198.033 228.628ZM197.853 228.455L198.297 227.992L198.297 227.992L197.853 228.455ZM197.273 227.888L196.822 228.343L196.822 228.343L197.273 227.888ZM197.087 227.703L197.541 227.25L197.541 227.25L197.087 227.703ZM195.631 226.175L195.157 226.607L195.157 226.607L195.631 226.175ZM195.485 226.015L195.961 225.585L195.961 225.585L195.485 226.015ZM194.904 225.36L194.421 225.781L194.421 225.781L194.904 225.36ZM194.76 225.195L195.245 224.776L195.245 224.776L194.76 225.195ZM194.067 224.375L193.573 224.784L193.573 224.784L194.067 224.375ZM194.034 224.334L194.529 223.927L194.529 223.927L194.034 224.334ZM193.401 223.548L192.898 223.945L192.898 223.945L193.401 223.548ZM193.281 223.395L193.786 223L193.786 223L193.281 223.395ZM192.721 222.666L192.208 223.051L192.208 223.051L192.721 222.666ZM192.619 222.531L193.133 222.147L193.133 222.147L192.619 222.531ZM191.983 221.659L191.461 222.031L191.461 222.031L191.983 221.659ZM191.931 221.583L192.454 221.213L192.454 221.213L191.931 221.583ZM191.375 220.783L190.845 221.143L190.845 221.143L191.375 220.783ZM191.258 220.608L191.79 220.25L191.79 220.25L191.258 220.608ZM190.744 219.828L190.205 220.175L190.205 220.175L190.744 219.828ZM190.66 219.699L191.2 219.353L191.2 219.353L190.66 219.699ZM190.103 218.806L189.555 219.14L189.555 219.14L190.103 218.806ZM190.008 218.648L190.557 218.316L190.557 218.316L190.008 218.648ZM189.533 217.845L188.978 218.166L188.978 218.166L189.533 217.845ZM189.444 217.692L190.001 217.373L190.001 217.373L189.444 217.692ZM188.39 215.75L187.819 216.042L187.819 216.042L188.39 215.75ZM188.354 215.679L188.925 215.387L188.925 215.387L188.354 215.679ZM187.898 214.762L187.321 215.042L187.321 215.042L187.898 214.762ZM187.837 214.636L188.415 214.359L188.415 214.359L187.837 214.636ZM187.396 213.695L187.98 213.43L187.972 213.411L187.962 213.393L187.396 213.695ZM156.018 154.987L156.583 154.685L156.575 154.669L156.566 154.655L156.018 154.987ZM149.133 130.244L148.492 130.244V130.244L149.133 130.244ZM196.988 82.3872L196.988 83.0284C197.884 83.0284 198.775 83.0542 199.66 83.1036L199.695 82.4634L199.731 81.8232C198.824 81.7726 197.909 81.746 196.988 81.746L196.988 82.3872ZM199.695 82.4634L199.66 83.1036C199.656 83.1034 199.654 83.1032 199.653 83.1032C199.653 83.1031 199.653 83.1031 199.655 83.1033C199.657 83.1035 199.661 83.1038 199.666 83.1042C199.671 83.1046 199.678 83.1051 199.686 83.1055L199.722 82.4653L199.758 81.8252C199.761 81.8253 199.763 81.8255 199.764 81.8256C199.764 81.8256 199.764 81.8256 199.762 81.8254C199.76 81.8252 199.755 81.8249 199.751 81.8245C199.746 81.8241 199.739 81.8236 199.731 81.8232L199.695 82.4634ZM199.722 82.4653L199.686 83.1055C200.557 83.1546 201.421 83.2267 202.279 83.3223L202.35 82.6851L202.421 82.0478C201.54 81.9496 200.652 81.8755 199.758 81.8252L199.722 82.4653ZM202.35 82.6851L202.279 83.3223C202.293 83.3239 202.306 83.3251 202.312 83.3256C202.32 83.3263 202.319 83.3263 202.318 83.3262L202.39 82.689L202.461 82.0518C202.447 82.0501 202.433 82.0489 202.427 82.0484C202.42 82.0477 202.419 82.0477 202.421 82.0478L202.35 82.6851ZM202.39 82.689L202.318 83.3261C202.581 83.3556 202.842 83.3869 203.102 83.4206L203.185 82.7847L203.267 82.1488C202.998 82.1141 202.73 82.082 202.461 82.0518L202.39 82.689ZM203.185 82.7847L203.102 83.4206C203.174 83.4298 203.238 83.4389 203.317 83.4495L203.402 82.814L203.487 82.1784C203.422 82.1696 203.34 82.1583 203.267 82.1488L203.185 82.7847ZM203.402 82.814L203.317 83.4495C203.523 83.4771 203.73 83.5066 203.937 83.5372L204.03 82.9028L204.124 82.2685C203.913 82.2374 203.701 82.2071 203.487 82.1785L203.402 82.814ZM204.03 82.9028L203.937 83.5372C203.987 83.5446 204.033 83.5513 204.08 83.5584L204.176 82.9243L204.271 82.2903C204.221 82.2828 204.171 82.2754 204.124 82.2685L204.03 82.9028ZM204.176 82.9243L204.08 83.5584C204.318 83.5941 204.552 83.6304 204.786 83.6691L204.891 83.0366L204.996 82.4041C204.753 82.3639 204.512 82.3265 204.271 82.2903L204.176 82.9243ZM204.891 83.0366L204.786 83.6692C204.905 83.6889 205.016 83.7093 205.145 83.7318L205.255 83.1001L205.365 82.4684C205.251 82.4487 205.12 82.4247 204.996 82.4041L204.891 83.0366ZM205.255 83.1001L205.145 83.7318C205.246 83.7494 205.343 83.7662 205.441 83.7838L205.555 83.1528L205.669 82.5219C205.566 82.5034 205.464 82.4856 205.365 82.4684L205.255 83.1001ZM205.555 83.1528L205.441 83.7838C206.172 83.9159 206.898 84.0646 207.617 84.2299L207.761 83.605L207.904 82.9801C207.165 82.8102 206.42 82.6575 205.669 82.5218L205.555 83.1528ZM207.761 83.605L207.617 84.2298C207.655 84.2387 207.693 84.2472 207.73 84.2559L207.875 83.6313L208.02 83.0068C207.981 82.9978 207.942 82.9888 207.904 82.9801L207.761 83.605ZM207.875 83.6313L207.73 84.2559C208.046 84.3294 208.362 84.4075 208.679 84.4881L208.837 83.8667L208.995 83.2453C208.673 83.1633 208.348 83.083 208.02 83.0068L207.875 83.6313ZM208.837 83.8667L208.679 84.488C208.745 84.505 208.805 84.5201 208.867 84.5362L209.028 83.9155L209.189 83.2948C209.124 83.2779 209.056 83.2609 208.995 83.2454L208.837 83.8667ZM209.028 83.9155L208.868 84.5362C209.577 84.72 210.28 84.9199 210.976 85.1355L211.166 84.5229L211.356 83.9104C210.64 83.689 209.918 83.4836 209.189 83.2948L209.028 83.9155ZM211.166 84.5229L210.976 85.1354C211.025 85.1506 211.066 85.1629 211.11 85.1768L211.302 84.5649L211.493 83.953C211.447 83.9387 211.397 83.9233 211.356 83.9105L211.166 84.5229ZM211.302 84.5649L211.11 85.1769C224.002 89.2098 234.519 98.6217 240.028 110.786L240.612 110.521L241.196 110.256C235.537 97.7629 224.737 88.096 211.493 83.953L211.302 84.5649ZM240.612 110.521L240.047 110.823L271.437 169.554L272.003 169.251L272.568 168.949L241.178 110.219L240.612 110.521ZM272.003 169.251L271.454 169.583C275.743 176.693 278.212 185.025 278.212 193.936H278.854H279.495C279.495 184.785 276.958 176.225 272.552 168.92L272.003 169.251ZM278.854 193.936L278.212 193.936C278.212 220.012 257.073 241.151 230.997 241.151L230.997 241.792L230.997 242.434C257.781 242.433 279.494 220.72 279.495 193.936L278.854 193.936ZM230.997 241.792V241.151C229.205 241.151 227.436 241.05 225.696 240.855L225.625 241.493L225.554 242.13C227.34 242.329 229.157 242.434 230.997 242.434V241.792ZM225.625 241.493L225.696 240.855C225.686 240.854 225.678 240.854 225.673 240.853C225.668 240.853 225.664 240.853 225.663 240.853C225.662 240.852 225.664 240.853 225.667 240.853C225.671 240.853 225.677 240.854 225.685 240.854L225.613 241.492L225.542 242.129C225.552 242.13 225.56 242.131 225.565 242.131C225.57 242.132 225.574 242.132 225.575 242.132C225.576 242.132 225.574 242.132 225.571 242.132C225.568 242.131 225.562 242.131 225.554 242.13L225.625 241.493ZM225.613 241.492L225.685 240.854C224.827 240.759 223.977 240.639 223.134 240.498L223.028 241.13L222.922 241.763C223.788 241.908 224.661 242.03 225.542 242.129L225.613 241.492ZM223.028 241.13L223.134 240.498C223.081 240.489 223.096 240.491 223.029 240.48L222.922 241.112L222.814 241.744C222.819 241.745 222.904 241.76 222.922 241.763L223.028 241.13ZM222.922 241.112L223.029 240.48C222.833 240.446 222.636 240.411 222.438 240.375L222.322 241.005L222.207 241.636C222.408 241.673 222.61 241.709 222.814 241.744L222.922 241.112ZM222.322 241.005L222.438 240.375C222.214 240.334 221.99 240.29 221.762 240.245L221.638 240.874L221.513 241.502C221.741 241.548 221.973 241.593 222.207 241.636L222.322 241.005ZM221.638 240.874L221.762 240.245C221.625 240.217 221.531 240.201 221.412 240.176L221.282 240.804L221.153 241.432C221.269 241.456 221.413 241.483 221.513 241.502L221.638 240.874ZM221.282 240.804L221.412 240.176C221.102 240.112 220.793 240.045 220.485 239.975L220.343 240.6L220.201 241.225C220.516 241.297 220.834 241.366 221.153 241.432L221.282 240.804ZM220.343 240.6L220.485 239.975C220.338 239.941 220.192 239.906 220.039 239.87L219.891 240.494L219.742 241.117C219.89 241.153 220.046 241.19 220.201 241.225L220.343 240.6ZM219.891 240.494L220.039 239.87C219.835 239.821 219.634 239.773 219.434 239.722L219.277 240.344L219.121 240.966C219.329 241.018 219.536 241.068 219.742 241.117L219.891 240.494ZM219.277 240.344L219.434 239.722C219.302 239.689 219.176 239.658 219.05 239.625L218.889 240.246L218.727 240.866C218.86 240.901 218.993 240.934 219.121 240.966L219.277 240.344ZM218.889 240.246L219.05 239.625C218.793 239.558 218.535 239.487 218.276 239.415L218.104 240.033L217.931 240.65C218.194 240.724 218.459 240.796 218.727 240.866L218.889 240.246ZM218.104 240.033L218.276 239.415C218.135 239.376 217.996 239.337 217.858 239.297L217.68 239.913L217.502 240.529C217.645 240.57 217.789 240.611 217.931 240.65L218.104 240.033ZM217.68 239.913L217.858 239.297C217.603 239.223 217.348 239.147 217.094 239.068L216.905 239.681L216.717 240.294C216.977 240.374 217.238 240.452 217.502 240.529L217.68 239.913ZM216.905 239.681L217.094 239.068C216.988 239.036 216.882 239.003 216.776 238.969L216.583 239.581L216.39 240.192C216.498 240.226 216.607 240.26 216.717 240.294L216.905 239.681ZM216.583 239.581L216.776 238.969C216.544 238.896 216.314 238.822 216.085 238.746L215.883 239.354L215.68 239.962C215.917 240.041 216.153 240.117 216.39 240.192L216.583 239.581ZM215.883 239.354L216.085 238.746C215.956 238.703 215.832 238.662 215.708 238.619L215.501 239.226L215.293 239.833C215.424 239.877 215.555 239.921 215.68 239.962L215.883 239.354ZM215.501 239.226L215.708 238.619C215.415 238.519 215.122 238.416 214.832 238.31L214.612 238.913L214.393 239.515C214.692 239.624 214.992 239.73 215.293 239.833L215.501 239.226ZM214.612 238.913L214.832 238.31C214.73 238.273 214.64 238.238 214.527 238.196L214.304 238.797L214.08 239.398C214.174 239.433 214.288 239.477 214.393 239.515L214.612 238.913ZM214.304 238.797L214.527 238.196C214.29 238.108 214.053 238.018 213.817 237.926L213.584 238.523L213.351 239.12C213.593 239.215 213.836 239.308 214.08 239.398L214.304 238.797ZM213.584 238.523L213.817 237.926C213.723 237.889 213.628 237.851 213.532 237.813L213.295 238.409L213.058 239.004C213.154 239.043 213.252 239.082 213.351 239.12L213.584 238.523ZM213.295 238.409L213.532 237.813C213.303 237.722 213.075 237.629 212.848 237.535L212.602 238.126L212.355 238.718C212.589 238.816 212.823 238.911 213.058 239.004L213.295 238.409ZM212.602 238.126L212.848 237.535C212.733 237.487 212.628 237.444 212.521 237.398L212.27 237.988L212.018 238.578C212.132 238.626 212.248 238.674 212.355 238.718L212.602 238.126ZM212.27 237.988L212.521 237.398C212.227 237.273 211.934 237.145 211.644 237.014L211.381 237.599L211.118 238.184C211.417 238.318 211.717 238.449 212.018 238.578L212.27 237.988ZM211.381 237.599L211.644 237.014C211.543 236.969 211.454 236.927 211.342 236.876L211.075 237.458L210.808 238.041C210.9 238.083 211.014 238.137 211.118 238.184L211.381 237.599ZM211.075 237.458L211.342 236.876C211.13 236.778 210.919 236.68 210.709 236.58L210.434 237.159L210.158 237.738C210.374 237.84 210.591 237.942 210.808 238.041L211.075 237.458ZM210.434 237.159L210.709 236.58C210.594 236.525 210.479 236.469 210.364 236.413L210.083 236.99L209.802 237.566C209.92 237.624 210.039 237.681 210.158 237.738L210.434 237.159ZM210.083 236.99L210.364 236.413C210.097 236.284 209.834 236.154 209.574 236.021L209.282 236.592L208.991 237.163C209.261 237.301 209.533 237.435 209.802 237.566L210.083 236.99ZM209.282 236.592L209.574 236.021C209.522 235.995 209.529 235.999 209.488 235.978L209.195 236.548L208.903 237.119C208.92 237.128 208.984 237.16 208.991 237.163L209.282 236.592ZM209.195 236.548L209.488 235.978C209.183 235.822 208.881 235.661 208.577 235.497L208.272 236.061L207.968 236.625C208.276 236.792 208.588 236.957 208.903 237.119L209.195 236.548ZM208.272 236.061L208.577 235.497C208.491 235.45 208.407 235.404 208.315 235.353L208.007 235.916L207.698 236.478C207.784 236.525 207.876 236.576 207.968 236.625L208.272 236.061ZM208.007 235.916L208.315 235.353C208.099 235.235 207.885 235.115 207.672 234.994L207.354 235.551L207.037 236.108C207.257 236.234 207.478 236.356 207.698 236.478L208.007 235.916ZM207.354 235.551L207.672 234.994C207.568 234.935 207.469 234.879 207.37 234.822L207.049 235.376L206.727 235.931C206.832 235.992 206.937 236.051 207.037 236.108L207.354 235.551ZM207.049 235.376L207.37 234.822C207.127 234.681 206.885 234.537 206.643 234.391L206.312 234.94L205.98 235.489C206.227 235.638 206.476 235.786 206.728 235.931L207.049 235.376ZM206.312 234.94L206.643 234.391C206.563 234.343 206.501 234.306 206.43 234.263L206.096 234.81L205.762 235.357C205.834 235.401 205.916 235.45 205.98 235.489L206.312 234.94ZM206.096 234.81L206.43 234.263C206.158 234.097 205.887 233.928 205.619 233.756L205.273 234.296L204.928 234.837C205.204 235.013 205.482 235.186 205.762 235.357L206.096 234.81ZM205.273 234.296L205.619 233.756C205.557 233.717 205.501 233.68 205.434 233.637L205.086 234.175L204.738 234.714C204.796 234.751 204.864 234.796 204.928 234.837L205.273 234.296ZM205.086 234.175L205.434 233.637C205.189 233.479 204.947 233.319 204.706 233.158L204.349 233.69L203.991 234.222C204.239 234.388 204.488 234.552 204.738 234.714L205.086 234.175ZM204.349 233.69L204.706 233.158C204.652 233.121 204.601 233.087 204.55 233.053L204.19 233.583L203.831 234.114C203.885 234.151 203.939 234.188 203.991 234.222L204.349 233.69ZM204.19 233.583L204.55 233.053C203.973 232.662 203.405 232.259 202.847 231.843L202.464 232.358L202.081 232.872C202.655 233.299 203.238 233.713 203.831 234.114L204.19 233.583ZM202.464 232.358L202.847 231.843C202.776 231.791 202.708 231.74 202.633 231.683L202.247 232.195L201.861 232.707C201.93 232.759 202.007 232.817 202.081 232.872L202.464 232.358ZM202.247 232.195L202.633 231.683C202.386 231.497 202.142 231.31 201.9 231.121L201.505 231.625L201.109 232.13C201.359 232.325 201.61 232.518 201.862 232.707L202.247 232.195ZM201.505 231.625L201.9 231.121C201.885 231.109 201.87 231.097 201.859 231.089C201.846 231.079 201.837 231.072 201.828 231.065L201.432 231.569L201.035 232.073C201.051 232.085 201.066 232.097 201.078 232.106C201.091 232.116 201.1 232.123 201.109 232.13L201.505 231.625ZM201.432 231.569L201.828 231.065C201.544 230.841 201.262 230.614 200.983 230.385L200.575 230.879L200.167 231.374C200.454 231.61 200.743 231.843 201.035 232.073L201.432 231.569ZM200.575 230.879L200.983 230.385C200.94 230.349 200.967 230.37 200.913 230.326L200.504 230.82L200.095 231.314C200.105 231.322 200.115 231.33 200.127 231.34C200.139 231.35 200.153 231.362 200.167 231.374L200.575 230.879ZM200.504 230.82L200.913 230.326C200.67 230.125 200.429 229.921 200.19 229.715L199.771 230.201L199.353 230.686C199.598 230.897 199.845 231.107 200.095 231.314L200.504 230.82ZM199.771 230.201L200.19 229.715C200.129 229.662 200.07 229.61 200.005 229.554L199.584 230.038L199.163 230.521C199.223 230.574 199.288 230.631 199.353 230.686L199.771 230.201ZM199.584 230.038L200.005 229.554C199.769 229.348 199.535 229.143 199.306 228.934L198.875 229.41L198.444 229.885C198.683 230.101 198.923 230.312 199.163 230.521L199.584 230.038ZM198.875 229.41L199.306 228.935C199.27 228.903 199.266 228.899 199.237 228.873L198.806 229.347L198.374 229.821C198.392 229.837 198.434 229.875 198.444 229.885L198.875 229.41ZM198.806 229.347L199.237 228.873C198.981 228.64 198.727 228.403 198.475 228.164L198.033 228.628L197.591 229.093C197.849 229.338 198.11 229.581 198.374 229.822L198.806 229.347ZM198.033 228.628L198.475 228.164C198.415 228.107 198.363 228.056 198.297 227.992L197.853 228.455L197.408 228.917C197.463 228.969 197.53 229.035 197.591 229.093L198.033 228.628ZM197.853 228.455L198.297 227.992C198.105 227.808 197.915 227.622 197.725 227.433L197.273 227.888L196.822 228.343C197.015 228.535 197.21 228.727 197.408 228.917L197.853 228.455ZM197.273 227.888L197.725 227.433C197.661 227.37 197.601 227.311 197.541 227.25L197.087 227.703L196.633 228.155C196.696 228.219 196.761 228.283 196.822 228.343L197.273 227.888ZM197.087 227.703L197.541 227.25C197.051 226.758 196.572 226.256 196.105 225.743L195.631 226.175L195.157 226.607C195.638 227.134 196.13 227.65 196.633 228.155L197.087 227.703ZM195.631 226.175L196.105 225.743C196.056 225.69 196.009 225.638 195.961 225.585L195.485 226.015L195.01 226.445C195.059 226.5 195.108 226.554 195.157 226.607L195.631 226.175ZM195.485 226.015L195.961 225.585C195.768 225.372 195.577 225.156 195.388 224.939L194.904 225.36L194.421 225.781C194.615 226.004 194.811 226.225 195.01 226.445L195.485 226.015ZM194.904 225.36L195.388 224.939C195.33 224.872 195.294 224.833 195.245 224.776L194.76 225.195L194.274 225.614C194.321 225.667 194.382 225.737 194.421 225.781L194.904 225.36ZM194.76 225.195L195.245 224.776C195.014 224.508 194.786 224.239 194.562 223.967L194.067 224.375L193.573 224.784C193.804 225.064 194.038 225.34 194.274 225.614L194.76 225.195ZM194.067 224.375L194.562 223.967C194.56 223.965 194.557 223.961 194.551 223.954C194.546 223.948 194.538 223.937 194.529 223.927L194.034 224.334L193.539 224.742C193.542 224.745 193.545 224.749 193.551 224.756C193.556 224.763 193.564 224.773 193.573 224.784L194.067 224.375ZM194.034 224.334L194.529 223.927C194.319 223.671 194.111 223.413 193.905 223.151L193.401 223.548L192.898 223.945C193.109 224.213 193.322 224.478 193.539 224.742L194.034 224.334ZM193.401 223.548L193.905 223.151C193.866 223.102 193.827 223.052 193.786 223L193.281 223.395L192.776 223.79C192.815 223.84 192.857 223.893 192.898 223.945L193.401 223.548ZM193.281 223.395L193.786 223C193.599 222.761 193.414 222.521 193.233 222.28L192.721 222.666L192.208 223.051C192.396 223.3 192.586 223.546 192.776 223.79L193.281 223.395ZM192.721 222.666L193.233 222.28C193.195 222.229 193.167 222.192 193.133 222.147L192.619 222.531L192.105 222.914C192.139 222.959 192.179 223.012 192.208 223.051L192.721 222.666ZM192.619 222.531L193.133 222.147C192.921 221.863 192.712 221.576 192.506 221.287L191.983 221.659L191.461 222.031C191.673 222.328 191.887 222.622 192.105 222.914L192.619 222.531ZM191.983 221.659L192.506 221.287C192.471 221.238 192.497 221.274 192.454 221.213L191.931 221.583L191.408 221.954C191.415 221.964 191.422 221.974 191.431 221.988C191.44 222 191.45 222.015 191.461 222.031L191.983 221.659ZM191.931 221.583L192.454 221.213C192.268 220.951 192.086 220.688 191.905 220.423L191.375 220.783L190.845 221.143C191.03 221.415 191.217 221.686 191.408 221.954L191.931 221.583ZM191.375 220.783L191.905 220.423C191.866 220.364 191.834 220.316 191.79 220.25L191.258 220.608L190.726 220.966C190.76 221.016 190.805 221.085 190.845 221.143L191.375 220.783ZM191.258 220.608L191.79 220.25C191.619 219.995 191.45 219.739 191.283 219.48L190.744 219.828L190.205 220.175C190.376 220.44 190.55 220.704 190.726 220.966L191.258 220.608ZM190.744 219.828L191.283 219.48C191.237 219.409 191.237 219.41 191.2 219.353L190.66 219.699L190.12 220.044C190.139 220.074 190.195 220.16 190.205 220.175L190.744 219.828ZM190.66 219.699L191.2 219.353C191.014 219.062 190.83 218.768 190.65 218.472L190.103 218.806L189.555 219.14C189.74 219.444 189.929 219.745 190.12 220.044L190.66 219.699ZM190.103 218.806L190.65 218.472C190.613 218.412 190.601 218.39 190.557 218.316L190.008 218.648L189.459 218.98C189.478 219.011 189.528 219.095 189.555 219.14L190.103 218.806ZM190.008 218.648L190.557 218.316C190.398 218.054 190.242 217.79 190.088 217.524L189.533 217.845L188.978 218.166C189.136 218.439 189.296 218.71 189.459 218.98L190.008 218.648ZM189.533 217.845L190.088 217.524C190.055 217.466 190.03 217.425 190.001 217.373L189.444 217.692L188.888 218.011C188.917 218.062 188.953 218.122 188.978 218.166L189.533 217.845ZM189.444 217.692L190.001 217.373C189.64 216.743 189.292 216.104 188.96 215.457L188.39 215.75L187.819 216.042C188.161 216.708 188.517 217.364 188.888 218.011L189.444 217.692ZM188.39 215.75L188.96 215.457C188.957 215.45 188.953 215.443 188.947 215.43C188.942 215.419 188.934 215.404 188.925 215.387L188.354 215.679L187.784 215.971C187.787 215.978 187.791 215.986 187.797 215.998C187.803 216.01 187.811 216.026 187.819 216.042L188.39 215.75ZM188.354 215.679L188.925 215.387C188.772 215.088 188.622 214.786 188.476 214.483L187.898 214.762L187.321 215.042C187.472 215.353 187.626 215.663 187.784 215.971L188.354 215.679ZM187.898 214.762L188.476 214.483C188.446 214.422 188.439 214.409 188.415 214.359L187.837 214.636L187.259 214.914C187.275 214.948 187.31 215.019 187.321 215.042L187.898 214.762ZM187.837 214.636L188.415 214.359C188.267 214.05 188.121 213.741 187.98 213.43L187.396 213.695L186.813 213.96C186.958 214.28 187.107 214.598 187.259 214.914L187.837 214.636ZM187.396 213.695L187.962 213.393L156.583 154.685L156.018 154.987L155.452 155.289L186.831 213.997L187.396 213.695ZM156.018 154.987L156.566 154.655C152.255 147.532 149.774 139.179 149.774 130.244L149.133 130.244L148.492 130.244C148.492 139.419 151.04 148.001 155.469 155.319L156.018 154.987ZM149.133 130.244L149.774 130.244C149.774 104.168 170.912 83.0286 196.988 83.0284L196.988 82.3872L196.988 81.746C170.204 81.7463 148.492 103.46 148.492 130.244L149.133 130.244Z" fill="url(#paint11_linear_444_719)" fill-opacity="0.58"/>
</g>
<g filter="url(#filter2_d_444_719)">
<circle cx="231.008" cy="194.379" r="48.3009" fill="url(#paint12_linear_444_719)"/>
</g>
<defs>
<filter id="filter0_df_444_719" x="79.8768" y="20.3462" width="226.616" height="285.261" filterUnits="userSpaceOnUse" color-interpolation-filters="sRGB">
<feFlood flood-opacity="0" result="BackgroundImageFix"/>
<feColorMatrix in="SourceAlpha" type="matrix" values="0 0 0 0 0 0 0 0 0 0 0 0 0 0 0 0 0 0 127 0" result="hardAlpha"/>
<feOffset dx="-5.12949"/>
<feGaussianBlur stdDeviation="32.0593"/>
<feComposite in2="hardAlpha" operator="out"/>
<feColorMatrix type="matrix" values="0 0 0 0 0.51801 0 0 0 0 0.133968 0 0 0 0 0.774038 0 0 0 0.15 0"/>
<feBlend mode="normal" in2="BackgroundImageFix" result="effect1_dropShadow_444_719"/>
<feBlend mode="normal" in="SourceGraphic" in2="effect1_dropShadow_444_719" result="shape"/>
<feGaussianBlur stdDeviation="2.69298" result="effect2_foregroundBlur_444_719"/>
</filter>
<filter id="filter1_diifn_444_719" x="79.244" y="17.6274" width="259.241" height="288.925" filterUnits="userSpaceOnUse" color-interpolation-filters="sRGB">
<feFlood flood-opacity="0" result="BackgroundImageFix"/>
<feColorMatrix in="SourceAlpha" type="matrix" values="0 0 0 0 0 0 0 0 0 0 0 0 0 0 0 0 0 0 127 0" result="hardAlpha"/>
<feOffset dx="-5.12949"/>
<feGaussianBlur stdDeviation="32.0593"/>
<feComposite in2="hardAlpha" operator="out"/>
<feColorMatrix type="matrix" values="0 0 0 0 0.51801 0 0 0 0 0.133968 0 0 0 0 0.774038 0 0 0 0.15 0"/>
<feBlend mode="normal" in2="BackgroundImageFix" result="effect1_dropShadow_444_719"/>
<feBlend mode="normal" in="SourceGraphic" in2="effect1_dropShadow_444_719" result="shape"/>
<feColorMatrix in="SourceAlpha" type="matrix" values="0 0 0 0 0 0 0 0 0 0 0 0 0 0 0 0 0 0 127 0" result="hardAlpha"/>
<feOffset dx="-3.20593" dy="-3.20593"/>
<feGaussianBlur stdDeviation="6.41187"/>
<feComposite in2="hardAlpha" operator="arithmetic" k2="-1" k3="1"/>
<feColorMatrix type="matrix" values="0 0 0 0 1 0 0 0 0 1 0 0 0 0 1 0 0 0 0.3 0"/>
<feBlend mode="normal" in2="shape" result="effect2_innerShadow_444_719"/>
<feColorMatrix in="SourceAlpha" type="matrix" values="0 0 0 0 0 0 0 0 0 0 0 0 0 0 0 0 0 0 127 0" result="hardAlpha"/>
<feOffset dy="2.56475"/>
<feGaussianBlur stdDeviation="44.8831"/>
<feComposite in2="hardAlpha" operator="arithmetic" k2="-1" k3="1"/>
<feColorMatrix type="matrix" values="0 0 0 0 0.776351 0 0 0 0 0.559998 0 0 0 0 0.998397 0 0 0 0.2 0"/>
<feBlend mode="normal" in2="effect2_innerShadow_444_719" result="effect3_innerShadow_444_719"/>
<feGaussianBlur stdDeviation="0.128237" result="effect4_foregroundBlur_444_719"/>
<feTurbulence type="fractalNoise" baseFrequency="5.1986956596374512 5.1986956596374512" stitchTiles="stitch" numOctaves="3" result="noise" seed="3300" />
<feColorMatrix in="noise" type="luminanceToAlpha" result="alphaNoise" />
<feComponentTransfer in="alphaNoise" result="coloredNoise1">
<feFuncA type="discrete" tableValues="1 1 1 1 1 1 1 1 1 1 1 1 1 1 1 1 1 1 1 1 1 1 1 1 1 1 1 1 1 1 1 1 1 1 1 1 1 1 1 1 1 1 1 1 1 1 1 1 1 1 1 0 0 0 0 0 0 0 0 0 0 0 0 0 0 0 0 0 0 0 0 0 0 0 0 0 0 0 0 0 0 0 0 0 0 0 0 0 0 0 0 0 0 0 0 0 0 0 0 0 "/>
</feComponentTransfer>
<feComposite operator="in" in2="effect4_foregroundBlur_444_719" in="coloredNoise1" result="noise1Clipped" />
<feFlood flood-color="rgba(0, 0, 0, 0.25)" result="color1Flood" />
<feComposite operator="in" in2="noise1Clipped" in="color1Flood" result="color1" />
<feMerge result="effect5_noise_444_719">
<feMergeNode in="effect4_foregroundBlur_444_719" />
<feMergeNode in="color1" />
</feMerge>
</filter>
<filter id="filter2_d_444_719" x="155.521" y="125.945" width="143.28" height="143.28" filterUnits="userSpaceOnUse" color-interpolation-filters="sRGB">
<feFlood flood-opacity="0" result="BackgroundImageFix"/>
<feColorMatrix in="SourceAlpha" type="matrix" values="0 0 0 0 0 0 0 0 0 0 0 0 0 0 0 0 0 0 127 0" result="hardAlpha"/>
<feOffset dx="-3.84712" dy="3.20593"/>
<feGaussianBlur stdDeviation="11.6696"/>
<feComposite in2="hardAlpha" operator="out"/>
<feColorMatrix type="matrix" values="0 0 0 0 0.293822 0 0 0 0 0.0536601 0 0 0 0 0.540064 0 0 0 0.26 0"/>
<feBlend mode="normal" in2="BackgroundImageFix" result="effect1_dropShadow_444_719"/>
<feBlend mode="normal" in="SourceGraphic" in2="effect1_dropShadow_444_719" result="shape"/>
</filter>
<linearGradient id="paint0_linear_444_719" x1="138.226" y1="-1.96356e-06" x2="186.09" y2="309.913" gradientUnits="userSpaceOnUse">
<stop stopColor="#191829"/>
<stop offset="1" stopColor="#291754"/>
</linearGradient>
<linearGradient id="paint1_linear_444_719" x1="67.083" y1="6.45735e-06" x2="297.486" y2="313.889" gradientUnits="userSpaceOnUse">
<stop stopColor="#121121"/>
<stop offset="0.136631" stopColor="#0D0040" stop-opacity="0.31"/>
<stop offset="0.434436" stopColor="#B778D9" stop-opacity="0"/>
<stop offset="1" stopColor="#422C75" stop-opacity="0.19"/>
</linearGradient>
<linearGradient id="paint2_linear_444_719" x1="111.864" y1="82.3887" x2="111.864" y2="241.791" gradientUnits="userSpaceOnUse">
<stop stopColor="#8B39E0"/>
<stop offset="1" stopColor="#4C1F7A"/>
</linearGradient>
<linearGradient id="paint3_linear_444_719" x1="74.1496" y1="82.3887" x2="193.593" y2="214.803" gradientUnits="userSpaceOnUse">
<stop stopColor="#422C75" stop-opacity="0.19"/>
<stop offset="0.565564" stopColor="#B778D9" stop-opacity="0"/>
<stop offset="0.863369" stopColor="#0D0040" stop-opacity="0.31"/>
<stop offset="1" stopColor="#121121"/>
</linearGradient>
<linearGradient id="paint4_linear_444_719" x1="145.802" y1="82.3872" x2="145.802" y2="241.792" gradientUnits="userSpaceOnUse">
<stop stopColor="#B874FF"/>
<stop offset="1" stopColor="#903FE4"/>
</linearGradient>
<linearGradient id="paint5_linear_444_719" x1="227.151" y1="94.7604" x2="134.727" y2="229.976" gradientUnits="userSpaceOnUse">
<stop stopColor="#E4CAFF"/>
<stop offset="1" stopColor="#903FE4"/>
</linearGradient>
<linearGradient id="paint6_linear_444_719" x1="142.886" y1="83.2759" x2="262.33" y2="215.7" gradientUnits="userSpaceOnUse">
<stop stopColor="#422C75" stop-opacity="0.19"/>
<stop offset="0.565564" stopColor="#B778D9" stop-opacity="0"/>
<stop offset="0.863369" stopColor="#0D0040" stop-opacity="0.31"/>
<stop offset="1" stopColor="#121121"/>
</linearGradient>
<linearGradient id="paint7_linear_444_719" x1="176.27" y1="83.2751" x2="295.715" y2="215.705" gradientUnits="userSpaceOnUse">
<stop stopColor="#422C75" stop-opacity="0.19"/>
<stop offset="0.565564" stopColor="#B778D9" stop-opacity="0"/>
<stop offset="0.863369" stopColor="#0D0040" stop-opacity="0.31"/>
<stop offset="1" stopColor="#121121"/>
</linearGradient>
<linearGradient id="paint8_linear_444_719" x1="234.922" y1="152.368" x2="160.119" y2="108.125" gradientUnits="userSpaceOnUse">
<stop stopColor="#CAC2FF"/>
<stop offset="1" stopColor="#903FE4"/>
</linearGradient>
<linearGradient id="paint9_linear_444_719" x1="230.728" y1="90.4628" x2="175.772" y2="260.118" gradientUnits="userSpaceOnUse">
<stop stopColor="#422C75" stop-opacity="0.19"/>
<stop offset="0.565564" stopColor="#B778D9" stop-opacity="0"/>
<stop offset="0.863369" stopColor="#0D0040" stop-opacity="0.31"/>
<stop offset="1" stopColor="#121121"/>
</linearGradient>
<linearGradient id="paint10_linear_444_719" x1="194.981" y1="84.1341" x2="271.447" y2="251.384" gradientUnits="userSpaceOnUse">
<stop stopColor="#D8B3FE"/>
<stop offset="0.465122" stopColor="white" stop-opacity="0.76"/>
<stop offset="1" stopColor="#903FE4" stop-opacity="0"/>
</linearGradient>
<linearGradient id="paint11_linear_444_719" x1="194.981" y1="84.1341" x2="275.925" y2="218.049" gradientUnits="userSpaceOnUse">
<stop stopColor="#903FE4" stop-opacity="0"/>
<stop offset="0.534878" stopColor="white" stop-opacity="0.76"/>
<stop offset="1" stopColor="#D8B3FE"/>
</linearGradient>
<linearGradient id="paint12_linear_444_719" x1="182.707" y1="194.379" x2="279.309" y2="194.379" gradientUnits="userSpaceOnUse">
<stop stopColor="white"/>
<stop offset="0.566519" stopColor="#D0E5FF"/>
<stop offset="0.932692" stopColor="#E0D2FF"/>
</linearGradient>
</defs>
</svg>
