<svg width="250" height="69" viewBox="0 0 250 69" fill="none" xmlns="http://www.w3.org/2000/svg">
<path fill-rule="evenodd" clip-rule="evenodd" d="M205.713 46.1961C206.36 16.2909 249.054 16.178 250 45.9637L250 45.9702V45.9765C249.958 53.6011 247.211 59.3536 243.084 63.2032C238.962 67.0478 233.484 68.9768 228.003 68.9998C222.522 69.0228 217.02 67.14 212.85 63.3365C208.674 59.5282 205.852 53.811 205.713 46.2097L205.713 46.203L205.713 46.1961ZM227.724 34.0468C224.785 34.0719 221.866 35.0987 219.724 37.1062C217.59 39.1073 216.207 42.102 216.359 46.1163L216.36 46.1317L216.359 46.1469C216.147 50.3614 217.542 53.4744 219.713 55.5296C221.892 57.5914 224.876 58.6111 227.869 58.5799C230.861 58.5487 233.838 57.4668 236.001 55.3597C238.157 53.2591 239.528 50.1183 239.282 45.9141L239.281 45.9002L239.281 45.8864C239.37 41.8876 237.939 38.9256 235.773 36.9653C233.599 34.9987 230.664 34.0217 227.724 34.0468Z" fill="black"/>
<path d="M83.1561 28.9189C86.1546 25.1461 90.822 23.5677 95.3841 23.8753C100.199 24.2 104.951 26.6282 107.567 30.8677H107.57L107.667 31.0207C108.895 32.9552 109.621 35.6739 110.043 38.7667C110.465 41.8663 110.586 45.3777 110.58 48.9222C110.575 52.4665 110.442 56.0582 110.356 59.3117C110.269 62.5723 110.229 65.4872 110.405 67.7019L110.434 68.0656H100.062V48.8574C99.9648 46.6062 99.9037 44.5955 99.7361 42.8254C99.5684 41.0541 99.2963 39.5539 98.7898 38.3265C98.2868 37.1077 97.5534 36.159 96.4535 35.4812C95.3479 34.7999 93.8472 34.3768 91.7867 34.2588C90.1357 34.2229 88.7967 34.5678 87.7074 35.2016C86.6165 35.8364 85.7566 36.7725 85.0817 37.9476C83.7256 40.3093 83.1314 43.6113 82.9232 47.2649C82.7154 50.9112 82.8939 54.8583 83.0512 58.4889C83.2078 62.1033 83.3452 65.4257 83.0417 67.7734L83.0038 68.0656H73.0416V24.7443H83.1561V28.9189Z" fill="black"/>
<path d="M65.0279 68.0608H54.9135V24.7395H65.0279V68.0608Z" fill="black"/>
<path d="M128.336 68.0608H118.222V24.7395H128.336V68.0608Z" fill="black"/>
<path d="M146.464 28.9302C149.678 24.9504 154.619 23.4215 159.431 23.8751C164.365 24.3403 169.215 26.894 172 31.0957C174.502 26.7569 178.989 24.3974 183.586 23.9776C188.343 23.5432 193.271 25.1814 196.294 28.9182C198.008 30.6411 199.057 33.3935 199.695 36.6324C200.337 39.8888 200.574 43.6891 200.627 47.5467C200.68 51.4054 200.549 55.3375 200.45 58.8552C200.351 62.3814 200.285 65.479 200.464 67.6956L200.494 68.0597H190.272V48.8526C190.168 46.5923 190.114 44.5817 189.962 42.8111C189.809 41.0401 189.56 39.544 189.078 38.3205C188.601 37.1059 187.896 36.1629 186.823 35.4869C185.745 34.8069 184.269 34.3808 182.224 34.2529C180.603 34.205 179.29 34.5423 178.221 35.1719C177.15 35.8027 176.305 36.7386 175.641 37.9175C174.307 40.2866 173.723 43.6066 173.518 47.2764C173.313 50.9387 173.488 54.9002 173.643 58.5316C173.797 62.1466 173.931 65.4569 173.633 67.7676L173.595 68.0597H163.37V48.8522C163.268 46.5763 163.209 44.5543 163.046 42.7788C162.883 41.0025 162.618 39.5057 162.117 38.2847C161.62 37.0728 160.892 36.1335 159.791 35.463C158.684 34.7886 157.175 34.3711 155.095 34.2529C153.444 34.217 152.105 34.5619 151.016 35.1958C149.925 35.8306 149.065 36.7666 148.39 37.9418C147.034 40.3035 146.44 43.6055 146.231 47.259C146.024 50.9054 146.202 54.8524 146.359 58.483C146.516 62.0974 146.653 65.4198 146.35 67.7676L146.312 68.0597H136.35V24.7384H146.464V28.9302Z" fill="black"/>
<path d="M22.0825 0.0364141C35.778 -0.694123 47.1063 10.4718 47.1063 24.3415C47.1063 35.5257 39.7398 44.9413 29.7103 47.7933L29.7044 47.7951L29.6984 47.7966C28.2229 48.1563 27.1427 47.8903 26.3941 47.1515C25.6688 46.4358 25.3168 45.3335 25.1452 44.1595C24.9723 42.9766 24.9746 41.6588 25.0069 40.4557C25.0396 39.2353 25.1015 38.1549 25.0583 37.3884L25.0564 37.3555L25.0608 37.3227C25.241 35.9902 25.9065 35.0824 26.7652 34.3318C27.1907 33.9598 27.6672 33.6233 28.1553 33.2927C28.6483 32.9588 29.1488 32.6339 29.6485 32.2714C30.6419 31.5507 31.5926 30.7087 32.3017 29.4868C33.0093 28.2675 33.4909 26.6445 33.504 24.3415L33.5031 24.2037C33.4294 18.3814 28.6935 13.7118 22.9425 13.9382L22.9406 13.9384H22.9387C17.5887 14.0847 14.2536 18.0879 13.4851 22.5828C12.7284 27.0092 14.473 31.8347 19.1962 33.8463L19.4234 33.9399L19.4265 33.941L19.4295 33.9423C20.8172 34.5286 21.7672 35.8699 21.7673 37.4294V65.9074L21.7577 65.9471C21.5361 66.8643 21.1319 67.5114 20.5174 67.8018C19.9054 68.0909 19.1875 67.9776 18.4489 67.6219C16.977 66.9131 15.1776 65.1277 13.3008 62.6347C9.53105 57.6271 5.31936 49.5867 2.66568 40.908C0.0140913 32.2362 -1.09932 22.8703 1.39463 15.2382C2.64388 11.4152 4.79842 8.02799 8.11272 5.39038C11.4253 2.75413 15.8795 0.880093 21.7091 0.0528872L22.0825 0V0.0364141Z" fill="black"/>
<path d="M59.9738 11.0946C61.3662 11.0946 62.7719 11.5526 63.8284 12.4859C64.8922 13.4258 65.5824 14.8314 65.5564 16.6744C65.5799 18.5126 64.8903 19.915 63.8284 20.8532C62.7719 21.7865 61.3662 22.2445 59.9738 22.2445C58.5813 22.2445 57.1758 21.7865 56.1194 20.8532C55.0574 19.915 54.3677 18.5127 54.3911 16.6744L54.3907 16.503C54.4085 14.744 55.0888 13.3964 56.1194 12.4859C57.1758 11.5526 58.5813 11.0946 59.9738 11.0946Z" fill="black"/>
<path d="M123.282 11.0946C124.674 11.0946 126.08 11.5526 127.137 12.4859C128.2 13.4258 128.891 14.8314 128.865 16.6744C128.888 18.5126 128.198 19.915 127.137 20.8532C126.08 21.7865 124.674 22.2445 123.282 22.2445C121.889 22.2445 120.484 21.7865 119.428 20.8532C118.366 19.915 117.676 18.5127 117.699 16.6744L117.699 16.503C117.717 14.744 118.397 13.3964 119.428 12.4859C120.484 11.5526 121.889 11.0946 123.282 11.0946Z" fill="black"/>
</svg>
