<svg width="184" height="97" viewBox="0 0 184 97" fill="none" xmlns="http://www.w3.org/2000/svg">
<path d="M101.39 30.3195C112.932 30.3195 122.289 39.6766 122.289 51.2189C122.289 62.7612 112.932 72.1183 101.39 72.1183H92.3281C91.9363 72.1183 91.5491 72.0974 91.167 72.0607V96.9904H80.3438V30.3195H101.39ZM91.167 55.8722C91.3417 58.9194 93.867 61.3369 96.958 61.337H101.345C106.933 61.337 111.463 56.8068 111.463 51.2189C111.463 45.631 106.933 41.1007 101.345 41.1007H91.167V55.8722Z" fill="white"/>
<path d="M162.173 72.1562C150.63 72.1562 141.273 62.7992 141.273 51.2568C141.274 39.7145 150.631 30.3574 162.173 30.3574L171.234 30.3574C171.626 30.3574 172.013 30.3783 172.396 30.415L172.396 2.62891L183.219 2.62891L183.219 72.1562L162.173 72.1562ZM172.396 46.6035C172.221 43.5562 169.695 41.1388 166.604 41.1387L162.218 41.1387C156.63 41.1387 152.1 45.6689 152.1 51.2568C152.1 56.8447 156.63 61.375 162.218 61.375L172.396 61.375L172.396 46.6035Z" fill="white"/>
<path d="M126.359 27.1503C128.01 27.9011 129.845 28.3192 131.777 28.3192C133.705 28.3191 135.535 27.9017 137.183 27.1542V72.1542H126.359V27.1503ZM131.775 10.1493C135.932 10.1493 139.302 13.5074 139.302 17.6493C139.302 21.7913 135.932 25.1493 131.775 25.1493C127.619 25.149 124.25 21.7911 124.25 17.6493C124.25 13.5076 127.619 10.1495 131.775 10.1493Z" fill="white"/>
<mask id="mask0_2373_2607" style="mask-type:alpha" maskUnits="userSpaceOnUse" x="0" y="0" width="76" height="76">
<path d="M38.4832 75.127V59.4755V36.7809H75.2297V0H0V75.127H38.4832Z" fill="#D9D9D9"/>
</mask>
<g mask="url(#mask0_2373_2607)">
<ellipse cx="13.4107" cy="12.3649" rx="7.52679" ry="7.50048" transform="rotate(180 13.4107 12.3649)" fill="white"/>
<path d="M6.60059 21.4054C8.4955 22.8235 10.8502 23.6641 13.4023 23.6642C15.3183 23.6642 17.1225 23.1887 18.7051 22.3527C15.6005 26.4398 13.7579 31.5317 13.7578 37.0529C13.7578 49.8478 23.6487 60.339 36.2266 61.3527V72.1749C17.6592 71.1424 2.92188 55.8134 2.92188 37.0529C2.92196 31.4312 4.24744 26.1186 6.60059 21.4054ZM52.9219 56.5441C52.129 58.0868 51.6797 59.8342 51.6797 61.6866C51.6797 64.2593 52.5441 66.63 53.9971 68.5294C49.8125 70.6156 45.1553 71.9003 40.2266 72.1749V61.3527C44.9701 60.97 49.3298 59.2379 52.9219 56.5441ZM73.4688 39.0529C73.1947 43.9249 71.9238 48.5311 69.8594 52.6749C67.958 51.2395 65.5889 50.3869 63.0195 50.3868C61.1485 50.3868 59.3837 50.84 57.8281 51.6398C60.5051 48.0728 62.2265 43.7519 62.6094 39.0529H73.4688ZM38.2246 1.87415C57.0478 1.87423 72.428 16.5549 73.4688 35.0529H62.6094C61.5883 22.523 51.0625 12.6712 38.2256 12.671C32.6686 12.6711 27.5443 14.5177 23.4365 17.6281C24.2686 16.0561 24.7421 14.2662 24.7422 12.3654C24.7422 9.81423 23.8929 7.46079 22.4619 5.56946C27.2066 3.20599 32.5594 1.87418 38.2246 1.87415Z" fill="white"/>
</g>
<mask id="mask1_2373_2607" style="mask-type:alpha" maskUnits="userSpaceOnUse" x="37" y="37" width="43" height="43">
<path d="M37.8438 79.8225V52.7455V37.5636H79.465V79.8225H37.8438Z" fill="#D9D9D9"/>
</mask>
<g mask="url(#mask1_2373_2607)">
<ellipse cx="63.019" cy="61.5299" rx="7.52679" ry="7.50048" fill="white"/>
<path d="M6.60059 21.2488C8.4955 22.6669 10.8502 23.5075 13.4023 23.5076C15.3183 23.5076 17.1225 23.0321 18.7051 22.196C15.6005 26.2832 13.7579 31.3751 13.7578 36.8962C13.7578 49.6912 23.6487 60.1824 36.2266 61.196V72.0183C17.6592 70.9858 2.92188 55.6568 2.92188 36.8962C2.92196 31.2746 4.24743 25.962 6.60059 21.2488ZM52.9219 56.3875C52.129 57.9302 51.6797 59.6776 51.6797 61.53C51.6797 64.1027 52.5441 66.4734 53.9971 68.3728C49.8125 70.459 45.1553 71.7437 40.2266 72.0183V61.196C44.97 60.8134 49.3296 59.0812 52.9219 56.3875ZM73.4697 38.8962C73.1957 43.7684 71.9239 48.3745 69.8594 52.5183C67.958 51.0829 65.5889 50.2303 63.0195 50.2302C61.1488 50.2302 59.3845 50.6837 57.8291 51.4832C60.5061 47.9162 62.2275 43.5952 62.6104 38.8962H73.4697ZM38.2246 1.71753C57.0478 1.71761 72.429 16.3982 73.4697 34.8962H62.6104C61.5892 22.3663 51.0625 12.5145 38.2256 12.5144C32.6681 12.5145 27.5435 14.3616 23.4355 17.4724C24.268 15.9001 24.7421 14.11 24.7422 12.2087C24.7422 9.6576 23.8929 7.30418 22.4619 5.41284C27.2066 3.0494 32.5594 1.71756 38.2246 1.71753Z" fill="white"/>
</g>
</svg>
